<svg width="55" height="24" viewBox="0 0 55 24" fill="none" xmlns="http://www.w3.org/2000/svg">
<rect x="1.26758" y="1" width="53.3126" height="22.0001" rx="11" fill="white"/>
<path d="M14.96 11.7132H13.2412V9.99447C13.2412 9.82259 13.1266 9.70801 12.9548 9.70801C12.7829 9.70801 12.6683 9.82259 12.6683 9.99447V11.7132H10.9495C10.7777 11.7132 10.6631 11.8278 10.6631 11.9997C10.6631 12.1716 10.7777 12.2861 10.9495 12.2861H12.6683V14.0049C12.6683 14.1768 12.7829 14.2914 12.9548 14.2914C13.1266 14.2914 13.2412 14.1768 13.2412 14.0049V12.2861H14.96C15.1319 12.2861 15.2464 12.1716 15.2464 11.9997C15.2464 11.8278 15.1319 11.7132 14.96 11.7132Z" fill="#3E3E3E"/>
<path d="M20.1257 14.5H19.2182L21.0332 9.47436H21.9338L23.7488 14.5H22.8207L22.4151 13.3381H20.5382L20.1257 14.5ZM21.3701 10.9731L20.7926 12.5956H22.1607L21.5832 10.9731C21.5649 10.9044 21.5443 10.8356 21.5213 10.7669C21.4984 10.6981 21.4847 10.6385 21.4801 10.5881C21.4709 10.6339 21.4549 10.6935 21.432 10.7669C21.4136 10.8356 21.393 10.9044 21.3701 10.9731ZM25.0954 14.5H24.2635V9.38498H25.0954V14.5ZM26.7466 14.5H25.9698V9.38498H26.8085V11.5987C26.9185 11.4062 27.0789 11.2596 27.2898 11.1587C27.5006 11.0533 27.7366 11.0006 27.9979 11.0006C28.3233 11.0006 28.6006 11.0785 28.8298 11.2344C29.0635 11.3856 29.2423 11.5987 29.366 11.8737C29.4944 12.1487 29.5585 12.4673 29.5585 12.8294C29.5585 13.1731 29.4921 13.4779 29.3591 13.7437C29.2262 14.0096 29.0383 14.2181 28.7954 14.3694C28.5525 14.516 28.2683 14.5894 27.9429 14.5894C27.6908 14.5894 27.4616 14.5344 27.2554 14.4244C27.0537 14.3144 26.9025 14.1631 26.8016 13.9706L26.7466 14.5ZM26.8154 12.7881C26.8154 12.9898 26.8543 13.1708 26.9323 13.3312C27.0102 13.4871 27.1202 13.6085 27.2623 13.6956C27.4089 13.7781 27.5785 13.8194 27.771 13.8194C27.9681 13.8194 28.1377 13.7758 28.2798 13.6887C28.4219 13.6017 28.5296 13.4802 28.6029 13.3244C28.6762 13.1685 28.7129 12.9898 28.7129 12.7881C28.7129 12.5865 28.6762 12.4077 28.6029 12.2519C28.5296 12.096 28.4219 11.9746 28.2798 11.8875C28.1377 11.7958 27.9681 11.75 27.771 11.75C27.5785 11.75 27.4089 11.7958 27.2623 11.8875C27.1202 11.9746 27.0102 12.096 26.9323 12.2519C26.8543 12.4031 26.8154 12.5819 26.8154 12.7881ZM32.4434 11.1037H33.2822V14.5H32.5053L32.4434 14.0462C32.3426 14.2067 32.1913 14.3373 31.9897 14.4381C31.788 14.539 31.5726 14.5894 31.3434 14.5894C30.9538 14.5894 30.6491 14.4656 30.4291 14.2181C30.209 13.9706 30.099 13.6406 30.099 13.2281V11.1037H30.9378V12.9325C30.9378 13.2533 30.9997 13.4848 31.1234 13.6269C31.2472 13.769 31.4259 13.84 31.6597 13.84C31.9255 13.84 32.1226 13.7621 32.2509 13.6062C32.3793 13.4458 32.4434 13.2052 32.4434 12.8844V11.1037ZM34.9817 14.5H34.143V11.1037H34.913L35.0161 11.7087L34.9199 11.6262C34.9886 11.4612 35.1147 11.3169 35.298 11.1931C35.4813 11.0648 35.7105 11.0006 35.9855 11.0006C36.2834 11.0006 36.5263 11.0785 36.7143 11.2344C36.9068 11.3902 37.0397 11.5964 37.113 11.8531H36.9755C37.0259 11.5964 37.1543 11.3902 37.3605 11.2344C37.5713 11.0785 37.8257 11.0006 38.1236 11.0006C38.5361 11.0006 38.8524 11.1175 39.0724 11.3512C39.2924 11.5804 39.4024 11.8898 39.4024 12.2794V14.5H38.5705V12.4994C38.5705 12.2564 38.5086 12.0731 38.3849 11.9494C38.2657 11.821 38.1053 11.7569 37.9036 11.7569C37.7753 11.7569 37.6561 11.7867 37.5461 11.8462C37.4407 11.9058 37.3559 11.9952 37.2918 12.1144C37.2276 12.2335 37.1955 12.3871 37.1955 12.575V14.5H36.3568V12.4925C36.3568 12.2542 36.2972 12.0731 36.178 11.9494C36.0588 11.8256 35.9007 11.7637 35.7036 11.7637C35.5707 11.7637 35.4492 11.7935 35.3392 11.8531C35.2292 11.9081 35.1422 11.9975 35.078 12.1212C35.0138 12.2404 34.9817 12.3917 34.9817 12.575V14.5Z" fill="#3E3E3E"/>
<path d="M42.8926 11.1406L44.6113 12.8594L46.3301 11.1406" stroke="#3E3E3E" stroke-width="0.644534" stroke-linecap="round" stroke-linejoin="round"/>
<rect x="1.0957" y="0.828124" width="53.6564" height="22.3438" rx="11.1719" stroke="black" stroke-opacity="0.04" stroke-width="0.343751"/>
</svg>
