<svg width="24" height="24" viewBox="0 0 24 24" fill="none" xmlns="http://www.w3.org/2000/svg">
<path d="M17 19C17 19.553 16.553 20 16 20H8C7.447 20 7 19.553 7 19C7 18.447 7.447 18 8 18H16C16.553 18 17 18.447 17 19ZM24 9C24 9.553 23.553 10 23 10H22V19C22 21.757 19.757 24 17 24H7C4.243 24 2 21.757 2 19V10H1C0.447 10 0 9.553 0 9C0 8.447 0.447 8 1 8H2.184C2.486 7.153 3.153 6.486 4 6.184V4.5C4 2.019 6.019 0 8.5 0H15.5C17.981 0 20 2.019 20 4.5V6.184C20.847 6.486 21.514 7.153 21.816 8H23C23.553 8 24 8.447 24 9ZM6 4.5V6H10C10.553 6 11 6.447 11 7C11 7.553 10.553 8 10 8H9C8.448 8 8 8.448 8 9C8 9.552 8.448 10 9 10H15C15.552 10 16 9.552 16 9C16 8.448 15.552 8 15 8H14C13.447 8 13 7.553 13 7C13 6.447 13.447 6 14 6H18V4.5C18 3.121 16.879 2 15.5 2H8.5C7.121 2 6 3.121 6 4.5ZM20 9C20 8.448 19.552 8 19 8H17.816C17.928 8.314 18 8.648 18 9C18 10.654 16.654 12 15 12H9C7.346 12 6 10.654 6 9C6 8.648 6.072 8.314 6.184 8H5C4.448 8 4 8.448 4 9V19C4 20.654 5.346 22 7 22H17C18.654 22 20 20.654 20 19V9ZM7.5 16.5C8.328 16.5 9 15.828 9 15C9 14.172 8.328 13.5 7.5 13.5C6.672 13.5 6 14.172 6 15C6 15.828 6.672 16.5 7.5 16.5ZM12 16.5C12.828 16.5 13.5 15.828 13.5 15C13.5 14.172 12.828 13.5 12 13.5C11.172 13.5 10.5 14.172 10.5 15C10.5 15.828 11.172 16.5 12 16.5ZM16.5 13.5C15.672 13.5 15 14.172 15 15C15 15.828 15.672 16.5 16.5 16.5C17.328 16.5 18 15.828 18 15C18 14.172 17.328 13.5 16.5 13.5Z" fill="black"/>
</svg>
