<svg width="24" height="24" viewBox="0 0 24 24" fill="none" xmlns="http://www.w3.org/2000/svg">
<path d="M10.808 9.845C10.9456 10.1003 11.0113 10.3883 10.9979 10.678C10.9845 10.9678 10.8926 11.2484 10.732 11.49L8.85 14.527C8.71023 14.7524 8.48663 14.9131 8.2284 14.9737C7.97016 15.0343 7.69843 14.9898 7.473 14.85C7.24757 14.7102 7.08689 14.4866 7.02631 14.2284C6.96574 13.9702 7.01023 13.6984 7.15 13.473L8.683 11H6.615C6.36287 11.0001 6.11423 10.9411 5.889 10.8278C5.66377 10.7145 5.46822 10.55 5.31802 10.3475C5.16782 10.145 5.06715 9.91014 5.02408 9.66172C4.98101 9.4133 4.99674 9.15825 5.07 8.917C5.1 8.835 7.148 5.476 7.148 5.476C7.21294 5.35665 7.30153 5.25179 7.40835 5.16781C7.51517 5.08384 7.63798 5.02251 7.76929 4.98758C7.9006 4.95265 8.03765 4.94484 8.17207 4.96464C8.3065 4.98444 8.43548 5.03142 8.55114 5.10272C8.66681 5.17403 8.76673 5.26815 8.8448 5.37936C8.92288 5.49056 8.97747 5.61651 9.00525 5.74952C9.03303 5.88252 9.03342 6.01979 9.00638 6.15295C8.97934 6.28611 8.92545 6.41236 8.848 6.524L7.328 9H9.4C9.68914 9.00048 9.97275 9.07931 10.2207 9.2281C10.4686 9.37688 10.6716 9.59007 10.808 9.845ZM24 3V5.5C24.0001 6.07633 23.8011 6.63499 23.4367 7.08145C23.0722 7.52791 22.5647 7.83473 22 7.95V17C22 18.0609 21.5786 19.0783 20.8284 19.8284C20.0783 20.5786 19.0609 21 18 21H15.582C15.192 21.891 14.5511 22.6491 13.7374 23.1818C12.9238 23.7146 11.9726 23.9989 11 24H5C3.67441 23.9984 2.40356 23.4711 1.46622 22.5338C0.528882 21.5964 0.00158786 20.3256 0 19L0 5C0.00158786 3.67441 0.528882 2.40356 1.46622 1.46622C2.40356 0.528882 3.67441 0.00158786 5 0L11 0C12.3256 0.00158786 13.5964 0.528882 14.5338 1.46622C15.4711 2.40356 15.9984 3.67441 16 5V19H18C18.5304 19 19.0391 18.7893 19.4142 18.4142C19.7893 18.0391 20 17.5304 20 17V7.95C19.4353 7.83473 18.9278 7.52791 18.5633 7.08145C18.1989 6.63499 17.9999 6.07633 18 5.5V3C18 2.73478 18.1054 2.48043 18.2929 2.29289C18.4804 2.10536 18.7348 2 19 2C19.2652 2 19.5196 2.10536 19.7071 2.29289C19.8946 2.48043 20 2.73478 20 3V4H22V3C22 2.73478 22.1054 2.48043 22.2929 2.29289C22.4804 2.10536 22.7348 2 23 2C23.2652 2 23.5196 2.10536 23.7071 2.29289C23.8946 2.48043 24 2.73478 24 3ZM14 19V11H13C12.7348 11 12.4804 10.8946 12.2929 10.7071C12.1054 10.5196 12 10.2652 12 10C12 9.73478 12.1054 9.48043 12.2929 9.29289C12.4804 9.10536 12.7348 9 13 9H14V5C14 4.20435 13.6839 3.44129 13.1213 2.87868C12.5587 2.31607 11.7956 2 11 2H5C4.20435 2 3.44129 2.31607 2.87868 2.87868C2.31607 3.44129 2 4.20435 2 5V9H3C3.26522 9 3.51957 9.10536 3.70711 9.29289C3.89464 9.48043 4 9.73478 4 10C4 10.2652 3.89464 10.5196 3.70711 10.7071C3.51957 10.8946 3.26522 11 3 11H2V19C2 19.7956 2.31607 20.5587 2.87868 21.1213C3.44129 21.6839 4.20435 22 5 22H11C11.7956 22 12.5587 21.6839 13.1213 21.1213C13.6839 20.5587 14 19.7956 14 19Z" fill="black"/>
</svg>
