<svg width="24" height="24" viewBox="0 0 24 24" fill="none" xmlns="http://www.w3.org/2000/svg">
<path d="M4.6725 15.6975C3.60473 15.5674 2.6209 15.0528 1.905 14.25C1.16376 15.0737 0.752501 16.1419 0.75 17.25V19.5C0.75 19.6989 0.829018 19.8897 0.96967 20.0303C1.11032 20.171 1.30109 20.25 1.5 20.25H4.635C4.54768 20.0095 4.50203 19.7559 4.5 19.5V17.25C4.50012 16.7277 4.55797 16.2071 4.6725 15.6975ZM7.335 11.4C6.9494 10.6588 6.7487 9.83546 6.75 9V7.92C6.29701 7.64734 5.77872 7.50222 5.25 7.5C4.45435 7.5 3.69129 7.81607 3.12868 8.37868C2.56607 8.94129 2.25 9.70435 2.25 10.5V11.25C2.24945 12.0265 2.55004 12.773 3.08854 13.3325C3.62704 13.892 4.36151 14.2209 5.1375 14.25C5.62784 13.1357 6.38205 12.1576 7.335 11.4ZM22.095 14.25C21.3791 15.0528 20.3953 15.5674 19.3275 15.6975C19.442 16.2071 19.4999 16.7277 19.5 17.25V19.5C19.498 19.7559 19.4523 20.0095 19.365 20.25H22.5C22.6989 20.25 22.8897 20.171 23.0303 20.0303C23.171 19.8897 23.25 19.6989 23.25 19.5V17.25C23.2475 16.1419 22.8362 15.0737 22.095 14.25ZM21.75 11.25V10.5C21.75 9.70435 21.4339 8.94129 20.8713 8.37868C20.3087 7.81607 19.5456 7.5 18.75 7.5C18.2213 7.50222 17.703 7.64734 17.25 7.92V9C17.2513 9.83546 17.0506 10.6588 16.665 11.4C17.6179 12.1576 18.3722 13.1357 18.8625 14.25C19.6385 14.2209 20.373 13.892 20.9115 13.3325C21.45 12.773 21.7505 12.0265 21.75 11.25ZM15.8025 12.615C15.3121 13.1301 14.7222 13.5402 14.0686 13.8204C13.4149 14.1006 12.7112 14.2451 12 14.2451C11.2888 14.2451 10.5851 14.1006 9.93141 13.8204C9.27776 13.5402 8.68786 13.1301 8.1975 12.615C7.51139 13.1771 6.95844 13.8844 6.57846 14.6858C6.19848 15.4873 6.00092 16.363 6 17.25V19.5C6 19.6989 6.07902 19.8897 6.21967 20.0303C6.36032 20.171 6.55109 20.25 6.75 20.25H17.25C17.4489 20.25 17.6397 20.171 17.7803 20.0303C17.921 19.8897 18 19.6989 18 19.5V17.25C17.9991 16.363 17.8015 15.4873 17.4215 14.6858C17.0416 13.8844 16.4886 13.1771 15.8025 12.615Z" fill="#4B4EFC"/>
<path d="M12 12.75C12.9946 12.75 13.9484 12.3549 14.6517 11.6517C15.3549 10.9484 15.75 9.99456 15.75 9V7.5C15.75 6.50544 15.3549 5.55161 14.6517 4.84835C13.9484 4.14509 12.9946 3.75 12 3.75C11.0054 3.75 10.0516 4.14509 9.34835 4.84835C8.64509 5.55161 8.25 6.50544 8.25 7.5V9C8.25 9.99456 8.64509 10.9484 9.34835 11.6517C10.0516 12.3549 11.0054 12.75 12 12.75Z" fill="#4B4EFC"/>
</svg>
