<svg width="349" height="155" viewBox="0 0 349 155" fill="none" xmlns="http://www.w3.org/2000/svg">
<g filter="url(#filter0_d_101_37061)">
<rect x="3" y="2" width="343" height="149" rx="4" fill="white" shape-rendering="crispEdges"/>
<path d="M181.5 50.2499C181.235 50.2499 180.98 50.3553 180.793 50.5428C180.605 50.7303 180.5 50.9847 180.5 51.2499V51.6299L179.02 50.1499C178.497 49.6314 177.791 49.3405 177.055 49.3405C176.319 49.3405 175.613 49.6314 175.09 50.1499L174.39 50.8499L171.91 48.3699C171.38 47.8655 170.677 47.5842 169.945 47.5842C169.213 47.5842 168.51 47.8655 167.98 48.3699L166.5 49.8499V44.2499C166.5 43.9847 166.605 43.7303 166.793 43.5428C166.98 43.3553 167.235 43.2499 167.5 43.2499H174.5C174.765 43.2499 175.02 43.1445 175.207 42.957C175.395 42.7695 175.5 42.5151 175.5 42.2499C175.5 41.9847 175.395 41.7303 175.207 41.5428C175.02 41.3553 174.765 41.2499 174.5 41.2499H167.5C166.704 41.2499 165.941 41.566 165.379 42.1286C164.816 42.6912 164.5 43.4542 164.5 44.2499V56.2499C164.5 57.0455 164.816 57.8086 165.379 58.3712C165.941 58.9338 166.704 59.2499 167.5 59.2499H179.5C180.296 59.2499 181.059 58.9338 181.621 58.3712C182.184 57.8086 182.5 57.0455 182.5 56.2499V51.2499C182.5 50.9847 182.395 50.7303 182.207 50.5428C182.02 50.3553 181.765 50.2499 181.5 50.2499ZM167.5 57.2499C167.235 57.2499 166.98 57.1445 166.793 56.957C166.605 56.7695 166.5 56.5151 166.5 56.2499V52.6799L169.4 49.7799C169.547 49.6399 169.742 49.5618 169.945 49.5618C170.148 49.5618 170.343 49.6399 170.49 49.7799L173.66 52.9499L177.96 57.2499H167.5ZM180.5 56.2499C180.499 56.4413 180.435 56.6272 180.32 56.7799L175.81 52.2499L176.51 51.5499C176.582 51.4767 176.667 51.4186 176.762 51.3789C176.856 51.3392 176.958 51.3188 177.06 51.3188C177.162 51.3188 177.264 51.3392 177.358 51.3789C177.453 51.4186 177.538 51.4767 177.61 51.5499L180.5 54.4599V56.2499ZM185.21 41.5399L182.21 38.5399C182.115 38.4489 182.003 38.3775 181.88 38.3299C181.637 38.2299 181.363 38.2299 181.12 38.3299C180.997 38.3775 180.885 38.4489 180.79 38.5399L177.79 41.5399C177.697 41.6331 177.623 41.7438 177.572 41.8656C177.522 41.9875 177.496 42.118 177.496 42.2499C177.496 42.5162 177.602 42.7716 177.79 42.9599C177.978 43.1482 178.234 43.254 178.5 43.254C178.766 43.254 179.022 43.1482 179.21 42.9599L180.5 41.6599V47.2499C180.5 47.5151 180.605 47.7695 180.793 47.957C180.98 48.1445 181.235 48.2499 181.5 48.2499C181.765 48.2499 182.02 48.1445 182.207 47.957C182.395 47.7695 182.5 47.5151 182.5 47.2499V41.6599L183.79 42.9599C183.883 43.0536 183.994 43.128 184.115 43.1788C184.237 43.2296 184.368 43.2557 184.5 43.2557C184.632 43.2557 184.763 43.2296 184.885 43.1788C185.006 43.128 185.117 43.0536 185.21 42.9599C185.304 42.8669 185.378 42.7563 185.429 42.6345C185.48 42.5126 185.506 42.3819 185.506 42.2499C185.506 42.1179 185.48 41.9872 185.429 41.8653C185.378 41.7435 185.304 41.6329 185.21 41.5399Z" fill="black"/>
<path d="M143.948 83.25H142.364L145.532 74.478H147.104L150.272 83.25H148.652L147.944 81.222H144.668L143.948 83.25ZM146.12 77.094L145.112 79.926H147.5L146.492 77.094C146.46 76.974 146.424 76.854 146.384 76.734C146.344 76.614 146.32 76.51 146.312 76.422C146.296 76.502 146.268 76.606 146.228 76.734C146.196 76.854 146.16 76.974 146.12 77.094ZM153.323 83.406C152.747 83.406 152.251 83.278 151.835 83.022C151.427 82.758 151.107 82.394 150.875 81.93C150.651 81.466 150.539 80.926 150.539 80.31C150.539 79.694 150.651 79.15 150.875 78.678C151.107 78.198 151.439 77.822 151.871 77.55C152.303 77.278 152.815 77.142 153.407 77.142C153.823 77.142 154.203 77.226 154.547 77.394C154.891 77.554 155.155 77.782 155.339 78.078V74.322H156.791V83.25H155.447L155.351 82.326C155.175 82.662 154.903 82.926 154.535 83.118C154.175 83.31 153.771 83.406 153.323 83.406ZM153.647 82.062C153.991 82.062 154.287 81.99 154.535 81.846C154.783 81.694 154.975 81.482 155.111 81.21C155.255 80.93 155.327 80.614 155.327 80.262C155.327 79.902 155.255 79.59 155.111 79.326C154.975 79.054 154.783 78.842 154.535 78.69C154.287 78.53 153.991 78.45 153.647 78.45C153.311 78.45 153.019 78.53 152.771 78.69C152.523 78.842 152.331 79.054 152.195 79.326C152.067 79.598 152.003 79.91 152.003 80.262C152.003 80.614 152.067 80.926 152.195 81.198C152.331 81.47 152.523 81.682 152.771 81.834C153.019 81.986 153.311 82.062 153.647 82.062ZM160.753 83.406C160.177 83.406 159.681 83.278 159.265 83.022C158.857 82.758 158.537 82.394 158.305 81.93C158.081 81.466 157.969 80.926 157.969 80.31C157.969 79.694 158.081 79.15 158.305 78.678C158.537 78.198 158.869 77.822 159.301 77.55C159.733 77.278 160.245 77.142 160.837 77.142C161.253 77.142 161.633 77.226 161.977 77.394C162.321 77.554 162.585 77.782 162.769 78.078V74.322H164.221V83.25H162.877L162.781 82.326C162.605 82.662 162.333 82.926 161.965 83.118C161.605 83.31 161.201 83.406 160.753 83.406ZM161.077 82.062C161.421 82.062 161.717 81.99 161.965 81.846C162.213 81.694 162.405 81.482 162.541 81.21C162.685 80.93 162.757 80.614 162.757 80.262C162.757 79.902 162.685 79.59 162.541 79.326C162.405 79.054 162.213 78.842 161.965 78.69C161.717 78.53 161.421 78.45 161.077 78.45C160.741 78.45 160.449 78.53 160.201 78.69C159.953 78.842 159.761 79.054 159.625 79.326C159.497 79.598 159.433 79.91 159.433 80.262C159.433 80.614 159.497 80.926 159.625 81.198C159.761 81.47 159.953 81.682 160.201 81.834C160.449 81.986 160.741 82.062 161.077 82.062ZM170.733 74.478V83.25H169.197V74.478H170.733ZM172.665 80.226H170.361V78.858H172.341C172.869 78.858 173.269 78.726 173.541 78.462C173.821 78.19 173.961 77.814 173.961 77.334C173.961 76.854 173.821 76.486 173.541 76.23C173.269 75.974 172.877 75.846 172.365 75.846H170.217V74.478H172.665C173.257 74.478 173.769 74.598 174.201 74.838C174.633 75.078 174.969 75.414 175.209 75.846C175.449 76.27 175.569 76.77 175.569 77.346C175.569 77.906 175.449 78.406 175.209 78.846C174.969 79.278 174.633 79.618 174.201 79.866C173.769 80.106 173.257 80.226 172.665 80.226ZM178.109 83.25H176.645V74.322H178.121V78.09C178.305 77.802 178.561 77.574 178.889 77.406C179.225 77.23 179.609 77.142 180.041 77.142C180.769 77.142 181.321 77.362 181.697 77.802C182.081 78.242 182.273 78.842 182.273 79.602V83.25H180.809V79.95C180.809 79.614 180.757 79.338 180.653 79.122C180.549 78.906 180.405 78.746 180.221 78.642C180.037 78.53 179.821 78.474 179.573 78.474C179.269 78.474 179.005 78.542 178.781 78.678C178.565 78.806 178.397 78.986 178.277 79.218C178.165 79.45 178.109 79.714 178.109 80.01V83.25ZM183.363 80.274C183.363 79.658 183.499 79.118 183.771 78.654C184.043 78.182 184.419 77.814 184.899 77.55C185.379 77.286 185.923 77.154 186.531 77.154C187.147 77.154 187.691 77.286 188.163 77.55C188.643 77.814 189.019 78.182 189.291 78.654C189.563 79.118 189.699 79.658 189.699 80.274C189.699 80.89 189.563 81.434 189.291 81.906C189.019 82.37 188.643 82.734 188.163 82.998C187.691 83.262 187.147 83.394 186.531 83.394C185.923 83.394 185.379 83.262 184.899 82.998C184.419 82.734 184.043 82.37 183.771 81.906C183.499 81.434 183.363 80.89 183.363 80.274ZM184.827 80.274C184.827 80.634 184.899 80.95 185.043 81.222C185.195 81.494 185.395 81.706 185.643 81.858C185.899 82.01 186.195 82.086 186.531 82.086C186.867 82.086 187.163 82.01 187.419 81.858C187.675 81.706 187.875 81.494 188.019 81.222C188.163 80.95 188.235 80.634 188.235 80.274C188.235 79.906 188.163 79.59 188.019 79.326C187.875 79.054 187.675 78.842 187.419 78.69C187.163 78.538 186.867 78.462 186.531 78.462C186.195 78.462 185.899 78.538 185.643 78.69C185.395 78.842 185.195 79.054 185.043 79.326C184.899 79.59 184.827 79.906 184.827 80.274ZM190.213 77.322H193.957V78.546H190.213V77.322ZM192.817 83.25H191.353V75.474H192.817V83.25ZM194.472 80.274C194.472 79.658 194.608 79.118 194.88 78.654C195.152 78.182 195.528 77.814 196.008 77.55C196.488 77.286 197.032 77.154 197.64 77.154C198.256 77.154 198.8 77.286 199.272 77.55C199.752 77.814 200.128 78.182 200.4 78.654C200.672 79.118 200.808 79.658 200.808 80.274C200.808 80.89 200.672 81.434 200.4 81.906C200.128 82.37 199.752 82.734 199.272 82.998C198.8 83.262 198.256 83.394 197.64 83.394C197.032 83.394 196.488 83.262 196.008 82.998C195.528 82.734 195.152 82.37 194.88 81.906C194.608 81.434 194.472 80.89 194.472 80.274ZM195.936 80.274C195.936 80.634 196.008 80.95 196.152 81.222C196.304 81.494 196.504 81.706 196.752 81.858C197.008 82.01 197.304 82.086 197.64 82.086C197.976 82.086 198.272 82.01 198.528 81.858C198.784 81.706 198.984 81.494 199.128 81.222C199.272 80.95 199.344 80.634 199.344 80.274C199.344 79.906 199.272 79.59 199.128 79.326C198.984 79.054 198.784 78.842 198.528 78.69C198.272 78.538 197.976 78.462 197.64 78.462C197.304 78.462 197.008 78.538 196.752 78.69C196.504 78.842 196.304 79.054 196.152 79.326C196.008 79.59 195.936 79.906 195.936 80.274ZM201.513 81.45H202.905C202.913 81.706 203.009 81.91 203.193 82.062C203.377 82.214 203.633 82.29 203.961 82.29C204.313 82.29 204.577 82.226 204.753 82.098C204.937 81.97 205.029 81.798 205.029 81.582C205.029 81.438 204.981 81.31 204.885 81.198C204.789 81.086 204.609 81.002 204.345 80.946L203.277 80.694C202.741 80.574 202.341 80.382 202.077 80.118C201.821 79.846 201.693 79.474 201.693 79.002C201.693 78.618 201.793 78.286 201.993 78.006C202.201 77.726 202.481 77.514 202.833 77.37C203.185 77.218 203.589 77.142 204.045 77.142C204.485 77.142 204.873 77.222 205.209 77.382C205.545 77.542 205.805 77.766 205.989 78.054C206.181 78.342 206.281 78.678 206.289 79.062H204.897C204.897 78.806 204.817 78.606 204.657 78.462C204.497 78.31 204.273 78.234 203.985 78.234C203.697 78.234 203.473 78.298 203.313 78.426C203.153 78.554 203.073 78.726 203.073 78.942C203.073 79.27 203.329 79.494 203.841 79.614L204.909 79.866C205.405 79.978 205.777 80.158 206.025 80.406C206.281 80.654 206.409 81.006 206.409 81.462C206.409 81.862 206.305 82.21 206.097 82.506C205.889 82.794 205.597 83.018 205.221 83.178C204.845 83.33 204.413 83.406 203.925 83.406C203.189 83.406 202.601 83.226 202.161 82.866C201.729 82.506 201.513 82.034 201.513 81.45Z" fill="#191D23"/>
<rect x="165.25" y="97.25" width="18.5" height="18.5" rx="2.3125" fill="#4B4EFC"/>
<path d="M174.981 103.127C174.981 102.861 174.766 102.646 174.5 102.646C174.234 102.646 174.018 102.861 174.018 103.127V106.018H171.127C170.861 106.018 170.646 106.234 170.646 106.5C170.646 106.766 170.861 106.981 171.127 106.981H174.018V109.872C174.018 110.138 174.234 110.354 174.5 110.354C174.766 110.354 174.981 110.138 174.981 109.872V106.981H177.872C178.138 106.981 178.354 106.766 178.354 106.5C178.354 106.234 178.138 106.018 177.872 106.018H174.981V103.127Z" fill="white"/>
<rect x="3.5" y="2.5" width="342" height="148" rx="3.5" stroke="#D0D5DD" stroke-dasharray="4 4" shape-rendering="crispEdges"/>
</g>
<defs>
<filter id="filter0_d_101_37061" x="0" y="0" width="349" height="155" filterUnits="userSpaceOnUse" color-interpolation-filters="sRGB">
<feFlood flood-opacity="0" result="BackgroundImageFix"/>
<feColorMatrix in="SourceAlpha" type="matrix" values="0 0 0 0 0 0 0 0 0 0 0 0 0 0 0 0 0 0 127 0" result="hardAlpha"/>
<feOffset dy="1"/>
<feGaussianBlur stdDeviation="1.5"/>
<feComposite in2="hardAlpha" operator="out"/>
<feColorMatrix type="matrix" values="0 0 0 0 0 0 0 0 0 0 0 0 0 0 0 0 0 0 0.25 0"/>
<feBlend mode="normal" in2="BackgroundImageFix" result="effect1_dropShadow_101_37061"/>
<feBlend mode="normal" in="SourceGraphic" in2="effect1_dropShadow_101_37061" result="shape"/>
</filter>
</defs>
</svg>
