<svg width="134" height="34" viewBox="0 0 134 34" fill="none" xmlns="http://www.w3.org/2000/svg">
<rect width="134" height="34" rx="4" fill="#4B4EFC"/>
<path d="M39.7988 12.497V22H38.1348V12.497H39.7988ZM41.9048 17.957H39.2918V16.553H41.8138C42.2731 16.553 42.6241 16.4403 42.8668 16.215C43.1095 15.981 43.2308 15.6517 43.2308 15.227C43.2308 14.8197 43.1051 14.5077 42.8538 14.291C42.6025 14.0743 42.2385 13.966 41.7618 13.966H39.2398V12.497H41.9048C42.8495 12.497 43.5905 12.7267 44.1278 13.186C44.6651 13.6453 44.9338 14.2737 44.9338 15.071C44.9338 15.643 44.7951 16.124 44.5178 16.514C44.2405 16.8953 43.8288 17.1727 43.2828 17.346V17.164C43.8721 17.3027 44.3185 17.5627 44.6218 17.944C44.9251 18.3253 45.0768 18.8193 45.0768 19.426C45.0768 19.9633 44.9555 20.427 44.7128 20.817C44.4701 21.1983 44.1148 21.493 43.6468 21.701C43.1875 21.9003 42.6328 22 41.9828 22H39.2398V20.531H41.9048C42.3815 20.531 42.7455 20.4183 42.9968 20.193C43.2481 19.9677 43.3738 19.6427 43.3738 19.218C43.3738 18.8193 43.2438 18.5117 42.9838 18.295C42.7325 18.0697 42.3728 17.957 41.9048 17.957ZM45.9812 18.776C45.9812 18.1087 46.1285 17.5237 46.4232 17.021C46.7179 16.5097 47.1252 16.111 47.6452 15.825C48.1652 15.539 48.7545 15.396 49.4132 15.396C50.0805 15.396 50.6699 15.539 51.1812 15.825C51.7012 16.111 52.1085 16.5097 52.4032 17.021C52.6979 17.5237 52.8452 18.1087 52.8452 18.776C52.8452 19.4433 52.6979 20.0327 52.4032 20.544C52.1085 21.0467 51.7012 21.441 51.1812 21.727C50.6699 22.013 50.0805 22.156 49.4132 22.156C48.7545 22.156 48.1652 22.013 47.6452 21.727C47.1252 21.441 46.7179 21.0467 46.4232 20.544C46.1285 20.0327 45.9812 19.4433 45.9812 18.776ZM47.5672 18.776C47.5672 19.166 47.6452 19.5083 47.8012 19.803C47.9659 20.0977 48.1825 20.3273 48.4512 20.492C48.7285 20.6567 49.0492 20.739 49.4132 20.739C49.7772 20.739 50.0979 20.6567 50.3752 20.492C50.6525 20.3273 50.8692 20.0977 51.0252 19.803C51.1812 19.5083 51.2592 19.166 51.2592 18.776C51.2592 18.3773 51.1812 18.035 51.0252 17.749C50.8692 17.4543 50.6525 17.2247 50.3752 17.06C50.0979 16.8953 49.7772 16.813 49.4132 16.813C49.0492 16.813 48.7285 16.8953 48.4512 17.06C48.1825 17.2247 47.9659 17.4543 47.8012 17.749C47.6452 18.035 47.5672 18.3773 47.5672 18.776ZM53.7149 18.776C53.7149 18.1087 53.8623 17.5237 54.1569 17.021C54.4516 16.5097 54.8589 16.111 55.3789 15.825C55.8989 15.539 56.4883 15.396 57.1469 15.396C57.8143 15.396 58.4036 15.539 58.9149 15.825C59.4349 16.111 59.8423 16.5097 60.1369 17.021C60.4316 17.5237 60.5789 18.1087 60.5789 18.776C60.5789 19.4433 60.4316 20.0327 60.1369 20.544C59.8423 21.0467 59.4349 21.441 58.9149 21.727C58.4036 22.013 57.8143 22.156 57.1469 22.156C56.4883 22.156 55.8989 22.013 55.3789 21.727C54.8589 21.441 54.4516 21.0467 54.1569 20.544C53.8623 20.0327 53.7149 19.4433 53.7149 18.776ZM55.3009 18.776C55.3009 19.166 55.3789 19.5083 55.5349 19.803C55.6996 20.0977 55.9163 20.3273 56.1849 20.492C56.4623 20.6567 56.7829 20.739 57.1469 20.739C57.5109 20.739 57.8316 20.6567 58.1089 20.492C58.3863 20.3273 58.6029 20.0977 58.7589 19.803C58.9149 19.5083 58.9929 19.166 58.9929 18.776C58.9929 18.3773 58.9149 18.035 58.7589 17.749C58.6029 17.4543 58.3863 17.2247 58.1089 17.06C57.8316 16.8953 57.5109 16.813 57.1469 16.813C56.7829 16.813 56.4623 16.8953 56.1849 17.06C55.9163 17.2247 55.6996 17.4543 55.5349 17.749C55.3789 18.035 55.3009 18.3773 55.3009 18.776ZM63.4247 22H61.8517V12.328H63.4247V18.269L65.9207 15.578H67.9097L65.4657 18.126L67.8577 22H66.0377L64.3607 19.296L63.4247 20.271V22ZM73.8899 22H72.3039V15.578H73.7729L73.9029 16.41C74.1022 16.0893 74.3839 15.838 74.7479 15.656C75.1206 15.474 75.5236 15.383 75.9569 15.383C76.7629 15.383 77.3696 15.6213 77.7769 16.098C78.1929 16.5747 78.4009 17.2247 78.4009 18.048V22H76.8149V18.425C76.8149 17.8877 76.6936 17.489 76.4509 17.229C76.2082 16.9603 75.8789 16.826 75.4629 16.826C74.9689 16.826 74.5832 16.982 74.3059 17.294C74.0286 17.606 73.8899 18.022 73.8899 18.542V22ZM79.5718 18.776C79.5718 18.1087 79.7191 17.5237 80.0138 17.021C80.3084 16.5097 80.7158 16.111 81.2358 15.825C81.7558 15.539 82.3451 15.396 83.0038 15.396C83.6711 15.396 84.2604 15.539 84.7718 15.825C85.2918 16.111 85.6991 16.5097 85.9938 17.021C86.2884 17.5237 86.4358 18.1087 86.4358 18.776C86.4358 19.4433 86.2884 20.0327 85.9938 20.544C85.6991 21.0467 85.2918 21.441 84.7718 21.727C84.2604 22.013 83.6711 22.156 83.0038 22.156C82.3451 22.156 81.7558 22.013 81.2358 21.727C80.7158 21.441 80.3084 21.0467 80.0138 20.544C79.7191 20.0327 79.5718 19.4433 79.5718 18.776ZM81.1578 18.776C81.1578 19.166 81.2358 19.5083 81.3918 19.803C81.5564 20.0977 81.7731 20.3273 82.0418 20.492C82.3191 20.6567 82.6398 20.739 83.0038 20.739C83.3678 20.739 83.6884 20.6567 83.9658 20.492C84.2431 20.3273 84.4598 20.0977 84.6158 19.803C84.7718 19.5083 84.8498 19.166 84.8498 18.776C84.8498 18.3773 84.7718 18.035 84.6158 17.749C84.4598 17.4543 84.2431 17.2247 83.9658 17.06C83.6884 16.8953 83.3678 16.813 83.0038 16.813C82.6398 16.813 82.3191 16.8953 82.0418 17.06C81.7731 17.2247 81.5564 17.4543 81.3918 17.749C81.2358 18.035 81.1578 18.3773 81.1578 18.776ZM88.7948 22L86.7148 15.578H88.3658L89.2108 18.334C89.2801 18.5853 89.3495 18.8497 89.4188 19.127C89.4881 19.4043 89.5488 19.6947 89.6008 19.998C89.6441 19.79 89.6831 19.5993 89.7178 19.426C89.7611 19.2527 89.8088 19.0837 89.8608 18.919C89.9128 18.7457 89.9735 18.5507 90.0428 18.334L90.9268 15.578H92.5388L93.3968 18.334C93.4141 18.3947 93.4401 18.4987 93.4748 18.646C93.5181 18.7847 93.5615 18.9363 93.6048 19.101C93.6481 19.2657 93.6871 19.4303 93.7218 19.595C93.7651 19.751 93.7955 19.8853 93.8128 19.998C93.8475 19.8333 93.8908 19.647 93.9428 19.439C93.9948 19.231 94.0468 19.0317 94.0988 18.841C94.1595 18.6417 94.2071 18.4727 94.2418 18.334L95.0998 15.578H96.7768L94.5538 22H93.0718L92.1878 19.218C92.0578 18.7933 91.9538 18.4337 91.8758 18.139C91.7978 17.8357 91.7458 17.6017 91.7198 17.437C91.6938 17.593 91.6461 17.801 91.5768 18.061C91.5075 18.321 91.3905 18.7153 91.2258 19.244L90.3418 22H88.7948Z" fill="white"/>
</svg>
