<svg width="24" height="24" viewBox="0 0 24 24" fill="none" xmlns="http://www.w3.org/2000/svg">
<path d="M23.786 19.4923L16.713 1.83626C16.089 0.30726 14.337 -0.43274 12.802 0.19126L11.877 0.56926C11.628 0.67126 11.405 0.81326 11.197 0.97126C10.649 0.37726 9.871 -0.000740297 9.001 -0.000740297H3C1.346 0.000259703 0 1.34626 0 3.00026V21.0003C0 22.6543 1.346 24.0003 3 24.0003H9C10.654 24.0003 12 22.6543 12 21.0003V8.89526L17.304 22.1373C17.929 23.6803 19.721 24.3973 21.213 23.7783L22.139 23.4003C23.644 22.8263 24.425 20.9663 23.786 19.4933V19.4923ZM13.574 7.44626L16.352 6.31426L20.523 16.7263L17.745 17.8583L13.574 7.44626ZM12.632 2.42126L13.557 2.04326C14.053 1.83726 14.654 2.07426 14.859 2.58626L15.609 4.45726L12.832 5.58926L12.085 3.72326C11.877 3.21326 12.123 2.62826 12.634 2.42026L12.632 2.42126ZM2 7.00026H5V17.0003H2V7.00026ZM7 7.00026H10V17.0003H7V7.00026ZM10 3.00026V5.00026H7V2.00026H9C9.551 2.00026 10 2.44826 10 3.00026ZM3 2.00026H5V5.00026H2V3.00026C2 2.44826 2.449 2.00026 3 2.00026ZM2 21.0003V19.0003H5V22.0003H3C2.449 22.0003 2 21.5523 2 21.0003ZM9 22.0003H7V19.0003H10V21.0003C10 21.5523 9.551 22.0003 9 22.0003ZM21.929 21.0093C21.825 21.2563 21.632 21.4473 21.385 21.5483L20.459 21.9263C19.948 22.1323 19.364 21.8893 19.159 21.3863L18.49 19.7153L21.268 18.5833L21.933 20.2443C22.035 20.4913 22.034 20.7643 21.93 21.0103L21.929 21.0093Z" fill="black"/>
</svg>
