<svg width="23" height="21" viewBox="0 0 23 21" fill="none" xmlns="http://www.w3.org/2000/svg">
<path d="M11.5 4.55337V18.8025M4.5 6.75464C5.76578 6.95067 7.17778 7.27657 8.5 7.78788M4.5 10.7546C5.13949 10.8537 5.8163 10.9859 6.5 11.1584M3.49433 1.51127C5.71271 1.76195 8.69313 2.43632 10.8168 3.92445C11.225 4.21045 11.775 4.21045 12.1832 3.92445C14.3069 2.43632 17.2873 1.76195 19.5057 1.51127C20.6036 1.38721 21.5 2.30402 21.5 3.43518V14.7C21.5 15.8311 20.6036 16.7483 19.5057 16.8723C17.2873 17.123 14.3069 17.7974 12.1832 19.2855C11.775 19.5715 11.225 19.5715 10.8168 19.2855C8.69313 17.7974 5.71271 17.123 3.49433 16.8723C2.39642 16.7483 1.5 15.8311 1.5 14.7V3.43518C1.5 2.30402 2.39642 1.38721 3.49433 1.51127Z" stroke="#4B4EFC" stroke-width="1.5" stroke-linecap="round"/>
</svg>
