<svg width="58" height="14" viewBox="0 0 58 14" fill="none" xmlns="http://www.w3.org/2000/svg">
<rect width="58" height="14" rx="7" fill="#4B4EFC" fill-opacity="0.1"/>
<path d="M10.4 3.8H9.2C9.09391 3.8 8.99217 3.84214 8.91716 3.91716C8.84214 3.99217 8.8 4.09391 8.8 4.2V5C8.8 5.10609 8.84214 5.20783 8.91716 5.28284C8.99217 5.35786 9.09391 5.4 9.2 5.4H10C10.1061 5.4 10.2078 5.35786 10.2828 5.28284C10.3579 5.20783 10.4 5.10609 10.4 5V3.8ZM9.204 6.2V10.186H10V8.2C10 7.98783 10.0843 7.78434 10.2343 7.63432C10.3843 7.48429 10.5878 7.4 10.8 7.4H11.6C11.8122 7.4 12.0157 7.48429 12.1657 7.63432C12.3157 7.78434 12.4 7.98783 12.4 8.2V10.186H14.8052V6.2H14C13.6928 6.2 13.412 6.0844 13.2 5.8944C12.9802 6.09155 12.6953 6.20041 12.4 6.2H11.6C11.2928 6.2 11.012 6.0844 10.8 5.8944C10.5802 6.09155 10.2953 6.20041 10 6.2H9.204ZM8.404 5.8984C8.27679 5.78588 8.17498 5.64757 8.10532 5.49268C8.03567 5.33778 7.99976 5.16984 8 5V4.2C8 3.88174 8.12643 3.57652 8.35147 3.35147C8.57652 3.12643 8.88174 3 9.2 3H14.8C15.1183 3 15.4235 3.12643 15.6485 3.35147C15.8736 3.57652 16 3.88174 16 4.2V5C16 5.3528 15.848 5.6704 15.6052 5.89V10.186C15.6052 10.3982 15.5209 10.6017 15.3709 10.7517C15.2209 10.9017 15.0174 10.986 14.8052 10.986H11.7492C11.7 10.9953 11.6501 11 11.6 11H10.8C10.7499 11 10.7 10.9953 10.6508 10.986H9.2044C8.99223 10.986 8.78874 10.9017 8.63872 10.7517C8.48869 10.6017 8.4044 10.3982 8.4044 10.186V5.898L8.404 5.8984ZM11.6 10.1864V8.2H10.8V10.186H11.6V10.1864ZM12.8 3.8H11.2V5C11.2 5.10609 11.2421 5.20783 11.3172 5.28284C11.3922 5.35786 11.4939 5.4 11.6 5.4H12.4C12.5061 5.4 12.6078 5.35786 12.6828 5.28284C12.7579 5.20783 12.8 5.10609 12.8 5V3.8ZM13.6 3.8V5C13.6 5.10609 13.6421 5.20783 13.7172 5.28284C13.7922 5.35786 13.8939 5.4 14 5.4H14.8C14.9061 5.4 15.0078 5.35786 15.0828 5.28284C15.1579 5.20783 15.2 5.10609 15.2 5V4.2C15.2 4.09391 15.1579 3.99217 15.0828 3.91716C15.0078 3.84214 14.9061 3.8 14.8 3.8H13.6ZM13.6 7.4H14C14.1061 7.4 14.2078 7.44214 14.2828 7.51716C14.3579 7.59217 14.4 7.69391 14.4 7.8V9C14.4 9.10609 14.3579 9.20783 14.2828 9.28284C14.2078 9.35786 14.1061 9.4 14 9.4H13.6C13.4939 9.4 13.3922 9.35786 13.3172 9.28284C13.2421 9.20783 13.2 9.10609 13.2 9V7.8C13.2 7.69391 13.2421 7.59217 13.3172 7.51716C13.3922 7.44214 13.4939 7.4 13.6 7.4Z" fill="#3E3E3E"/>
<path d="M21.2343 4.216V10H20.4503V4.216H21.2343ZM22.7223 7.448H21.0183V6.768H22.6583C22.9837 6.768 23.2343 6.68533 23.4103 6.52C23.5863 6.35467 23.6743 6.12 23.6743 5.816C23.6743 5.528 23.581 5.30667 23.3943 5.152C23.213 4.992 22.9517 4.912 22.6103 4.912H20.8823V4.216H22.6583C23.2237 4.216 23.6663 4.352 23.9863 4.624C24.3117 4.896 24.4743 5.26933 24.4743 5.744C24.4743 6.10133 24.3863 6.4 24.2103 6.64C24.0397 6.87467 23.7863 7.04533 23.4503 7.152V7.048C23.8237 7.13867 24.1037 7.304 24.2903 7.544C24.4823 7.77867 24.5783 8.08267 24.5783 8.456C24.5783 8.776 24.5037 9.05333 24.3543 9.288C24.2103 9.51733 23.9997 9.69333 23.7223 9.816C23.445 9.93867 23.117 10 22.7383 10H20.8823V9.304H22.7223C23.0583 9.304 23.317 9.22133 23.4983 9.056C23.6797 8.89067 23.7703 8.65867 23.7703 8.36C23.7703 8.072 23.677 7.848 23.4903 7.688C23.309 7.528 23.053 7.448 22.7223 7.448ZM28.1357 6.088H28.8797V10H28.2077L28.1277 9.408C28.0157 9.61067 27.8397 9.776 27.5997 9.904C27.3597 10.032 27.0957 10.096 26.8077 10.096C26.3544 10.096 26.0024 9.95467 25.7517 9.672C25.5064 9.384 25.3837 9 25.3837 8.52V6.088H26.1357V8.272C26.1357 8.688 26.2184 8.98667 26.3837 9.168C26.5544 9.344 26.7837 9.432 27.0717 9.432C27.4184 9.432 27.6824 9.32533 27.8637 9.112C28.045 8.89333 28.1357 8.57333 28.1357 8.152V6.088ZM29.5726 8.864H30.2926C30.2926 9.06133 30.3646 9.21867 30.5086 9.336C30.6526 9.448 30.8473 9.504 31.0926 9.504C31.3593 9.504 31.5646 9.45333 31.7086 9.352C31.8526 9.24533 31.9246 9.104 31.9246 8.928C31.9246 8.8 31.8846 8.69333 31.8046 8.608C31.73 8.52267 31.5913 8.45333 31.3886 8.4L30.7006 8.24C30.354 8.15467 30.0953 8.024 29.9246 7.848C29.7593 7.672 29.6766 7.44 29.6766 7.152C29.6766 6.912 29.738 6.704 29.8606 6.528C29.9886 6.352 30.162 6.216 30.3806 6.12C30.6046 6.024 30.8606 5.976 31.1486 5.976C31.4366 5.976 31.6846 6.02667 31.8926 6.128C32.106 6.22933 32.2713 6.37067 32.3886 6.552C32.5113 6.73333 32.5753 6.94933 32.5806 7.2H31.8606C31.8553 6.99733 31.7886 6.84 31.6606 6.728C31.5326 6.616 31.354 6.56 31.1246 6.56C30.89 6.56 30.7086 6.61067 30.5806 6.712C30.4526 6.81333 30.3886 6.952 30.3886 7.128C30.3886 7.38933 30.5806 7.568 30.9646 7.664L31.6526 7.832C31.9833 7.90667 32.2313 8.02933 32.3966 8.2C32.562 8.36533 32.6446 8.592 32.6446 8.88C32.6446 9.12533 32.578 9.34133 32.4446 9.528C32.3113 9.70933 32.1273 9.85067 31.8926 9.952C31.6633 10.048 31.3913 10.096 31.0766 10.096C30.618 10.096 30.2526 9.984 29.9806 9.76C29.7086 9.536 29.5726 9.23733 29.5726 8.864ZM33.4786 10V6.088H34.2306V10H33.4786ZM33.8466 5.16C33.7132 5.16 33.5959 5.112 33.4946 5.016C33.3986 4.91467 33.3506 4.79733 33.3506 4.664C33.3506 4.52533 33.3986 4.408 33.4946 4.312C33.5959 4.216 33.7132 4.168 33.8466 4.168C33.9852 4.168 34.1026 4.216 34.1986 4.312C34.2946 4.408 34.3426 4.52533 34.3426 4.664C34.3426 4.79733 34.2946 4.91467 34.1986 5.016C34.1026 5.112 33.9852 5.16 33.8466 5.16ZM36.0743 10H35.3223V6.088H36.0023L36.0823 6.688C36.205 6.464 36.381 6.29067 36.6103 6.168C36.845 6.04 37.101 5.976 37.3783 5.976C37.8903 5.976 38.269 6.12267 38.5143 6.416C38.7597 6.70933 38.8823 7.10667 38.8823 7.608V10H38.1303V7.776C38.1303 7.38133 38.045 7.09867 37.8743 6.928C37.7037 6.752 37.4743 6.664 37.1863 6.664C36.8343 6.664 36.5597 6.77867 36.3623 7.008C36.1703 7.23733 36.0743 7.544 36.0743 7.928V10ZM41.6119 10.096C41.2332 10.096 40.8972 10.0107 40.6039 9.84C40.3105 9.664 40.0812 9.424 39.9159 9.12C39.7505 8.81067 39.6679 8.45333 39.6679 8.048C39.6679 7.63733 39.7479 7.27733 39.9079 6.968C40.0732 6.65867 40.2972 6.416 40.5799 6.24C40.8679 6.064 41.2012 5.976 41.5799 5.976C41.9532 5.976 42.2759 6.056 42.5479 6.216C42.8252 6.376 43.0385 6.6 43.1879 6.888C43.3425 7.176 43.4199 7.51467 43.4199 7.904V8.184L40.0679 8.192L40.0839 7.688H42.6679C42.6679 7.36267 42.5692 7.10133 42.3719 6.904C42.1745 6.70667 41.9105 6.608 41.5799 6.608C41.3292 6.608 41.1132 6.664 40.9319 6.776C40.7559 6.88267 40.6199 7.04267 40.5239 7.256C40.4332 7.464 40.3879 7.71467 40.3879 8.008C40.3879 8.47733 40.4945 8.84 40.7079 9.096C40.9212 9.34667 41.2279 9.472 41.6279 9.472C41.9212 9.472 42.1612 9.41333 42.3479 9.296C42.5345 9.17867 42.6599 9.008 42.7239 8.784H43.4279C43.3319 9.2 43.1265 9.52267 42.8119 9.752C42.4972 9.98133 42.0972 10.096 41.6119 10.096ZM43.9398 8.864H44.6598C44.6598 9.06133 44.7318 9.21867 44.8758 9.336C45.0198 9.448 45.2145 9.504 45.4598 9.504C45.7265 9.504 45.9318 9.45333 46.0758 9.352C46.2198 9.24533 46.2918 9.104 46.2918 8.928C46.2918 8.8 46.2518 8.69333 46.1718 8.608C46.0972 8.52267 45.9585 8.45333 45.7558 8.4L45.0678 8.24C44.7212 8.15467 44.4625 8.024 44.2918 7.848C44.1265 7.672 44.0438 7.44 44.0438 7.152C44.0438 6.912 44.1052 6.704 44.2278 6.528C44.3558 6.352 44.5292 6.216 44.7478 6.12C44.9718 6.024 45.2278 5.976 45.5158 5.976C45.8038 5.976 46.0518 6.02667 46.2598 6.128C46.4732 6.22933 46.6385 6.37067 46.7558 6.552C46.8785 6.73333 46.9425 6.94933 46.9478 7.2H46.2278C46.2225 6.99733 46.1558 6.84 46.0278 6.728C45.8998 6.616 45.7212 6.56 45.4918 6.56C45.2572 6.56 45.0758 6.61067 44.9478 6.712C44.8198 6.81333 44.7558 6.952 44.7558 7.128C44.7558 7.38933 44.9478 7.568 45.3318 7.664L46.0198 7.832C46.3505 7.90667 46.5985 8.02933 46.7638 8.2C46.9292 8.36533 47.0118 8.592 47.0118 8.88C47.0118 9.12533 46.9452 9.34133 46.8118 9.528C46.6785 9.70933 46.4945 9.85067 46.2598 9.952C46.0305 10.048 45.7585 10.096 45.4438 10.096C44.9852 10.096 44.6198 9.984 44.3478 9.76C44.0758 9.536 43.9398 9.23733 43.9398 8.864ZM47.5258 8.864H48.2458C48.2458 9.06133 48.3178 9.21867 48.4618 9.336C48.6058 9.448 48.8004 9.504 49.0458 9.504C49.3124 9.504 49.5178 9.45333 49.6618 9.352C49.8058 9.24533 49.8778 9.104 49.8778 8.928C49.8778 8.8 49.8378 8.69333 49.7578 8.608C49.6831 8.52267 49.5444 8.45333 49.3418 8.4L48.6538 8.24C48.3071 8.15467 48.0484 8.024 47.8778 7.848C47.7124 7.672 47.6298 7.44 47.6298 7.152C47.6298 6.912 47.6911 6.704 47.8138 6.528C47.9418 6.352 48.1151 6.216 48.3338 6.12C48.5578 6.024 48.8138 5.976 49.1018 5.976C49.3898 5.976 49.6378 6.02667 49.8458 6.128C50.0591 6.22933 50.2244 6.37067 50.3418 6.552C50.4644 6.73333 50.5284 6.94933 50.5338 7.2H49.8138C49.8084 6.99733 49.7418 6.84 49.6138 6.728C49.4858 6.616 49.3071 6.56 49.0778 6.56C48.8431 6.56 48.6618 6.61067 48.5338 6.712C48.4058 6.81333 48.3418 6.952 48.3418 7.128C48.3418 7.38933 48.5338 7.568 48.9178 7.664L49.6058 7.832C49.9364 7.90667 50.1844 8.02933 50.3498 8.2C50.5151 8.36533 50.5978 8.592 50.5978 8.88C50.5978 9.12533 50.5311 9.34133 50.3978 9.528C50.2644 9.70933 50.0804 9.85067 49.8458 9.952C49.6164 10.048 49.3444 10.096 49.0298 10.096C48.5711 10.096 48.2058 9.984 47.9338 9.76C47.6618 9.536 47.5258 9.23733 47.5258 8.864Z" fill="#3E3E3E"/>
</svg>
