<svg width="170" height="30" viewBox="0 0 170 30" fill="none" xmlns="http://www.w3.org/2000/svg">
<g clip-path="url(#clip0_101_33023)">
<rect width="170" height="30" rx="4" fill="#4B4EFC"/>
<path d="M72.3679 17.322V16.763H73.9669V17.322C73.9669 17.686 74.0752 17.9937 74.2919 18.245C74.5086 18.4963 74.8466 18.622 75.3059 18.622C75.7739 18.622 76.1119 18.5007 76.3199 18.258C76.5279 18.0067 76.6319 17.6773 76.6319 17.27V10.497H78.2959V17.361C78.2959 17.907 78.1702 18.3923 77.9189 18.817C77.6762 19.2417 77.3339 19.5753 76.8919 19.818C76.4499 20.052 75.9256 20.169 75.3189 20.169C74.6776 20.169 74.1359 20.0477 73.6939 19.805C73.2519 19.5537 72.9182 19.2157 72.6929 18.791C72.4762 18.3577 72.3679 17.868 72.3679 17.322ZM79.7101 16.776C79.7101 16.1087 79.8574 15.5237 80.1521 15.021C80.4467 14.5097 80.8541 14.111 81.3741 13.825C81.8941 13.539 82.4834 13.396 83.1421 13.396C83.8094 13.396 84.3987 13.539 84.9101 13.825C85.4301 14.111 85.8374 14.5097 86.1321 15.021C86.4267 15.5237 86.5741 16.1087 86.5741 16.776C86.5741 17.4433 86.4267 18.0327 86.1321 18.544C85.8374 19.0467 85.4301 19.441 84.9101 19.727C84.3987 20.013 83.8094 20.156 83.1421 20.156C82.4834 20.156 81.8941 20.013 81.3741 19.727C80.8541 19.441 80.4467 19.0467 80.1521 18.544C79.8574 18.0327 79.7101 17.4433 79.7101 16.776ZM81.2961 16.776C81.2961 17.166 81.3741 17.5083 81.5301 17.803C81.6947 18.0977 81.9114 18.3273 82.1801 18.492C82.4574 18.6567 82.7781 18.739 83.1421 18.739C83.5061 18.739 83.8267 18.6567 84.1041 18.492C84.3814 18.3273 84.5981 18.0977 84.7541 17.803C84.9101 17.5083 84.9881 17.166 84.9881 16.776C84.9881 16.3773 84.9101 16.035 84.7541 15.749C84.5981 15.4543 84.3814 15.2247 84.1041 15.06C83.8267 14.8953 83.5061 14.813 83.1421 14.813C82.7781 14.813 82.4574 14.8953 82.1801 15.06C81.9114 15.2247 81.6947 15.4543 81.5301 15.749C81.3741 16.035 81.2961 16.3773 81.2961 16.776ZM87.8312 20V13.578H89.4172V20H87.8312ZM88.6112 12.291C88.3425 12.291 88.1129 12.2 87.9222 12.018C87.7402 11.8273 87.6492 11.5977 87.6492 11.329C87.6492 11.0603 87.7402 10.835 87.9222 10.653C88.1129 10.471 88.3425 10.38 88.6112 10.38C88.8799 10.38 89.1052 10.471 89.2872 10.653C89.4779 10.835 89.5732 11.0603 89.5732 11.329C89.5732 11.5977 89.4779 11.8273 89.2872 12.018C89.1052 12.2 88.8799 12.291 88.6112 12.291ZM92.6418 20H91.0558V13.578H92.5248L92.6548 14.41C92.8541 14.0893 93.1358 13.838 93.4998 13.656C93.8725 13.474 94.2755 13.383 94.7088 13.383C95.5148 13.383 96.1215 13.6213 96.5288 14.098C96.9448 14.5747 97.1528 15.2247 97.1528 16.048V20H95.5668V16.425C95.5668 15.8877 95.4455 15.489 95.2028 15.229C94.9601 14.9603 94.6308 14.826 94.2148 14.826C93.7208 14.826 93.3351 14.982 93.0578 15.294C92.7805 15.606 92.6418 16.022 92.6418 16.542V20Z" fill="white"/>
</g>
<defs>
<clipPath id="clip0_101_33023">
<rect width="170" height="30" rx="4" fill="white"/>
</clipPath>
</defs>
</svg>
