<svg width="21" height="19" viewBox="0 0 21 19" fill="none" xmlns="http://www.w3.org/2000/svg">
<path d="M4.20312 18.8398H17.6504C19.7695 18.8398 20.873 17.7461 20.873 15.6562V3.77148C20.873 1.68164 19.7695 0.587891 17.6504 0.587891H4.20312C2.09375 0.587891 0.990234 1.67188 0.990234 3.77148V15.6562C0.990234 17.7461 2.09375 18.8398 4.20312 18.8398ZM4.19336 16.8965C3.38281 16.8965 2.93359 16.4766 2.93359 15.6172V6.63281C2.93359 5.77344 3.38281 5.35352 4.19336 5.35352H17.6602C18.4707 5.35352 18.9199 5.77344 18.9199 6.63281V15.6172C18.9199 16.4766 18.4707 16.8965 17.6602 16.8965H4.19336ZM9.04688 8.72266H9.62305C9.97461 8.72266 10.0918 8.61523 10.0918 8.27344V7.69727C10.0918 7.3457 9.97461 7.23828 9.62305 7.23828H9.04688C8.69531 7.23828 8.57812 7.3457 8.57812 7.69727V8.27344C8.57812 8.61523 8.69531 8.72266 9.04688 8.72266ZM12.2402 8.72266H12.8164C13.1582 8.72266 13.2754 8.61523 13.2754 8.27344V7.69727C13.2754 7.3457 13.1582 7.23828 12.8164 7.23828H12.2402C11.8887 7.23828 11.7715 7.3457 11.7715 7.69727V8.27344C11.7715 8.61523 11.8887 8.72266 12.2402 8.72266ZM15.4238 8.72266H16C16.3516 8.72266 16.4688 8.61523 16.4688 8.27344V7.69727C16.4688 7.3457 16.3516 7.23828 16 7.23828H15.4238C15.082 7.23828 14.9648 7.3457 14.9648 7.69727V8.27344C14.9648 8.61523 15.082 8.72266 15.4238 8.72266ZM5.86328 11.8672H6.42969C6.78125 11.8672 6.89844 11.7598 6.89844 11.4082V10.832C6.89844 10.4902 6.78125 10.3828 6.42969 10.3828H5.86328C5.51172 10.3828 5.39453 10.4902 5.39453 10.832V11.4082C5.39453 11.7598 5.51172 11.8672 5.86328 11.8672ZM9.04688 11.8672H9.62305C9.97461 11.8672 10.0918 11.7598 10.0918 11.4082V10.832C10.0918 10.4902 9.97461 10.3828 9.62305 10.3828H9.04688C8.69531 10.3828 8.57812 10.4902 8.57812 10.832V11.4082C8.57812 11.7598 8.69531 11.8672 9.04688 11.8672ZM12.2402 11.8672H12.8164C13.1582 11.8672 13.2754 11.7598 13.2754 11.4082V10.832C13.2754 10.4902 13.1582 10.3828 12.8164 10.3828H12.2402C11.8887 10.3828 11.7715 10.4902 11.7715 10.832V11.4082C11.7715 11.7598 11.8887 11.8672 12.2402 11.8672ZM15.4238 11.8672H16C16.3516 11.8672 16.4688 11.7598 16.4688 11.4082V10.832C16.4688 10.4902 16.3516 10.3828 16 10.3828H15.4238C15.082 10.3828 14.9648 10.4902 14.9648 10.832V11.4082C14.9648 11.7598 15.082 11.8672 15.4238 11.8672ZM5.86328 15.002H6.42969C6.78125 15.002 6.89844 14.8945 6.89844 14.5527V13.9766C6.89844 13.625 6.78125 13.5176 6.42969 13.5176H5.86328C5.51172 13.5176 5.39453 13.625 5.39453 13.9766V14.5527C5.39453 14.8945 5.51172 15.002 5.86328 15.002ZM9.04688 15.002H9.62305C9.97461 15.002 10.0918 14.8945 10.0918 14.5527V13.9766C10.0918 13.625 9.97461 13.5176 9.62305 13.5176H9.04688C8.69531 13.5176 8.57812 13.625 8.57812 13.9766V14.5527C8.57812 14.8945 8.69531 15.002 9.04688 15.002ZM12.2402 15.002H12.8164C13.1582 15.002 13.2754 14.8945 13.2754 14.5527V13.9766C13.2754 13.625 13.1582 13.5176 12.8164 13.5176H12.2402C11.8887 13.5176 11.7715 13.625 11.7715 13.9766V14.5527C11.7715 14.8945 11.8887 15.002 12.2402 15.002Z" fill="#9CA2AA"/>
</svg>
