<svg width="11" height="10" viewBox="0 0 11 10" fill="none" xmlns="http://www.w3.org/2000/svg">
<path d="M9.81961 1.71961H8.42317L6.96139 0.25783C6.91133 0.207587 6.85182 0.167742 6.7863 0.140587C6.72078 0.113433 6.65054 0.0995071 6.57961 0.0996099H4.41961C4.34868 0.0995071 4.27844 0.113433 4.21292 0.140587C4.14739 0.167742 4.08789 0.207587 4.03783 0.25783L2.57605 1.71961H1.17961C0.583989 1.71961 0.0996094 2.20399 0.0996094 2.79961V8.73961C0.0996094 9.33523 0.583989 9.81961 1.17961 9.81961H9.81961C10.4152 9.81961 10.8996 9.33523 10.8996 8.73961V2.79961C10.8996 2.20399 10.4152 1.71961 9.81961 1.71961ZM5.49961 8.19961C4.03621 8.19961 2.79961 6.96301 2.79961 5.49961C2.79961 4.03621 4.03621 2.79961 5.49961 2.79961C6.96301 2.79961 8.19961 4.03621 8.19961 5.49961C8.19961 6.96301 6.96301 8.19961 5.49961 8.19961Z" fill="white"/>
</svg>
