<svg width="23" height="21" viewBox="0 0 20 21" fill="none" xmlns="http://www.w3.org/2000/svg">
<path d="M2 18.1129L5.419 16.9729C5.60936 16.9092 5.80338 16.8571 6 16.8169V2.88685L2 4.22085V18.1129ZM1.338 20.4409C1.18705 20.4951 1.02528 20.5122 0.866332 20.4907C0.707384 20.4693 0.555925 20.4099 0.424734 20.3177C0.293543 20.2254 0.186469 20.1029 0.112547 19.9606C0.0386247 19.8183 2.34524e-05 19.6602 1.89416e-08 19.4999V3.49985C-4.16014e-05 3.28595 0.0685072 3.07767 0.195579 2.9056C0.322651 2.73353 0.501549 2.60674 0.706 2.54385L5.419 0.972854C6.44525 0.630804 7.55475 0.630804 8.581 0.972854L12.051 2.12985C12.667 2.33526 13.333 2.33526 13.949 2.12985L18.662 0.558854C18.8129 0.504643 18.9747 0.487535 19.1337 0.508974C19.2926 0.530413 19.4441 0.589769 19.5753 0.682034C19.7065 0.774299 19.8135 0.896767 19.8875 1.0391C19.9614 1.18144 20 1.33947 20 1.49985V17.4999C20 17.7138 19.9315 17.922 19.8044 18.0941C19.6773 18.2662 19.4985 18.393 19.294 18.4559L14.581 20.0269C13.5548 20.3689 12.4452 20.3689 11.419 20.0269L7.949 18.8699C7.33301 18.6644 6.66699 18.6644 6.051 18.8699L1.338 20.4409ZM18 16.7799V2.88685L14.581 4.02685C14.3906 4.09047 14.1966 4.14256 14 4.18285V18.1129L18 16.7789V16.7799ZM12 18.1139V4.18285C11.8034 4.14256 11.6094 4.09047 11.419 4.02685L8 2.88685V16.8169C8.19662 16.8571 8.39064 16.9092 8.581 16.9729L12 18.1129V18.1139Z" fill="#4B4EFC"/>
</svg>
