<svg width="18" height="22" viewBox="0 0 18 22" fill="none" xmlns="http://www.w3.org/2000/svg">
<path d="M17.2645 10.6259H17.2583C16.9274 11.9071 16.4398 13.2556 15.7251 14.5982C15.4643 15.0939 15.1793 15.5765 14.8713 16.0444C14.8422 16.0929 14.8073 16.1479 14.7723 16.1968C14.0772 17.2301 13.2751 18.1872 12.3792 19.0522C11.6034 19.8028 10.7234 20.5165 9.72723 21.1875C9.30017 21.4755 8.74628 21.4929 8.3134 21.2137C7.67831 20.8042 6.6854 20.0927 5.60611 19.0526C2.84899 16.4045 -0.473657 11.635 0.124225 4.29509C0.179225 3.61892 0.757696 3.09836 1.43549 3.12392C2.62326 3.16646 3.80962 3.00673 4.94384 2.65156C6.01084 2.3193 7.16034 1.76412 8.27943 0.869886C8.48852 0.701023 8.7455 0.602325 9.01387 0.587806C9.28224 0.573287 9.54837 0.643685 9.77446 0.789004C10.2401 1.08856 10.7196 1.36581 11.2116 1.61983C12.4196 2.2423 14.023 2.88289 15.7251 3.05986C16.036 3.0935 16.3508 3.11033 16.6673 3.10871C17.336 3.1058 17.8844 3.6393 17.9203 4.30706C17.9274 4.43647 17.9332 4.57365 17.9381 4.71956C17.9788 6.11656 17.8915 8.24636 17.2645 10.6259Z" fill="#76D9F4"/>
</svg>
