<svg width="26" height="26" viewBox="0 0 26 26" fill="none" xmlns="http://www.w3.org/2000/svg">
<path fill-rule="evenodd" clip-rule="evenodd" d="M12.9997 0.5H20.4997C22.598 0.5 24.3945 1.79261 25.1362 3.625H8.36312C9.10486 1.79261 10.9013 0.5 12.9997 0.5ZM0.5 13V18H5.5C6.88071 18 8 16.8807 8 15.5C8 14.1193 6.88071 13 5.5 13H0.5ZM25.5 5.5H5.5C2.73858 5.5 0.5 7.73858 0.5 10.5V11.125H5.5C7.91625 11.125 9.875 13.0838 9.875 15.5C9.875 17.9162 7.91625 19.875 5.5 19.875H0.5V20.5C0.5 23.2614 2.73858 25.5 5.5 25.5H20.5C23.2614 25.5 25.5 23.2614 25.5 20.5V5.5Z" fill="#A3ACBA"/>
</svg>
