<svg width="119" height="155" viewBox="0 0 119 155" fill="none" xmlns="http://www.w3.org/2000/svg">
<g filter="url(#filter0_d_101_32411)">
<rect x="3" y="2" width="113" height="149" rx="4" fill="white" shape-rendering="crispEdges"/>
<path d="M66.5 50.2499C66.2348 50.2499 65.9804 50.3553 65.7929 50.5428C65.6054 50.7303 65.5 50.9847 65.5 51.2499V51.6299L64.02 50.1499C63.4974 49.6314 62.7911 49.3405 62.055 49.3405C61.3189 49.3405 60.6126 49.6314 60.09 50.1499L59.39 50.8499L56.91 48.3699C56.3801 47.8655 55.6766 47.5842 54.945 47.5842C54.2134 47.5842 53.5099 47.8655 52.98 48.3699L51.5 49.8499V44.2499C51.5 43.9847 51.6054 43.7303 51.7929 43.5428C51.9804 43.3553 52.2348 43.2499 52.5 43.2499H59.5C59.7652 43.2499 60.0196 43.1445 60.2071 42.957C60.3946 42.7695 60.5 42.5151 60.5 42.2499C60.5 41.9847 60.3946 41.7303 60.2071 41.5428C60.0196 41.3553 59.7652 41.2499 59.5 41.2499H52.5C51.7044 41.2499 50.9413 41.566 50.3787 42.1286C49.8161 42.6912 49.5 43.4542 49.5 44.2499V56.2499C49.5 57.0455 49.8161 57.8086 50.3787 58.3712C50.9413 58.9338 51.7044 59.2499 52.5 59.2499H64.5C65.2956 59.2499 66.0587 58.9338 66.6213 58.3712C67.1839 57.8086 67.5 57.0455 67.5 56.2499V51.2499C67.5 50.9847 67.3946 50.7303 67.2071 50.5428C67.0196 50.3553 66.7652 50.2499 66.5 50.2499ZM52.5 57.2499C52.2348 57.2499 51.9804 57.1445 51.7929 56.957C51.6054 56.7695 51.5 56.5151 51.5 56.2499V52.6799L54.4 49.7799C54.5469 49.6399 54.7421 49.5618 54.945 49.5618C55.1479 49.5618 55.3431 49.6399 55.49 49.7799L58.66 52.9499L62.96 57.2499H52.5ZM65.5 56.2499C65.4986 56.4413 65.4354 56.6272 65.32 56.7799L60.81 52.2499L61.51 51.5499C61.5817 51.4767 61.6673 51.4186 61.7617 51.3789C61.8561 51.3392 61.9576 51.3188 62.06 51.3188C62.1624 51.3188 62.2639 51.3392 62.3583 51.3789C62.4527 51.4186 62.5383 51.4767 62.61 51.5499L65.5 54.4599V56.2499ZM70.21 41.5399L67.21 38.5399C67.1149 38.4489 67.0028 38.3775 66.88 38.3299C66.6365 38.2299 66.3635 38.2299 66.12 38.3299C65.9972 38.3775 65.8851 38.4489 65.79 38.5399L62.79 41.5399C62.6968 41.6331 62.6228 41.7438 62.5723 41.8656C62.5219 41.9875 62.4959 42.118 62.4959 42.2499C62.4959 42.5162 62.6017 42.7716 62.79 42.9599C62.9783 43.1482 63.2337 43.254 63.5 43.254C63.7663 43.254 64.0217 43.1482 64.21 42.9599L65.5 41.6599V47.2499C65.5 47.5151 65.6054 47.7695 65.7929 47.957C65.9804 48.1445 66.2348 48.2499 66.5 48.2499C66.7652 48.2499 67.0196 48.1445 67.2071 47.957C67.3946 47.7695 67.5 47.5151 67.5 47.2499V41.6599L68.79 42.9599C68.883 43.0536 68.9936 43.128 69.1154 43.1788C69.2373 43.2296 69.368 43.2557 69.5 43.2557C69.632 43.2557 69.7627 43.2296 69.8846 43.1788C70.0064 43.128 70.117 43.0536 70.21 42.9599C70.3037 42.8669 70.3781 42.7563 70.4289 42.6345C70.4797 42.5126 70.5058 42.3819 70.5058 42.2499C70.5058 42.1179 70.4797 41.9872 70.4289 41.8653C70.3781 41.7435 70.3037 41.6329 70.21 41.5399Z" fill="black"/>
<path d="M28.9484 83.25H27.3644L30.5324 74.478H32.1044L35.2724 83.25H33.6524L32.9444 81.222H29.6684L28.9484 83.25ZM31.1204 77.094L30.1124 79.926H32.5004L31.4924 77.094C31.4604 76.974 31.4244 76.854 31.3844 76.734C31.3444 76.614 31.3204 76.51 31.3124 76.422C31.2964 76.502 31.2684 76.606 31.2284 76.734C31.1964 76.854 31.1604 76.974 31.1204 77.094ZM38.3229 83.406C37.7469 83.406 37.2509 83.278 36.8349 83.022C36.4269 82.758 36.1069 82.394 35.8749 81.93C35.6509 81.466 35.5389 80.926 35.5389 80.31C35.5389 79.694 35.6509 79.15 35.8749 78.678C36.1069 78.198 36.4389 77.822 36.8709 77.55C37.3029 77.278 37.8149 77.142 38.4069 77.142C38.8229 77.142 39.2029 77.226 39.5469 77.394C39.8909 77.554 40.1549 77.782 40.3389 78.078V74.322H41.7909V83.25H40.4469L40.3509 82.326C40.1749 82.662 39.9029 82.926 39.5349 83.118C39.1749 83.31 38.7709 83.406 38.3229 83.406ZM38.6469 82.062C38.9909 82.062 39.2869 81.99 39.5349 81.846C39.7829 81.694 39.9749 81.482 40.1109 81.21C40.2549 80.93 40.3269 80.614 40.3269 80.262C40.3269 79.902 40.2549 79.59 40.1109 79.326C39.9749 79.054 39.7829 78.842 39.5349 78.69C39.2869 78.53 38.9909 78.45 38.6469 78.45C38.3109 78.45 38.0189 78.53 37.7709 78.69C37.5229 78.842 37.3309 79.054 37.1949 79.326C37.0669 79.598 37.0029 79.91 37.0029 80.262C37.0029 80.614 37.0669 80.926 37.1949 81.198C37.3309 81.47 37.5229 81.682 37.7709 81.834C38.0189 81.986 38.3109 82.062 38.6469 82.062ZM45.7525 83.406C45.1765 83.406 44.6805 83.278 44.2645 83.022C43.8565 82.758 43.5365 82.394 43.3045 81.93C43.0805 81.466 42.9685 80.926 42.9685 80.31C42.9685 79.694 43.0805 79.15 43.3045 78.678C43.5365 78.198 43.8685 77.822 44.3005 77.55C44.7325 77.278 45.2445 77.142 45.8365 77.142C46.2525 77.142 46.6325 77.226 46.9765 77.394C47.3205 77.554 47.5845 77.782 47.7685 78.078V74.322H49.2205V83.25H47.8765L47.7805 82.326C47.6045 82.662 47.3325 82.926 46.9645 83.118C46.6045 83.31 46.2005 83.406 45.7525 83.406ZM46.0765 82.062C46.4205 82.062 46.7165 81.99 46.9645 81.846C47.2125 81.694 47.4045 81.482 47.5405 81.21C47.6845 80.93 47.7565 80.614 47.7565 80.262C47.7565 79.902 47.6845 79.59 47.5405 79.326C47.4045 79.054 47.2125 78.842 46.9645 78.69C46.7165 78.53 46.4205 78.45 46.0765 78.45C45.7405 78.45 45.4485 78.53 45.2005 78.69C44.9525 78.842 44.7605 79.054 44.6245 79.326C44.4965 79.598 44.4325 79.91 44.4325 80.262C44.4325 80.614 44.4965 80.926 44.6245 81.198C44.7605 81.47 44.9525 81.682 45.2005 81.834C45.4485 81.986 45.7405 82.062 46.0765 82.062ZM55.7326 74.478V83.25H54.1966V74.478H55.7326ZM57.6646 80.226H55.3606V78.858H57.3406C57.8686 78.858 58.2686 78.726 58.5406 78.462C58.8206 78.19 58.9606 77.814 58.9606 77.334C58.9606 76.854 58.8206 76.486 58.5406 76.23C58.2686 75.974 57.8766 75.846 57.3646 75.846H55.2166V74.478H57.6646C58.2566 74.478 58.7686 74.598 59.2006 74.838C59.6326 75.078 59.9686 75.414 60.2086 75.846C60.4486 76.27 60.5686 76.77 60.5686 77.346C60.5686 77.906 60.4486 78.406 60.2086 78.846C59.9686 79.278 59.6326 79.618 59.2006 79.866C58.7686 80.106 58.2566 80.226 57.6646 80.226ZM63.1087 83.25H61.6447V74.322H63.1207V78.09C63.3047 77.802 63.5607 77.574 63.8887 77.406C64.2247 77.23 64.6087 77.142 65.0407 77.142C65.7687 77.142 66.3207 77.362 66.6967 77.802C67.0807 78.242 67.2727 78.842 67.2727 79.602V83.25H65.8087V79.95C65.8087 79.614 65.7567 79.338 65.6527 79.122C65.5487 78.906 65.4047 78.746 65.2207 78.642C65.0367 78.53 64.8207 78.474 64.5727 78.474C64.2687 78.474 64.0047 78.542 63.7807 78.678C63.5647 78.806 63.3967 78.986 63.2767 79.218C63.1647 79.45 63.1087 79.714 63.1087 80.01V83.25ZM68.3631 80.274C68.3631 79.658 68.4991 79.118 68.7711 78.654C69.0431 78.182 69.4191 77.814 69.8991 77.55C70.3791 77.286 70.9231 77.154 71.5311 77.154C72.1471 77.154 72.6911 77.286 73.1631 77.55C73.6431 77.814 74.0191 78.182 74.2911 78.654C74.5631 79.118 74.6991 79.658 74.6991 80.274C74.6991 80.89 74.5631 81.434 74.2911 81.906C74.0191 82.37 73.6431 82.734 73.1631 82.998C72.6911 83.262 72.1471 83.394 71.5311 83.394C70.9231 83.394 70.3791 83.262 69.8991 82.998C69.4191 82.734 69.0431 82.37 68.7711 81.906C68.4991 81.434 68.3631 80.89 68.3631 80.274ZM69.8271 80.274C69.8271 80.634 69.8991 80.95 70.0431 81.222C70.1951 81.494 70.3951 81.706 70.6431 81.858C70.8991 82.01 71.1951 82.086 71.5311 82.086C71.8671 82.086 72.1631 82.01 72.4191 81.858C72.6751 81.706 72.8751 81.494 73.0191 81.222C73.1631 80.95 73.2351 80.634 73.2351 80.274C73.2351 79.906 73.1631 79.59 73.0191 79.326C72.8751 79.054 72.6751 78.842 72.4191 78.69C72.1631 78.538 71.8671 78.462 71.5311 78.462C71.1951 78.462 70.8991 78.538 70.6431 78.69C70.3951 78.842 70.1951 79.054 70.0431 79.326C69.8991 79.59 69.8271 79.906 69.8271 80.274ZM75.2129 77.322H78.9569V78.546H75.2129V77.322ZM77.8169 83.25H76.3529V75.474H77.8169V83.25ZM79.4725 80.274C79.4725 79.658 79.6085 79.118 79.8805 78.654C80.1525 78.182 80.5285 77.814 81.0085 77.55C81.4885 77.286 82.0325 77.154 82.6405 77.154C83.2565 77.154 83.8005 77.286 84.2725 77.55C84.7525 77.814 85.1285 78.182 85.4005 78.654C85.6725 79.118 85.8085 79.658 85.8085 80.274C85.8085 80.89 85.6725 81.434 85.4005 81.906C85.1285 82.37 84.7525 82.734 84.2725 82.998C83.8005 83.262 83.2565 83.394 82.6405 83.394C82.0325 83.394 81.4885 83.262 81.0085 82.998C80.5285 82.734 80.1525 82.37 79.8805 81.906C79.6085 81.434 79.4725 80.89 79.4725 80.274ZM80.9365 80.274C80.9365 80.634 81.0085 80.95 81.1525 81.222C81.3045 81.494 81.5045 81.706 81.7525 81.858C82.0085 82.01 82.3045 82.086 82.6405 82.086C82.9765 82.086 83.2725 82.01 83.5285 81.858C83.7845 81.706 83.9845 81.494 84.1285 81.222C84.2725 80.95 84.3445 80.634 84.3445 80.274C84.3445 79.906 84.2725 79.59 84.1285 79.326C83.9845 79.054 83.7845 78.842 83.5285 78.69C83.2725 78.538 82.9765 78.462 82.6405 78.462C82.3045 78.462 82.0085 78.538 81.7525 78.69C81.5045 78.842 81.3045 79.054 81.1525 79.326C81.0085 79.59 80.9365 79.906 80.9365 80.274ZM86.5129 81.45H87.9049C87.9129 81.706 88.0089 81.91 88.1929 82.062C88.3769 82.214 88.6329 82.29 88.9609 82.29C89.3129 82.29 89.5769 82.226 89.7529 82.098C89.9369 81.97 90.0289 81.798 90.0289 81.582C90.0289 81.438 89.9809 81.31 89.8849 81.198C89.7889 81.086 89.6089 81.002 89.3449 80.946L88.2769 80.694C87.7409 80.574 87.3409 80.382 87.0769 80.118C86.8209 79.846 86.6929 79.474 86.6929 79.002C86.6929 78.618 86.7929 78.286 86.9929 78.006C87.2009 77.726 87.4809 77.514 87.8329 77.37C88.1849 77.218 88.5889 77.142 89.0449 77.142C89.4849 77.142 89.8729 77.222 90.2089 77.382C90.5449 77.542 90.8049 77.766 90.9889 78.054C91.1809 78.342 91.2809 78.678 91.2889 79.062H89.8969C89.8969 78.806 89.8169 78.606 89.6569 78.462C89.4969 78.31 89.2729 78.234 88.9849 78.234C88.6969 78.234 88.4729 78.298 88.3129 78.426C88.1529 78.554 88.0729 78.726 88.0729 78.942C88.0729 79.27 88.3289 79.494 88.8409 79.614L89.9089 79.866C90.4049 79.978 90.7769 80.158 91.0249 80.406C91.2809 80.654 91.4089 81.006 91.4089 81.462C91.4089 81.862 91.3049 82.21 91.0969 82.506C90.8889 82.794 90.5969 83.018 90.2209 83.178C89.8449 83.33 89.4129 83.406 88.9249 83.406C88.1889 83.406 87.6009 83.226 87.1609 82.866C86.7289 82.506 86.5129 82.034 86.5129 81.45Z" fill="#191D23"/>
<rect x="50.25" y="97.25" width="18.5" height="18.5" rx="2.3125" fill="#4B4EFC"/>
<path d="M59.9814 103.127C59.9814 102.861 59.7657 102.646 59.4997 102.646C59.2336 102.646 59.0179 102.861 59.0179 103.127V106.018H56.1273C55.8612 106.018 55.6455 106.234 55.6455 106.5C55.6455 106.766 55.8612 106.981 56.1273 106.981H59.0179V109.872C59.0179 110.138 59.2336 110.354 59.4997 110.354C59.7657 110.354 59.9814 110.138 59.9814 109.872V106.981H62.8721C63.1381 106.981 63.3538 106.766 63.3538 106.5C63.3538 106.234 63.1381 106.018 62.8721 106.018H59.9814V103.127Z" fill="white"/>
<rect x="3.5" y="2.5" width="112" height="148" rx="3.5" stroke="#D0D5DD" stroke-dasharray="4 4" shape-rendering="crispEdges"/>
</g>
<defs>
<filter id="filter0_d_101_32411" x="0" y="0" width="119" height="155" filterUnits="userSpaceOnUse" color-interpolation-filters="sRGB">
<feFlood flood-opacity="0" result="BackgroundImageFix"/>
<feColorMatrix in="SourceAlpha" type="matrix" values="0 0 0 0 0 0 0 0 0 0 0 0 0 0 0 0 0 0 127 0" result="hardAlpha"/>
<feOffset dy="1"/>
<feGaussianBlur stdDeviation="1.5"/>
<feComposite in2="hardAlpha" operator="out"/>
<feColorMatrix type="matrix" values="0 0 0 0 0 0 0 0 0 0 0 0 0 0 0 0 0 0 0.25 0"/>
<feBlend mode="normal" in2="BackgroundImageFix" result="effect1_dropShadow_101_32411"/>
<feBlend mode="normal" in="SourceGraphic" in2="effect1_dropShadow_101_32411" result="shape"/>
</filter>
</defs>
</svg>
