<svg width="287" height="30" viewBox="0 0 287 30" fill="none" xmlns="http://www.w3.org/2000/svg">
<rect width="287" height="30" rx="4" fill="#4B4EFC"/>
<path d="M103 15V19.5C103 21.1569 101.657 22.5 100 22.5H91C89.3431 22.5 88 21.1569 88 19.5V10.5C88 8.84315 89.3431 7.5 91 7.5H95.5M98.2648 9.01706C98.2648 9.01706 98.2648 10.0898 99.3375 11.1625C100.41 12.2352 101.483 12.2352 101.483 12.2352M93.366 17.9922L95.6187 17.6704C95.9437 17.6239 96.2448 17.4734 96.4769 17.2413L102.556 11.1625C103.148 10.5701 103.148 9.60951 102.556 9.01706L101.483 7.94434C100.89 7.35189 99.9299 7.35189 99.3375 7.94434L93.2587 14.0231C93.0266 14.2552 92.8761 14.5563 92.8296 14.8813L92.5078 17.134C92.4363 17.6346 92.8654 18.0637 93.366 17.9922Z" stroke="#F9FAFB" stroke-width="1.5" stroke-linecap="round"/>
<path d="M117.492 20.143C116.599 20.143 115.819 19.9437 115.152 19.545C114.485 19.1377 113.965 18.5743 113.592 17.855C113.219 17.127 113.033 16.2777 113.033 15.307C113.033 14.3363 113.224 13.487 113.605 12.759C113.986 12.031 114.515 11.4633 115.191 11.056C115.876 10.6487 116.664 10.445 117.557 10.445C118.268 10.445 118.909 10.5793 119.481 10.848C120.053 11.108 120.53 11.4763 120.911 11.953C121.292 12.4297 121.539 12.9887 121.652 13.63H120.287C120.114 13.0147 119.78 12.5337 119.286 12.187C118.792 11.8403 118.203 11.667 117.518 11.667C116.885 11.667 116.331 11.8187 115.854 12.122C115.386 12.4167 115.022 12.837 114.762 13.383C114.502 13.9203 114.372 14.5573 114.372 15.294C114.372 16.022 114.502 16.659 114.762 17.205C115.022 17.751 115.39 18.1757 115.867 18.479C116.344 18.7737 116.894 18.921 117.518 18.921C118.211 18.921 118.809 18.752 119.312 18.414C119.823 18.0673 120.166 17.6037 120.339 17.023H121.691C121.561 17.647 121.297 18.193 120.898 18.661C120.508 19.129 120.018 19.493 119.429 19.753C118.848 20.013 118.203 20.143 117.492 20.143ZM126.685 13.591V14.709H126.139C125.558 14.709 125.099 14.878 124.761 15.216C124.432 15.5453 124.267 16.0177 124.267 16.633V20H123.045V13.656H124.189L124.293 14.93H124.176C124.263 14.514 124.471 14.176 124.8 13.916C125.129 13.6473 125.541 13.513 126.035 13.513C126.148 13.513 126.252 13.5217 126.347 13.539C126.451 13.5477 126.564 13.565 126.685 13.591ZM130.346 20.156C129.73 20.156 129.184 20.0173 128.708 19.74C128.231 19.454 127.858 19.064 127.59 18.57C127.321 18.0673 127.187 17.4867 127.187 16.828C127.187 16.1607 127.317 15.5757 127.577 15.073C127.845 14.5703 128.209 14.176 128.669 13.89C129.137 13.604 129.678 13.461 130.294 13.461C130.9 13.461 131.425 13.591 131.867 13.851C132.317 14.111 132.664 14.475 132.907 14.943C133.158 15.411 133.284 15.9613 133.284 16.594V17.049L127.837 17.062L127.863 16.243H132.062C132.062 15.7143 131.901 15.2897 131.581 14.969C131.26 14.6483 130.831 14.488 130.294 14.488C129.886 14.488 129.535 14.579 129.241 14.761C128.955 14.9343 128.734 15.1943 128.578 15.541C128.43 15.879 128.357 16.2863 128.357 16.763C128.357 17.5257 128.53 18.115 128.877 18.531C129.223 18.9383 129.722 19.142 130.372 19.142C130.848 19.142 131.238 19.0467 131.542 18.856C131.845 18.6653 132.049 18.388 132.153 18.024H133.297C133.141 18.7 132.807 19.2243 132.296 19.597C131.784 19.9697 131.134 20.156 130.346 20.156ZM136.444 20.156C135.768 20.156 135.235 19.9783 134.845 19.623C134.464 19.2677 134.273 18.804 134.273 18.232C134.273 17.6513 134.481 17.1877 134.897 16.841C135.313 16.4857 135.894 16.2777 136.639 16.217L138.641 16.061V15.879C138.641 15.5237 138.576 15.242 138.446 15.034C138.316 14.8173 138.139 14.6657 137.913 14.579C137.688 14.4837 137.432 14.436 137.146 14.436C136.635 14.436 136.236 14.5443 135.95 14.761C135.673 14.969 135.534 15.268 135.534 15.658H134.468C134.468 15.216 134.581 14.8303 134.806 14.501C135.032 14.1717 135.348 13.916 135.755 13.734C136.171 13.552 136.652 13.461 137.198 13.461C137.727 13.461 138.186 13.5563 138.576 13.747C138.975 13.929 139.283 14.2107 139.499 14.592C139.725 14.9647 139.837 15.437 139.837 16.009V20H138.797L138.667 18.973C138.503 19.337 138.217 19.6273 137.809 19.844C137.411 20.052 136.956 20.156 136.444 20.156ZM136.795 19.207C137.376 19.207 137.831 19.0337 138.16 18.687C138.49 18.3317 138.654 17.855 138.654 17.257V16.919L137.029 17.049C136.492 17.101 136.102 17.2267 135.859 17.426C135.625 17.6253 135.508 17.881 135.508 18.193C135.508 18.531 135.621 18.7867 135.846 18.96C136.08 19.1247 136.397 19.207 136.795 19.207ZM140.752 13.643H144.47V14.67H140.752V13.643ZM143.222 20H142V11.654H143.222V20ZM148.246 20.156C147.631 20.156 147.085 20.0173 146.608 19.74C146.131 19.454 145.759 19.064 145.49 18.57C145.221 18.0673 145.087 17.4867 145.087 16.828C145.087 16.1607 145.217 15.5757 145.477 15.073C145.746 14.5703 146.11 14.176 146.569 13.89C147.037 13.604 147.579 13.461 148.194 13.461C148.801 13.461 149.325 13.591 149.767 13.851C150.218 14.111 150.564 14.475 150.807 14.943C151.058 15.411 151.184 15.9613 151.184 16.594V17.049L145.737 17.062L145.763 16.243H149.962C149.962 15.7143 149.802 15.2897 149.481 14.969C149.16 14.6483 148.731 14.488 148.194 14.488C147.787 14.488 147.436 14.579 147.141 14.761C146.855 14.9343 146.634 15.1943 146.478 15.541C146.331 15.879 146.257 16.2863 146.257 16.763C146.257 17.5257 146.43 18.115 146.777 18.531C147.124 18.9383 147.622 19.142 148.272 19.142C148.749 19.142 149.139 19.0467 149.442 18.856C149.745 18.6653 149.949 18.388 150.053 18.024H151.197C151.041 18.7 150.707 19.2243 150.196 19.597C149.685 19.9697 149.035 20.156 148.246 20.156ZM157.963 20.156C157.287 20.156 156.754 19.9783 156.364 19.623C155.982 19.2677 155.792 18.804 155.792 18.232C155.792 17.6513 156 17.1877 156.416 16.841C156.832 16.4857 157.412 16.2777 158.158 16.217L160.16 16.061V15.879C160.16 15.5237 160.095 15.242 159.965 15.034C159.835 14.8173 159.657 14.6657 159.432 14.579C159.206 14.4837 158.951 14.436 158.665 14.436C158.153 14.436 157.755 14.5443 157.469 14.761C157.191 14.969 157.053 15.268 157.053 15.658H155.987C155.987 15.216 156.099 14.8303 156.325 14.501C156.55 14.1717 156.866 13.916 157.274 13.734C157.69 13.552 158.171 13.461 158.717 13.461C159.245 13.461 159.705 13.5563 160.095 13.747C160.493 13.929 160.801 14.2107 161.018 14.592C161.243 14.9647 161.356 15.437 161.356 16.009V20H160.316L160.186 18.973C160.021 19.337 159.735 19.6273 159.328 19.844C158.929 20.052 158.474 20.156 157.963 20.156ZM158.314 19.207C158.894 19.207 159.349 19.0337 159.679 18.687C160.008 18.3317 160.173 17.855 160.173 17.257V16.919L158.548 17.049C158.01 17.101 157.62 17.2267 157.378 17.426C157.144 17.6253 157.027 17.881 157.027 18.193C157.027 18.531 157.139 18.7867 157.365 18.96C157.599 19.1247 157.915 19.207 158.314 19.207ZM167.851 20H166.629V10.432H167.851V20ZM169.65 20V13.643H170.872V20H169.65ZM170.248 12.135C170.031 12.135 169.84 12.057 169.676 11.901C169.52 11.7363 169.442 11.5457 169.442 11.329C169.442 11.1037 169.52 10.913 169.676 10.757C169.84 10.601 170.031 10.523 170.248 10.523C170.473 10.523 170.664 10.601 170.82 10.757C170.976 10.913 171.054 11.1037 171.054 11.329C171.054 11.5457 170.976 11.7363 170.82 11.901C170.664 12.057 170.473 12.135 170.248 12.135ZM172.126 18.154H173.296C173.296 18.4747 173.413 18.7303 173.647 18.921C173.881 19.103 174.197 19.194 174.596 19.194C175.029 19.194 175.363 19.1117 175.597 18.947C175.831 18.7737 175.948 18.544 175.948 18.258C175.948 18.05 175.883 17.8767 175.753 17.738C175.631 17.5993 175.406 17.4867 175.077 17.4L173.959 17.14C173.395 17.0013 172.975 16.789 172.698 16.503C172.429 16.217 172.295 15.84 172.295 15.372C172.295 14.982 172.394 14.644 172.594 14.358C172.802 14.072 173.083 13.851 173.439 13.695C173.803 13.539 174.219 13.461 174.687 13.461C175.155 13.461 175.558 13.5433 175.896 13.708C176.242 13.8727 176.511 14.1023 176.702 14.397C176.901 14.6917 177.005 15.0427 177.014 15.45H175.844C175.835 15.1207 175.727 14.865 175.519 14.683C175.311 14.501 175.02 14.41 174.648 14.41C174.266 14.41 173.972 14.4923 173.764 14.657C173.556 14.8217 173.452 15.047 173.452 15.333C173.452 15.7577 173.764 16.048 174.388 16.204L175.506 16.477C176.043 16.5983 176.446 16.7977 176.715 17.075C176.983 17.3437 177.118 17.712 177.118 18.18C177.118 18.5787 177.009 18.9297 176.793 19.233C176.576 19.5277 176.277 19.7573 175.896 19.922C175.523 20.078 175.081 20.156 174.57 20.156C173.824 20.156 173.231 19.974 172.789 19.61C172.347 19.246 172.126 18.7607 172.126 18.154ZM177.797 13.643H181.515V14.67H177.797V13.643ZM180.267 20H179.045V11.654H180.267V20ZM182.612 20V13.643H183.834V20H182.612ZM183.21 12.135C182.993 12.135 182.802 12.057 182.638 11.901C182.482 11.7363 182.404 11.5457 182.404 11.329C182.404 11.1037 182.482 10.913 182.638 10.757C182.802 10.601 182.993 10.523 183.21 10.523C183.435 10.523 183.626 10.601 183.782 10.757C183.938 10.913 184.016 11.1037 184.016 11.329C184.016 11.5457 183.938 11.7363 183.782 11.901C183.626 12.057 183.435 12.135 183.21 12.135ZM186.83 20H185.608V13.643H186.713L186.843 14.618C187.042 14.254 187.328 13.9723 187.701 13.773C188.082 13.565 188.498 13.461 188.949 13.461C189.781 13.461 190.396 13.6993 190.795 14.176C191.193 14.6527 191.393 15.2983 191.393 16.113V20H190.171V16.386C190.171 15.7447 190.032 15.2853 189.755 15.008C189.477 14.722 189.105 14.579 188.637 14.579C188.065 14.579 187.618 14.7653 187.298 15.138C186.986 15.5107 186.83 16.009 186.83 16.633V20ZM192.682 16.659C192.682 16.061 192.804 15.5237 193.046 15.047C193.289 14.5617 193.636 14.176 194.086 13.89C194.537 13.604 195.07 13.461 195.685 13.461C196.257 13.461 196.747 13.5997 197.154 13.877C197.562 14.1457 197.852 14.5227 198.025 15.008L197.869 15.177L197.999 13.643H199.091V19.74C199.091 20.4073 198.961 20.9837 198.701 21.469C198.441 21.963 198.073 22.3443 197.596 22.613C197.12 22.8817 196.556 23.016 195.906 23.016C195.04 23.016 194.329 22.7863 193.774 22.327C193.22 21.8677 192.882 21.235 192.76 20.429H193.982C194.06 20.897 194.268 21.261 194.606 21.521C194.944 21.781 195.378 21.911 195.906 21.911C196.504 21.911 196.981 21.729 197.336 21.365C197.7 21.0097 197.882 20.5287 197.882 19.922V18.128L198.038 18.297C197.874 18.7737 197.575 19.1507 197.141 19.428C196.708 19.6967 196.205 19.831 195.633 19.831C195.027 19.831 194.502 19.6923 194.06 19.415C193.618 19.129 193.276 18.7477 193.033 18.271C192.799 17.7943 192.682 17.257 192.682 16.659ZM193.904 16.633C193.904 17.0317 193.982 17.3913 194.138 17.712C194.303 18.0327 194.528 18.2883 194.814 18.479C195.109 18.6697 195.451 18.765 195.841 18.765C196.257 18.765 196.613 18.674 196.907 18.492C197.202 18.31 197.427 18.0587 197.583 17.738C197.748 17.4173 197.83 17.049 197.83 16.633C197.83 16.217 197.752 15.853 197.596 15.541C197.44 15.229 197.215 14.982 196.92 14.8C196.626 14.618 196.27 14.527 195.854 14.527C195.447 14.527 195.096 14.6223 194.801 14.813C194.515 15.0037 194.294 15.2593 194.138 15.58C193.982 15.892 193.904 16.243 193.904 16.633Z" fill="#F9FAFB"/>
</svg>
