<svg width="20" height="20" viewBox="0 0 20 20" fill="none" xmlns="http://www.w3.org/2000/svg">
<path d="M1 19.2295H19M11.7844 3.5412C11.7844 3.5412 11.7844 5.17583 13.419 6.81046C15.0537 8.44508 16.6883 8.44508 16.6883 8.44508M5.31963 16.2176L8.75234 15.7272C9.2475 15.6564 9.70636 15.427 10.06 15.0733L18.3229 6.81045C19.2257 5.90767 19.2257 4.44398 18.3229 3.5412L16.6883 1.90658C15.7855 1.0038 14.3218 1.0038 13.419 1.90658L5.15616 10.1695C4.80248 10.5231 4.57305 10.982 4.50231 11.4772L4.01193 14.9099C3.90295 15.6727 4.5568 16.3265 5.31963 16.2176Z" stroke="#4B4EFC" stroke-width="1.5" stroke-linecap="round"/>
</svg>
