<svg width="14" height="8" viewBox="0 0 14 8" fill="none" xmlns="http://www.w3.org/2000/svg">
<path d="M7.66699 6.66667L7.66699 5.33333C7.66699 5.15652 7.73723 4.98695 7.86225 4.86193C7.98728 4.7369 8.15685 4.66667 8.33366 4.66667C8.51047 4.66667 8.68004 4.7369 8.80506 4.86193C8.93009 4.98695 9.00033 5.15652 9.00033 5.33333L9.00033 6.66667L12.333 6.66667C11.9189 6.35626 11.5828 5.95367 11.3513 5.49081C11.1197 5.02795 10.9992 4.51753 10.9992 4C10.9992 3.48247 11.1197 2.97205 11.3513 2.50919C11.5828 2.04633 11.9189 1.64374 12.333 1.33333L9.00033 1.33333L9.00033 2.66667C9.00033 2.84348 8.93009 3.01305 8.80506 3.13807C8.68004 3.2631 8.51047 3.33333 8.33366 3.33333C8.15685 3.33333 7.98728 3.2631 7.86225 3.13807C7.73723 3.01305 7.66699 2.84348 7.66699 2.66667L7.66699 1.33333L1.66766 1.33333C2.08177 1.64374 2.41789 2.04633 2.6494 2.50919C2.88091 2.97205 3.00144 3.48247 3.00144 4C3.00144 4.51753 2.88091 5.02795 2.6494 5.49081C2.41789 5.95367 2.08177 6.35626 1.66766 6.66667L7.66699 6.66667ZM0.33366 -5.82818e-07L13.667 0L13.667 2.11333C13.2766 2.25107 12.9386 2.50649 12.6995 2.8444C12.4604 3.18231 12.332 3.58606 12.332 4C12.332 4.41394 12.4604 4.81769 12.6995 5.1556C12.9386 5.49351 13.2766 5.74893 13.667 5.88667L13.667 8L0.33366 8L0.33366 5.88667C0.724015 5.74893 1.06204 5.49351 1.30113 5.1556C1.54023 4.81769 1.66863 4.41394 1.66863 4C1.66863 3.58606 1.54023 3.18231 1.30113 2.8444C1.06204 2.50649 0.724015 2.25107 0.33366 2.11333L0.33366 -5.82818e-07Z" fill="black"/>
</svg>
