<svg width="22" height="23" viewBox="0 0 22 23" fill="none" xmlns="http://www.w3.org/2000/svg">
<g clip-path="url(#clip0_101_35238)">
<path d="M19.5078 3.09961H2.49219C1.54295 3.09961 0.773438 3.86912 0.773438 4.81836V20.459C0.773438 21.4082 1.54295 22.1777 2.49219 22.1777H19.5078C20.4571 22.1777 21.2266 21.4082 21.2266 20.459V4.81836C21.2266 3.86912 20.4571 3.09961 19.5078 3.09961Z" fill="#E1E1E3"/>
<path d="M19.5078 3.09961H17.5742C18.0301 3.09963 18.4672 3.28072 18.7895 3.60304C19.1119 3.92537 19.2929 4.36253 19.293 4.81836V20.459C19.2929 20.9148 19.1119 21.352 18.7895 21.6743C18.4672 21.9966 18.0301 22.1777 17.5742 22.1777H19.5078C19.9636 22.1777 20.4008 21.9966 20.7231 21.6743C21.0455 21.352 21.2265 20.9148 21.2266 20.459V4.81836C21.2265 4.36253 21.0455 3.92537 20.7231 3.60304C20.4008 3.28072 19.9636 3.09963 19.5078 3.09961Z" fill="#C8C5CC"/>
<path d="M21.2266 4.81836V8.51367H0.773438V4.81836C0.77346 4.36253 0.95455 3.92537 1.27687 3.60304C1.5992 3.28072 2.03635 3.09963 2.49219 3.09961H19.5078C19.9636 3.09963 20.4008 3.28072 20.7231 3.60304C21.0455 3.92537 21.2265 4.36253 21.2266 4.81836Z" fill="#EB304A"/>
<path d="M19.5078 3.09961H17.5742C18.0301 3.09963 18.4672 3.28072 18.7895 3.60304C19.1119 3.92537 19.2929 4.36253 19.293 4.81836V8.51367H21.2266V4.81836C21.2265 4.36253 21.0455 3.92537 20.7231 3.60304C20.4008 3.28072 19.9636 3.09963 19.5078 3.09961Z" fill="#E4222E"/>
<path d="M4.31093 18.2354H3.37305C3.01708 18.2354 2.72852 18.5239 2.72852 18.8799V19.8073C2.72852 20.1633 3.01708 20.4519 3.37305 20.4519H4.31093C4.66689 20.4519 4.95546 20.1633 4.95546 19.8073V18.8799C4.95546 18.5239 4.66689 18.2354 4.31093 18.2354Z" fill="white"/>
<path d="M4.31093 10.2402H3.37305C3.01708 10.2402 2.72852 10.5288 2.72852 10.8848V11.8122C2.72852 12.1682 3.01708 12.4567 3.37305 12.4567H4.31093C4.66689 12.4567 4.95546 12.1682 4.95546 11.8122V10.8848C4.95546 10.5288 4.66689 10.2402 4.31093 10.2402Z" fill="white"/>
<path d="M7.89003 18.2354H6.95215C6.59618 18.2354 6.30762 18.5239 6.30762 18.8799V19.8073C6.30762 20.1633 6.59618 20.4519 6.95215 20.4519H7.89003C8.24599 20.4519 8.53456 20.1633 8.53456 19.8073V18.8799C8.53456 18.5239 8.24599 18.2354 7.89003 18.2354Z" fill="white"/>
<path d="M7.89003 10.2402H6.95215C6.59618 10.2402 6.30762 10.5288 6.30762 10.8848V11.8122C6.30762 12.1682 6.59618 12.4567 6.95215 12.4567H7.89003C8.24599 12.4567 8.53456 12.1682 8.53456 11.8122V10.8848C8.53456 10.5288 8.24599 10.2402 7.89003 10.2402Z" fill="white"/>
<path d="M11.4691 18.2354H10.5312C10.1753 18.2354 9.88672 18.5239 9.88672 18.8799V19.8073C9.88672 20.1633 10.1753 20.4519 10.5312 20.4519H11.4691C11.8251 20.4519 12.1137 20.1633 12.1137 19.8073V18.8799C12.1137 18.5239 11.8251 18.2354 11.4691 18.2354Z" fill="white"/>
<path d="M11.4691 10.2402H10.5312C10.1753 10.2402 9.88672 10.5288 9.88672 10.8848V11.8122C9.88672 12.1682 10.1753 12.4567 10.5312 12.4567H11.4691C11.8251 12.4567 12.1137 12.1682 12.1137 11.8122V10.8848C12.1137 10.5288 11.8251 10.2402 11.4691 10.2402Z" fill="white"/>
<path d="M15.0482 18.2354H14.1104C13.7544 18.2354 13.4658 18.5239 13.4658 18.8799V19.8073C13.4658 20.1633 13.7544 20.4519 14.1104 20.4519H15.0482C15.4042 20.4519 15.6928 20.1633 15.6928 19.8073V18.8799C15.6928 18.5239 15.4042 18.2354 15.0482 18.2354Z" fill="white"/>
<path d="M15.0482 10.2402H14.1104C13.7544 10.2402 13.4658 10.5288 13.4658 10.8848V11.8122C13.4658 12.1682 13.7544 12.4567 14.1104 12.4567H15.0482C15.4042 12.4567 15.6928 12.1682 15.6928 11.8122V10.8848C15.6928 10.5288 15.4042 10.2402 15.0482 10.2402Z" fill="white"/>
<path d="M18.6273 18.2354H17.6895C17.3335 18.2354 17.0449 18.5239 17.0449 18.8799V19.8073C17.0449 20.1633 17.3335 20.4519 17.6895 20.4519H18.6273C18.9833 20.4519 19.2719 20.1633 19.2719 19.8073V18.8799C19.2719 18.5239 18.9833 18.2354 18.6273 18.2354Z" fill="white"/>
<path d="M4.31093 14.2373H3.37305C3.01708 14.2373 2.72852 14.5259 2.72852 14.8818V15.8093C2.72852 16.1652 3.01708 16.4538 3.37305 16.4538H4.31093C4.66689 16.4538 4.95546 16.1652 4.95546 15.8093V14.8818C4.95546 14.5259 4.66689 14.2373 4.31093 14.2373Z" fill="white"/>
<path d="M7.89003 14.2373H6.95215C6.59618 14.2373 6.30762 14.5259 6.30762 14.8818V15.8093C6.30762 16.1652 6.59618 16.4538 6.95215 16.4538H7.89003C8.24599 16.4538 8.53456 16.1652 8.53456 15.8093V14.8818C8.53456 14.5259 8.24599 14.2373 7.89003 14.2373Z" fill="white"/>
<path d="M11.4691 14.2373H10.5312C10.1753 14.2373 9.88672 14.5259 9.88672 14.8818V15.8093C9.88672 16.1652 10.1753 16.4538 10.5312 16.4538H11.4691C11.8251 16.4538 12.1137 16.1652 12.1137 15.8093V14.8818C12.1137 14.5259 11.8251 14.2373 11.4691 14.2373Z" fill="white"/>
<path d="M18.6273 14.2373H17.6895C17.3335 14.2373 17.0449 14.5259 17.0449 14.8818V15.8093C17.0449 16.1652 17.3335 16.4538 17.6895 16.4538H18.6273C18.9833 16.4538 19.2719 16.1652 19.2719 15.8093V14.8818C19.2719 14.5259 18.9833 14.2373 18.6273 14.2373Z" fill="white"/>
<path d="M18.6273 10.2402H17.6895C17.3335 10.2402 17.0449 10.5288 17.0449 10.8848V11.8122C17.0449 12.1682 17.3335 12.4567 17.6895 12.4567H18.6273C18.9833 12.4567 19.2719 12.1682 19.2719 11.8122V10.8848C19.2719 10.5288 18.9833 10.2402 18.6273 10.2402Z" fill="white"/>
<path d="M14.2742 16.7765C14.2292 16.7765 14.1847 16.7671 14.1435 16.7488C14.1024 16.7305 14.0655 16.7038 14.0353 16.6705L13.2267 15.7766C13.1979 15.7453 13.1755 15.7086 13.161 15.6686C13.1465 15.6287 13.14 15.5862 13.1419 15.5437C13.1439 15.5012 13.1542 15.4595 13.1724 15.421C13.1905 15.3826 13.2161 15.348 13.2477 15.3195C13.2792 15.291 13.3161 15.269 13.3562 15.2547C13.3963 15.2405 13.4388 15.2344 13.4813 15.2367C13.5238 15.239 13.5654 15.2497 13.6037 15.2681C13.642 15.2866 13.6763 15.3125 13.7046 15.3442L14.2331 15.9284L15.4428 14.0785C15.4895 14.007 15.5628 13.957 15.6465 13.9394C15.7302 13.9219 15.8173 13.9384 15.8889 13.9852C15.9604 14.032 16.0104 14.1052 16.0279 14.1889C16.0454 14.2726 16.029 14.3597 15.9822 14.4313L14.544 16.6306C14.517 16.6719 14.4809 16.7064 14.4385 16.7315C14.3961 16.7566 14.3485 16.7717 14.2994 16.7755C14.291 16.7762 14.2826 16.7765 14.2742 16.7765Z" fill="#56BC8D"/>
<path d="M5.41406 2.00391C5.41406 1.3513 4.88502 0.822266 4.23242 0.822266C3.57982 0.822266 3.05078 1.3513 3.05078 2.00391V5.05469C3.05078 5.70729 3.57982 6.23633 4.23242 6.23633C4.88502 6.23633 5.41406 5.70729 5.41406 5.05469V2.00391Z" fill="#E1E1E3"/>
<path d="M18.9492 2.00391C18.9492 1.3513 18.4202 0.822266 17.7676 0.822266C17.115 0.822266 16.5859 1.3513 16.5859 2.00391V5.05469C16.5859 5.70729 17.115 6.23633 17.7676 6.23633C18.4202 6.23633 18.9492 5.70729 18.9492 5.05469V2.00391Z" fill="#E1E1E3"/>
<path d="M17.7674 0.822266C17.6142 0.822155 17.4625 0.85193 17.3207 0.909922C17.538 0.998682 17.7239 1.15013 17.8548 1.34497C17.9857 1.5398 18.0556 1.76919 18.0556 2.00391V5.05469C18.0556 5.2894 17.9857 5.5188 17.8548 5.71363C17.7239 5.90846 17.538 6.05991 17.3207 6.14867C17.5001 6.22192 17.6949 6.24991 17.8877 6.23018C18.0805 6.21044 18.2655 6.14359 18.4263 6.0355C18.5872 5.92742 18.719 5.78142 18.8102 5.61038C18.9014 5.43934 18.949 5.2485 18.9491 5.05469V2.00391C18.9491 1.69052 18.8246 1.38996 18.603 1.16836C18.3814 0.94676 18.0808 0.822266 17.7674 0.822266ZM4.28854 0.822266C4.13534 0.822149 3.98359 0.851924 3.8418 0.909922C4.05908 0.998682 4.24501 1.15013 4.37589 1.34497C4.50678 1.5398 4.57668 1.76919 4.57669 2.00391V5.05469C4.57668 5.2894 4.50678 5.5188 4.37589 5.71363C4.24501 5.90846 4.05908 6.05991 3.8418 6.14867C4.02124 6.22193 4.21595 6.24993 4.40876 6.2302C4.60157 6.21047 4.78657 6.14361 4.94746 6.03553C5.10834 5.92744 5.24017 5.78144 5.33133 5.6104C5.42248 5.43935 5.47017 5.24851 5.47018 5.05469V2.00391C5.47018 1.69052 5.34569 1.38996 5.12409 1.16836C4.90249 0.94676 4.60193 0.822266 4.28854 0.822266Z" fill="#DADADC"/>
</g>
<defs>
<clipPath id="clip0_101_35238">
<rect width="22" height="22" fill="white" transform="translate(0 0.5)"/>
</clipPath>
</defs>
</svg>
