<svg width="20" height="20" viewBox="0 0 20 20" fill="none" xmlns="http://www.w3.org/2000/svg">
<path d="M4.2581 6.88406L9.9701 16.9771L15.5881 7.14706C14.2581 7.04206 12.8761 6.69406 11.3461 6.15506C10.9511 6.01506 10.7481 5.98406 10.5661 6.00706C10.4121 6.02706 8.8431 6.57606 7.9231 6.80906C6.7621 7.10306 5.5391 7.12606 4.2581 6.88406ZM2.8481 4.39406C4.5501 5.06406 6.0721 5.21406 7.4321 4.87006C8.1701 4.68306 9.9101 4.07406 10.3151 4.02306C10.8441 3.95606 11.3451 4.03306 12.0111 4.26806C13.7851 4.89406 15.3071 5.22406 16.7141 5.17706L17.6011 3.62506C15.2001 2.54825 12.5975 1.99433 9.9661 2.00006C7.35901 1.99455 4.78 2.53836 2.3971 3.59606L2.8481 4.39306V4.39406ZM0.542099 2.26806C3.45708 0.769882 6.68867 -0.00783934 9.9661 5.95722e-05C13.3281 5.95722e-05 16.5721 0.80006 19.4621 2.30606C19.5814 2.36826 19.687 2.45392 19.7725 2.55789C19.8579 2.66187 19.9215 2.78202 19.9594 2.91116C19.9973 3.0403 20.0088 3.17575 19.9931 3.30942C19.9774 3.44309 19.9349 3.57221 19.8681 3.68906L10.8341 19.4961C10.7464 19.6493 10.6197 19.7766 10.4668 19.8649C10.314 19.9533 10.1405 19.9997 9.96394 19.9993C9.78739 19.9988 9.61409 19.9517 9.46166 19.8626C9.30923 19.7735 9.1831 19.6457 9.0961 19.4921L0.130099 3.65006C0.0640207 3.53298 0.0222296 3.40377 0.00722449 3.27017C-0.00778059 3.13657 0.0043085 3.00131 0.042769 2.87249C0.0812295 2.74366 0.145272 2.62392 0.231066 2.52041C0.316861 2.4169 0.422647 2.33175 0.542099 2.27006V2.26806ZM8.0001 10.0001C7.73488 10.0001 7.48053 9.8947 7.29299 9.70717C7.10546 9.51963 7.0001 9.26528 7.0001 9.00006C7.0001 8.73484 7.10546 8.48049 7.29299 8.29295C7.48053 8.10542 7.73488 8.00006 8.0001 8.00006C8.26532 8.00006 8.51967 8.10542 8.70721 8.29295C8.89474 8.48049 9.0001 8.73484 9.0001 9.00006C9.0001 9.26528 8.89474 9.51963 8.70721 9.70717C8.51967 9.8947 8.26532 10.0001 8.0001 10.0001ZM11.0001 13.0001C10.7349 13.0001 10.4805 12.8947 10.293 12.7072C10.1055 12.5196 10.0001 12.2653 10.0001 12.0001C10.0001 11.7348 10.1055 11.4805 10.293 11.293C10.4805 11.1054 10.7349 11.0001 11.0001 11.0001C11.2653 11.0001 11.5197 11.1054 11.7072 11.293C11.8947 11.4805 12.0001 11.7348 12.0001 12.0001C12.0001 12.2653 11.8947 12.5196 11.7072 12.7072C11.5197 12.8947 11.2653 13.0001 11.0001 13.0001Z" fill="#4B4EFC"/>
</svg>
