<svg width="24" height="24" viewBox="0 0 24 24" fill="none" xmlns="http://www.w3.org/2000/svg">
<path d="M9 12C7.81331 12 6.65328 11.6481 5.66658 10.9888C4.67989 10.3295 3.91085 9.39246 3.45673 8.2961C3.0026 7.19975 2.88378 5.99335 3.11529 4.82946C3.3468 3.66558 3.91825 2.59648 4.75736 1.75736C5.59648 0.918247 6.66558 0.346802 7.82946 0.115291C8.99335 -0.11622 10.1997 0.00259972 11.2961 0.456726C12.3925 0.910851 13.3295 1.67989 13.9888 2.66658C14.6481 3.65328 15 4.81331 15 6C14.9984 7.59081 14.3658 9.11602 13.2409 10.2409C12.116 11.3658 10.5908 11.9984 9 12ZM9 2C8.20888 2 7.43552 2.2346 6.77772 2.67412C6.11993 3.11365 5.60724 3.73836 5.30448 4.46927C5.00173 5.20017 4.92252 6.00444 5.07686 6.78036C5.2312 7.55629 5.61217 8.26902 6.17158 8.82843C6.73099 9.38784 7.44372 9.7688 8.21964 9.92314C8.99557 10.0775 9.79983 9.99827 10.5307 9.69552C11.2616 9.39277 11.8864 8.88008 12.3259 8.22228C12.7654 7.56449 13 6.79113 13 6C13 4.93914 12.5786 3.92172 11.8284 3.17158C11.0783 2.42143 10.0609 2 9 2Z" fill="black"/>
<path d="M18 24H16V18.957C15.9989 18.1731 15.6871 17.4216 15.1327 16.8673C14.5784 16.3129 13.8269 16.0011 13.043 16H4.957C4.17308 16.0011 3.42157 16.3129 2.86725 16.8673C2.31294 17.4216 2.00106 18.1731 2 18.957V24H0V18.957C0.00158783 17.6428 0.524352 16.3829 1.45363 15.4536C2.3829 14.5244 3.64281 14.0016 4.957 14H13.043C14.3572 14.0016 15.6171 14.5244 16.5464 15.4536C17.4756 16.3829 17.9984 17.6428 18 18.957V24Z" fill="black"/>
<path d="M22.0002 7.875C21.4437 7.90272 20.9208 8.14977 20.546 8.56207C20.1712 8.97437 19.9749 9.51836 20.0002 10.075C20.0255 9.51836 19.8293 8.97437 19.4544 8.56207C19.0796 8.14977 18.5567 7.90272 18.0002 7.875C17.4437 7.90272 16.9208 8.14977 16.546 8.56207C16.1712 8.97437 15.9749 9.51836 16.0002 10.075C16.0002 12.375 20.0002 15.208 20.0002 15.208C20.0002 15.208 24.0002 12.379 24.0002 10.075C24.0255 9.51836 23.8293 8.97437 23.4544 8.56207C23.0796 8.14977 22.5567 7.90272 22.0002 7.875Z" fill="black"/>
</svg>
