<svg width="24" height="24" viewBox="0 0 24 24" fill="none" xmlns="http://www.w3.org/2000/svg">
<path fill-rule="evenodd" clip-rule="evenodd" d="M4.5 1.5C4.5 0.671573 5.17157 0 6 0C6.82843 0 7.5 0.671573 7.5 1.5V3H4.5V1.5ZM19.5 3H21C22.6569 3 24 4.34315 24 6V9H0V6C0 4.34315 1.34315 3 3 3H4.5V4.5C4.5 5.32843 5.17157 6 6 6C6.82843 6 7.5 5.32843 7.5 4.5V3H16.5V4.5C16.5 5.32843 17.1716 6 18 6C18.8284 6 19.5 5.32843 19.5 4.5V3ZM19.5 3H16.5V1.5C16.5 0.671573 17.1716 0 18 0C18.8284 0 19.5 0.671573 19.5 1.5V3ZM24 12H0V21C0 22.6569 1.34315 24 3 24H21C22.6569 24 24 22.6569 24 21V12Z" fill="#A3ACBA"/>
</svg>
