<svg width="40" height="40" viewBox="0 0 40 40" fill="none" xmlns="http://www.w3.org/2000/svg">
<path d="M30.2347 7.46467C29.7798 7.46467 29.3351 7.59957 28.9569 7.85229C28.5786 8.10502 28.2838 8.46423 28.1098 8.8845C27.9357 9.30477 27.8901 9.76723 27.9789 10.2134C28.0676 10.6595 28.2867 11.0694 28.6083 11.391C28.93 11.7127 29.3398 11.9317 29.786 12.0205C30.2321 12.1092 30.6946 12.0637 31.1148 11.8896C31.5351 11.7155 31.8943 11.4207 32.1471 11.0425C32.3998 10.6643 32.5347 10.2196 32.5347 9.76467C32.5347 9.15468 32.2924 8.56966 31.861 8.13833C31.4297 7.707 30.8447 7.46467 30.2347 7.46467ZM39.0513 12.103C39.0141 10.5127 38.7162 8.93936 38.1697 7.44551C37.6823 6.16735 36.9238 5.00996 35.9463 4.05301C34.9972 3.07057 33.8372 2.31685 32.5538 1.84884C31.0639 1.28565 29.4888 0.980994 27.8963 0.948008C25.8647 0.833008 25.213 0.833008 19.9997 0.833008C14.7863 0.833008 14.1347 0.833008 12.103 0.948008C10.5105 0.980994 8.93542 1.28565 7.44551 1.84884C6.16455 2.32158 5.00546 3.07467 4.05301 4.05301C3.07057 5.0021 2.31685 6.16218 1.84884 7.44551C1.28565 8.93542 0.980994 10.5105 0.948008 12.103C0.833008 14.1347 0.833008 14.7863 0.833008 19.9997C0.833008 25.213 0.833008 25.8647 0.948008 27.8963C0.980994 29.4888 1.28565 31.0639 1.84884 32.5538C2.31685 33.8372 3.07057 34.9972 4.05301 35.9463C5.00546 36.9247 6.16455 37.6778 7.44551 38.1505C8.93542 38.7137 10.5105 39.0184 12.103 39.0513C14.1347 39.1663 14.7863 39.1663 19.9997 39.1663C25.213 39.1663 25.8647 39.1663 27.8963 39.0513C29.4888 39.0184 31.0639 38.7137 32.5538 38.1505C33.8372 37.6825 34.9972 36.9288 35.9463 35.9463C36.9281 34.993 37.6873 33.8345 38.1697 32.5538C38.7162 31.06 39.0141 29.4866 39.0513 27.8963C39.0513 25.8647 39.1663 25.213 39.1663 19.9997C39.1663 14.7863 39.1663 14.1347 39.0513 12.103ZM35.6013 27.6663C35.5874 28.883 35.367 30.0884 34.9497 31.2313C34.6436 32.0655 34.1521 32.8192 33.5122 33.4355C32.8905 34.069 32.1384 34.5595 31.308 34.873C30.1651 35.2904 28.9597 35.5107 27.743 35.5247C25.8263 35.6205 25.1172 35.6397 20.0763 35.6397C15.0355 35.6397 14.3263 35.6397 12.4097 35.5247C11.1464 35.5483 9.88848 35.3538 8.69134 34.9497C7.89742 34.6202 7.17977 34.1308 6.58301 33.5122C5.94684 32.8964 5.46146 32.1421 5.16467 31.308C4.69673 30.1487 4.43719 28.9159 4.39801 27.6663C4.39801 25.7497 4.28301 25.0405 4.28301 19.9997C4.28301 14.9588 4.28301 14.2497 4.39801 12.333C4.4066 11.0892 4.63366 9.85657 5.06884 8.69134C5.40626 7.88234 5.92418 7.16119 6.58301 6.58301C7.16532 5.924 7.88498 5.40061 8.69134 5.04967C9.85965 4.62809 11.091 4.40774 12.333 4.39801C14.2497 4.39801 14.9588 4.28301 19.9997 4.28301C25.0405 4.28301 25.7497 4.28301 27.6663 4.39801C28.883 4.41196 30.0884 4.63231 31.2313 5.04967C32.1023 5.37292 32.8841 5.89846 33.5122 6.58301C34.1403 7.17177 34.6311 7.89158 34.9497 8.69134C35.3757 9.85846 35.5961 11.0906 35.6013 12.333C35.6972 14.2497 35.7163 14.9588 35.7163 19.9997C35.7163 25.0405 35.6972 25.7497 35.6013 27.6663ZM19.9997 10.1672C18.0558 10.171 16.1567 10.7508 14.5423 11.8336C12.9278 12.9163 11.6706 14.4532 10.9293 16.2502C10.188 18.0472 9.99606 20.0236 10.3776 21.9296C10.7592 23.8357 11.6971 25.5859 13.073 26.959C14.4488 28.3322 16.2009 29.2668 18.1077 29.6446C20.0144 30.0225 21.9905 29.8266 23.786 29.0819C25.5815 28.3371 27.116 27.0768 28.1956 25.4603C29.2752 23.8438 29.8513 21.9435 29.8513 19.9997C29.8539 18.7061 29.6006 17.4248 29.1062 16.2295C28.6118 15.0342 27.8859 13.9484 26.9703 13.0346C26.0548 12.1208 24.9676 11.3971 23.7713 10.905C22.575 10.4129 21.2932 10.1621 19.9997 10.1672ZM19.9997 26.3822C18.7373 26.3822 17.5033 26.0078 16.4537 25.3065C15.4042 24.6052 14.5861 23.6084 14.103 22.4422C13.6199 21.2759 13.4935 19.9926 13.7398 18.7545C13.9861 17.5164 14.594 16.3792 15.4866 15.4866C16.3792 14.594 17.5164 13.9861 18.7545 13.7398C19.9926 13.4935 21.2759 13.6199 22.4422 14.103C23.6084 14.5861 24.6052 15.4042 25.3065 16.4537C26.0078 17.5033 26.3822 18.7373 26.3822 19.9997C26.3822 20.8378 26.2171 21.6678 25.8963 22.4422C25.5756 23.2165 25.1055 23.9201 24.5128 24.5128C23.9201 25.1055 23.2165 25.5756 22.4422 25.8963C21.6678 26.2171 20.8378 26.3822 19.9997 26.3822Z" fill="black"/>
</svg>
