<svg width="134" height="34" viewBox="0 0 134 34" fill="none" xmlns="http://www.w3.org/2000/svg">
<rect width="134" height="34" rx="4" fill="#E8E9FA"/>
<path d="M46.3418 16.4199V24.9996H51.8946C52.5904 24.9996 53.1578 24.4331 53.1578 23.7364V16.4199H46.3418Z" fill="#4B4EFC"/>
<path d="M45.6583 16.4199H38.8418V23.7364C38.8418 24.4331 39.4083 24.9996 40.105 24.9996H45.6583V16.4199Z" fill="#4B4EFC"/>
<path d="M53.5789 12.3685H51.0525C51.3172 12.0165 51.4736 11.5792 51.4736 11.1053C51.4736 9.94516 50.5296 9 49.3683 9C48.1971 9 47.2158 9.92775 46.7355 10.4802C46.4432 10.8151 46.1926 11.1738 46.0003 11.5208C45.8069 11.1738 45.5562 10.8156 45.2651 10.4802C44.7837 9.92859 43.8017 9 42.6317 9C41.471 9 40.5264 9.94516 40.5264 11.1053C40.5264 11.5792 40.6833 12.0165 40.948 12.3685H38.4211C38.1881 12.3685 38 12.5583 38 12.7896V15.316C38 15.549 38.1881 15.7371 38.4211 15.7371H53.5789C53.8108 15.7371 54 15.549 54 15.316V12.7896C54 12.5583 53.8108 12.3685 53.5789 12.3685ZM42.6317 12.3685C41.935 12.3685 41.3685 11.8021 41.3685 11.1053C41.3685 10.4092 41.935 9.84213 42.6317 9.84213C43.2426 9.84213 43.971 10.2764 44.6301 11.0329C45.0352 11.4995 45.3308 11.9969 45.4762 12.3685H42.6317ZM49.3683 12.3685H46.5238C46.6698 11.9969 46.964 11.4995 47.3704 11.0329C48.0279 10.2764 48.7566 9.84213 49.3683 9.84213C50.0641 9.84213 50.6315 10.4092 50.6315 11.1053C50.6315 11.8021 50.0641 12.3685 49.3683 12.3685Z" fill="#4B4EFC"/>
<path d="M65.201 12.497V22H63.537V12.497H65.201ZM68.6491 22H67.0631V15.578H68.5321L68.6621 16.41C68.8614 16.0893 69.1431 15.838 69.5071 15.656C69.8798 15.474 70.2828 15.383 70.7161 15.383C71.5221 15.383 72.1288 15.6213 72.5361 16.098C72.9521 16.5747 73.1601 17.2247 73.1601 18.048V22H71.5741V18.425C71.5741 17.8877 71.4528 17.489 71.2101 17.229C70.9674 16.9603 70.6381 16.826 70.2221 16.826C69.7281 16.826 69.3424 16.982 69.0651 17.294C68.7878 17.606 68.6491 18.022 68.6491 18.542V22ZM76.401 22L73.853 15.578H75.543L76.661 18.529C76.7997 18.9103 76.9167 19.2613 77.012 19.582C77.116 19.894 77.1897 20.1367 77.233 20.31C77.2764 20.1107 77.35 19.855 77.454 19.543C77.5667 19.2223 77.6924 18.8843 77.831 18.529L79.001 15.578H80.639L77.961 22H76.401ZM81.5404 22V15.578H83.1264V22H81.5404ZM82.3204 14.291C82.0517 14.291 81.822 14.2 81.6314 14.018C81.4494 13.8273 81.3584 13.5977 81.3584 13.329C81.3584 13.0603 81.4494 12.835 81.6314 12.653C81.822 12.471 82.0517 12.38 82.3204 12.38C82.589 12.38 82.8144 12.471 82.9964 12.653C83.187 12.835 83.2824 13.0603 83.2824 13.329C83.2824 13.5977 83.187 13.8273 82.9964 14.018C82.8144 14.2 82.589 14.291 82.3204 14.291ZM84.1176 15.578H88.1736V16.904H84.1176V15.578ZM86.9386 22H85.3526V13.576H86.9386V22ZM91.9717 22.169C91.339 22.169 90.7757 22.026 90.2817 21.74C89.7963 21.4453 89.415 21.0467 89.1377 20.544C88.8603 20.0327 88.7217 19.4477 88.7217 18.789C88.7217 18.1217 88.856 17.5323 89.1247 17.021C89.3933 16.5097 89.7703 16.111 90.2557 15.825C90.741 15.5303 91.2957 15.383 91.9197 15.383C92.5697 15.383 93.1287 15.5217 93.5967 15.799C94.0647 16.0677 94.4243 16.4447 94.6757 16.93C94.9357 17.4153 95.0657 17.996 95.0657 18.672V19.153L89.5537 19.166L89.5797 18.152H93.4927C93.4927 17.71 93.3497 17.3547 93.0637 17.086C92.7863 16.8173 92.4093 16.683 91.9327 16.683C91.56 16.683 91.2437 16.761 90.9837 16.917C90.7323 17.073 90.5417 17.307 90.4117 17.619C90.2817 17.931 90.2167 18.3123 90.2167 18.763C90.2167 19.4563 90.364 19.9807 90.6587 20.336C90.962 20.6913 91.4083 20.869 91.9977 20.869C92.431 20.869 92.7863 20.7867 93.0637 20.622C93.3497 20.4573 93.536 20.2233 93.6227 19.92H95.0917C94.953 20.622 94.6063 21.1723 94.0517 21.571C93.5057 21.9697 92.8123 22.169 91.9717 22.169Z" fill="#4B4EFC"/>
</svg>
