<svg width="23" height="21" viewBox="0 0 23 23" fill="none" xmlns="http://www.w3.org/2000/svg">
<path d="M7.5 16H6.75C6.75 16.2625 6.88724 16.5059 7.11184 16.6417C7.33645 16.7776 7.61574 16.7861 7.84822 16.6643L7.5 16ZM0.75 21.5C0.75 21.9142 1.08579 22.25 1.5 22.25C1.91421 22.25 2.25 21.9142 2.25 21.5H0.75ZM10.7428 14.3L11.091 14.9643L11.1189 14.9497L11.1455 14.9328L10.7428 14.3ZM12.2913 16.7554L12.6435 17.4176L12.6666 17.4053L12.6888 17.3914L12.2913 16.7554ZM8.26426 18.8973L7.91207 18.2352L7.88896 18.2475L7.86677 18.2613L8.26426 18.8973ZM5.46778 18.1936L6.11896 17.8215L5.46778 18.1936ZM5.15118 16.1279C4.94567 15.7683 4.48753 15.6433 4.1279 15.8488C3.76826 16.0543 3.64331 16.5125 3.84882 16.8721L5.15118 16.1279ZM12.7667 14.7778L13.4098 14.3919L12.7667 14.7778ZM8.25 19.5C8.25 19.0858 7.91421 18.75 7.5 18.75C7.08579 18.75 6.75 19.0858 6.75 19.5H8.25ZM6.75 21.5C6.75 21.9142 7.08579 22.25 7.5 22.25C7.91421 22.25 8.25 21.9142 8.25 21.5H6.75ZM12.3673 13.5973L11.9646 14.2301L13.2301 15.0354L13.6327 14.4027L12.3673 13.5973ZM17.1327 8.90266C17.3551 8.5532 17.2521 8.08963 16.9027 7.86725C16.5532 7.64487 16.0896 7.74789 15.8673 8.09734L17.1327 8.90266ZM4.75 4C4.75 4.41421 5.08579 4.75 5.5 4.75C5.91421 4.75 6.25 4.41421 6.25 4H4.75ZM18.5 10.75C18.0858 10.75 17.75 11.0858 17.75 11.5C17.75 11.9142 18.0858 12.25 18.5 12.25V10.75ZM9.5 4.75C9.08579 4.75 8.75 5.08579 8.75 5.5C8.75 5.91421 9.08579 6.25 9.5 6.25V4.75ZM17.5 6.25C17.9142 6.25 18.25 5.91421 18.25 5.5C18.25 5.08579 17.9142 4.75 17.5 4.75V6.25ZM9.5 7.75C9.08579 7.75 8.75 8.08579 8.75 8.5C8.75 8.91421 9.08579 9.25 9.5 9.25V7.75ZM13.5 9.25C13.9142 9.25 14.25 8.91421 14.25 8.5C14.25 8.08579 13.9142 7.75 13.5 7.75V9.25ZM5.75 8.5C5.75 9.19036 5.19036 9.75 4.5 9.75V11.25C6.01878 11.25 7.25 10.0188 7.25 8.5H5.75ZM4.5 9.75C3.80964 9.75 3.25 9.19036 3.25 8.5H1.75C1.75 10.0188 2.98122 11.25 4.5 11.25V9.75ZM3.25 8.5C3.25 7.80964 3.80964 7.25 4.5 7.25V5.75C2.98122 5.75 1.75 6.98122 1.75 8.5H3.25ZM4.5 7.25C5.19036 7.25 5.75 7.80964 5.75 8.5H7.25C7.25 6.98122 6.01878 5.75 4.5 5.75V7.25ZM8.25 16V15.5H6.75V16H8.25ZM0.75 15.5V21.5H2.25V15.5H0.75ZM7.84822 16.6643L11.091 14.9643L10.3946 13.6358L7.15178 15.3357L7.84822 16.6643ZM11.9391 16.0933L7.91207 18.2352L8.61646 19.5595L12.6435 17.4176L11.9391 16.0933ZM6.11896 17.8215L5.15118 16.1279L3.84882 16.8721L4.8166 18.5657L6.11896 17.8215ZM11.1455 14.9328C11.4784 14.7209 11.9205 14.8253 12.1236 15.1637L13.4098 14.3919C12.7726 13.3299 11.385 13.0024 10.3401 13.6673L11.1455 14.9328ZM7.86677 18.2613C7.26495 18.6375 6.47107 18.4377 6.11896 17.8215L4.8166 18.5657C5.59123 19.9213 7.33776 20.3608 8.66176 19.5333L7.86677 18.2613ZM2.25 15.5C2.25 14.2574 3.25736 13.25 4.5 13.25V11.75C2.42893 11.75 0.75 13.4289 0.75 15.5H2.25ZM12.1236 15.1637C12.3203 15.4916 12.2181 15.9167 11.8938 16.1194L12.6888 17.3914C13.7066 16.7553 14.0273 15.4211 13.4098 14.3919L12.1236 15.1637ZM8.25 15.5C8.25 13.4289 6.57107 11.75 4.5 11.75V13.25C5.74264 13.25 6.75 14.2574 6.75 15.5H8.25ZM6.75 19.5V21.5H8.25V19.5H6.75ZM13.6327 14.4027L17.1327 8.90266L15.8673 8.09734L12.3673 13.5973L13.6327 14.4027ZM6.25 4V3.5H4.75V4H6.25ZM7.5 2.25H19.5V0.75H7.5V2.25ZM20.75 3.5V9.5H22.25V3.5H20.75ZM19.5 10.75H18.5V12.25H19.5V10.75ZM20.75 9.5C20.75 10.1904 20.1904 10.75 19.5 10.75V12.25C21.0188 12.25 22.25 11.0188 22.25 9.5H20.75ZM19.5 2.25C20.1904 2.25 20.75 2.80964 20.75 3.5H22.25C22.25 1.98122 21.0188 0.75 19.5 0.75V2.25ZM6.25 3.5C6.25 2.80964 6.80964 2.25 7.5 2.25V0.75C5.98122 0.75 4.75 1.98122 4.75 3.5H6.25ZM9.5 6.25H17.5V4.75H9.5V6.25ZM9.5 9.25H13.5V7.75H9.5V9.25Z" fill="#4B4EFC"/>
</svg>
