<svg width="170" height="30" viewBox="0 0 170 30" fill="none" xmlns="http://www.w3.org/2000/svg">
<g clip-path="url(#clip0_101_32912)">
<rect width="170" height="30" rx="4" fill="#FECACA"/>
<path d="M70.3117 10.497V20H68.6477V10.497H70.3117ZM68.9337 20V18.466H74.2767V20H68.9337ZM78.1549 20.169C77.5222 20.169 76.9589 20.026 76.4649 19.74C75.9796 19.4453 75.5982 19.0467 75.3209 18.544C75.0436 18.0327 74.9049 17.4477 74.9049 16.789C74.9049 16.1217 75.0392 15.5323 75.3079 15.021C75.5766 14.5097 75.9536 14.111 76.4389 13.825C76.9242 13.5303 77.4789 13.383 78.1029 13.383C78.7529 13.383 79.3119 13.5217 79.7799 13.799C80.2479 14.0677 80.6076 14.4447 80.8589 14.93C81.1189 15.4153 81.2489 15.996 81.2489 16.672V17.153L75.7369 17.166L75.7629 16.152H79.6759C79.6759 15.71 79.5329 15.3547 79.2469 15.086C78.9696 14.8173 78.5926 14.683 78.1159 14.683C77.7432 14.683 77.4269 14.761 77.1669 14.917C76.9156 15.073 76.7249 15.307 76.5949 15.619C76.4649 15.931 76.3999 16.3123 76.3999 16.763C76.3999 17.4563 76.5472 17.9807 76.8419 18.336C77.1452 18.6913 77.5916 18.869 78.1809 18.869C78.6142 18.869 78.9696 18.7867 79.2469 18.622C79.5329 18.4573 79.7192 18.2233 79.8059 17.92H81.2749C81.1362 18.622 80.7896 19.1723 80.2349 19.571C79.6889 19.9697 78.9956 20.169 78.1549 20.169ZM84.3657 20.169C83.6897 20.169 83.1524 19.987 82.7537 19.623C82.3637 19.2503 82.1687 18.765 82.1687 18.167C82.1687 17.5777 82.3724 17.1097 82.7797 16.763C83.1957 16.4077 83.7851 16.1997 84.5477 16.139L86.4717 15.983V15.84C86.4717 15.5453 86.4154 15.3113 86.3027 15.138C86.1987 14.956 86.0471 14.826 85.8477 14.748C85.6484 14.6613 85.4144 14.618 85.1457 14.618C84.6777 14.618 84.3181 14.7133 84.0667 14.904C83.8154 15.086 83.6897 15.346 83.6897 15.684H82.3377C82.3377 15.216 82.4547 14.813 82.6887 14.475C82.9314 14.1283 83.2694 13.8597 83.7027 13.669C84.1447 13.4783 84.6517 13.383 85.2237 13.383C85.8044 13.383 86.3027 13.487 86.7187 13.695C87.1347 13.8943 87.4554 14.1977 87.6807 14.605C87.9061 15.0037 88.0187 15.502 88.0187 16.1V20H86.6277L86.5107 19.051C86.3721 19.3803 86.1034 19.649 85.7047 19.857C85.3147 20.065 84.8684 20.169 84.3657 20.169ZM84.8727 18.973C85.3667 18.973 85.7567 18.8343 86.0427 18.557C86.3374 18.2797 86.4847 17.894 86.4847 17.4V17.062L85.1457 17.166C84.6517 17.2093 84.3007 17.3133 84.0927 17.478C83.8847 17.634 83.7807 17.842 83.7807 18.102C83.7807 18.388 83.8761 18.6047 84.0667 18.752C84.2574 18.8993 84.5261 18.973 84.8727 18.973ZM91.1429 20L88.5949 13.578H90.2849L91.4029 16.529C91.5416 16.9103 91.6586 17.2613 91.7539 17.582C91.8579 17.894 91.9316 18.1367 91.9749 18.31C92.0182 18.1107 92.0919 17.855 92.1959 17.543C92.3086 17.2223 92.4342 16.8843 92.5729 16.529L93.7429 13.578H95.3809L92.7029 20H91.1429ZM98.8609 20.169C98.2283 20.169 97.6649 20.026 97.1709 19.74C96.6856 19.4453 96.3043 19.0467 96.0269 18.544C95.7496 18.0327 95.6109 17.4477 95.6109 16.789C95.6109 16.1217 95.7453 15.5323 96.0139 15.021C96.2826 14.5097 96.6596 14.111 97.1449 13.825C97.6303 13.5303 98.1849 13.383 98.8089 13.383C99.4589 13.383 100.018 13.5217 100.486 13.799C100.954 14.0677 101.314 14.4447 101.565 14.93C101.825 15.4153 101.955 15.996 101.955 16.672V17.153L96.4429 17.166L96.4689 16.152H100.382C100.382 15.71 100.239 15.3547 99.9529 15.086C99.6756 14.8173 99.2986 14.683 98.8219 14.683C98.4493 14.683 98.1329 14.761 97.8729 14.917C97.6216 15.073 97.4309 15.307 97.3009 15.619C97.1709 15.931 97.1059 16.3123 97.1059 16.763C97.1059 17.4563 97.2533 17.9807 97.5479 18.336C97.8513 18.6913 98.2976 18.869 98.8869 18.869C99.3203 18.869 99.6756 18.7867 99.9529 18.622C100.239 18.4573 100.425 18.2233 100.512 17.92H101.981C101.842 18.622 101.496 19.1723 100.941 19.571C100.395 19.9697 99.7016 20.169 98.8609 20.169Z" fill="#DC2626"/>
</g>
<defs>
<clipPath id="clip0_101_32912">
<rect width="170" height="30" rx="4" fill="white"/>
</clipPath>
</defs>
</svg>
