<svg width="20" height="20" viewBox="0 0 20 20" fill="none" xmlns="http://www.w3.org/2000/svg">
<path d="M13.7579 11.6668C13.5766 11.6668 13.3994 11.613 13.2487 11.5122C13.098 11.4115 12.9805 11.2684 12.9112 11.1009C12.8418 10.9334 12.8237 10.7491 12.859 10.5713C12.8944 10.3936 12.9816 10.2302 13.1098 10.102L16.6674 6.54537C17.0926 6.11889 17.3314 5.54119 17.3314 4.93892C17.3314 4.33664 17.0926 3.75894 16.6674 3.33246C16.2344 2.91999 15.6594 2.68992 15.0614 2.68992C14.4634 2.68992 13.8883 2.91999 13.4554 3.33246L9.89687 6.89004C9.81231 6.97759 9.71116 7.04743 9.59933 7.09547C9.48749 7.14351 9.36721 7.1688 9.24549 7.16985C9.12378 7.17091 9.00307 7.14772 8.89042 7.10163C8.77776 7.05554 8.67541 6.98747 8.58935 6.9014C8.50328 6.81533 8.43521 6.71299 8.38912 6.60033C8.34303 6.48768 8.31984 6.36697 8.32089 6.24526C8.32195 6.12354 8.34724 6.00326 8.39528 5.89142C8.44332 5.77958 8.51316 5.67843 8.60071 5.59387L12.1583 2.03629C12.9281 1.26647 13.9722 0.833984 15.0609 0.833984C16.1496 0.833984 17.1937 1.26647 17.9635 2.03629C18.7334 2.80611 19.1658 3.85022 19.1658 4.93892C19.1658 6.02761 18.7334 7.07172 17.9635 7.84154L14.4069 11.3982C14.3218 11.4836 14.2206 11.5512 14.1092 11.5973C13.9978 11.6434 13.8784 11.667 13.7579 11.6668ZM4.93771 19.1651C4.12568 19.1658 3.3317 18.9256 2.65629 18.4748C1.98089 18.024 1.45443 17.3829 1.14358 16.6328C0.832736 15.8826 0.751477 15.0571 0.910095 14.2607C1.06871 13.4643 1.46007 12.7329 2.03462 12.159L5.59312 8.60237C5.67768 8.51482 5.77883 8.44499 5.89067 8.39695C6.00251 8.34891 6.12279 8.32362 6.24451 8.32256C6.36622 8.3215 6.48693 8.3447 6.59958 8.39079C6.71224 8.43688 6.81459 8.50494 6.90065 8.59101C6.98672 8.67708 7.05479 8.77943 7.10088 8.89208C7.14697 9.00474 7.17016 9.12544 7.1691 9.24716C7.16805 9.36887 7.14276 9.48916 7.09472 9.601C7.04668 9.71283 6.97684 9.81398 6.88929 9.89854L3.33171 13.4552C2.90645 13.8817 2.66765 14.4594 2.66765 15.0617C2.66765 15.6639 2.90645 16.2416 3.33171 16.6681C3.76467 17.0806 4.33973 17.3107 4.93771 17.3107C5.53569 17.3107 6.11075 17.0806 6.54371 16.6681L10.1022 13.1105C10.2751 12.9436 10.5066 12.8512 10.747 12.8533C10.9873 12.8553 11.2173 12.9518 11.3872 13.1217C11.5572 13.2917 11.6536 13.5216 11.6557 13.7619C11.6577 14.0023 11.5654 14.2338 11.3984 14.4067L7.84079 17.9643C7.45986 18.3458 7.00729 18.6483 6.50908 18.8544C6.01088 19.0605 5.47685 19.1661 4.93771 19.1651Z" fill="#4B4EFC"/>
</svg>
