<svg width="44" height="44" viewBox="0 0 44 44" fill="none" xmlns="http://www.w3.org/2000/svg">
<path fill-rule="evenodd" clip-rule="evenodd" d="M38.0351 0.4375H5.96487C2.92779 0.4375 0.4375 2.92806 0.4375 5.96478V38.0351C0.4375 41.0718 2.92779 43.5625 5.96487 43.5625H38.035C41.0725 43.5625 43.5625 41.0719 43.5625 38.0352V5.96478C43.5625 2.92806 41.0725 0.4375 38.0351 0.4375ZM15.2617 21.2644V34.5781H9.42188V17.7773H15.2617V21.2644ZM12.3301 15.2732C10.7055 15.2732 9.3872 13.9559 9.3872 12.3303C9.3872 10.7044 10.7055 9.38872 12.3301 9.38872C13.957 9.38872 15.274 10.7045 15.274 12.3303C15.274 13.9559 13.9571 15.2732 12.3301 15.2732ZM34.5781 25.4141V34.5781H29.5469V26.4173C29.5469 24.4632 29.3353 21.95 26.6571 21.95C23.9383 21.95 23.5273 24.0774 23.5273 26.2765V34.5781H18.6758V17.7773H23.3477V20.0234H23.3974C24.0943 18.7656 25.8014 17.7755 28.3434 17.7755C32.6264 17.7755 34.0819 19.8009 34.4802 22.9696C34.5747 23.7132 34.6112 24.5156 34.6112 25.4141H34.5781Z" fill="#1A1A1A"/>
</svg>
