<svg width="82" height="26" viewBox="0 0 82 26" fill="none" xmlns="http://www.w3.org/2000/svg">
<rect width="82" height="26" rx="4" fill="#4B4EFC"/>
<path d="M11.2375 17H10.2775V9.77H11.2375L13.7275 15.85L16.2175 9.77H17.1975V17H16.2375V14.14C16.2375 13.8 16.2375 13.51 16.2375 13.27C16.2375 13.03 16.2408 12.8233 16.2475 12.65C16.2542 12.4767 16.2608 12.3233 16.2675 12.19C16.2742 12.05 16.2842 11.9167 16.2975 11.79L14.1875 17H13.2675L11.1675 11.81C11.1942 11.9833 11.2108 12.25 11.2175 12.61C11.2308 12.97 11.2375 13.4033 11.2375 13.91V17ZM20.151 17.12C19.631 17.12 19.221 16.9833 18.921 16.71C18.6277 16.4367 18.481 16.08 18.481 15.64C18.481 15.1933 18.641 14.8367 18.961 14.57C19.281 14.2967 19.7277 14.1367 20.301 14.09L21.841 13.97V13.83C21.841 13.5567 21.791 13.34 21.691 13.18C21.591 13.0133 21.4543 12.8967 21.281 12.83C21.1077 12.7567 20.911 12.72 20.691 12.72C20.2977 12.72 19.991 12.8033 19.771 12.97C19.5577 13.13 19.451 13.36 19.451 13.66H18.631C18.631 13.32 18.7177 13.0233 18.891 12.77C19.0643 12.5167 19.3077 12.32 19.621 12.18C19.941 12.04 20.311 11.97 20.731 11.97C21.1377 11.97 21.491 12.0433 21.791 12.19C22.0977 12.33 22.3343 12.5467 22.501 12.84C22.6743 13.1267 22.761 13.49 22.761 13.93V17H21.961L21.861 16.21C21.7343 16.49 21.5143 16.7133 21.201 16.88C20.8943 17.04 20.5443 17.12 20.151 17.12ZM20.421 16.39C20.8677 16.39 21.2177 16.2567 21.471 15.99C21.7243 15.7167 21.851 15.35 21.851 14.89V14.63L20.601 14.73C20.1877 14.77 19.8877 14.8667 19.701 15.02C19.521 15.1733 19.431 15.37 19.431 15.61C19.431 15.87 19.5177 16.0667 19.691 16.2C19.871 16.3267 20.1143 16.39 20.421 16.39ZM25.0028 17H24.0628V12.11H24.9128L25.0128 12.86C25.1661 12.58 25.3861 12.3633 25.6728 12.21C25.9661 12.05 26.2861 11.97 26.6328 11.97C27.2728 11.97 27.7461 12.1533 28.0528 12.52C28.3595 12.8867 28.5128 13.3833 28.5128 14.01V17H27.5728V14.22C27.5728 13.7267 27.4661 13.3733 27.2528 13.16C27.0395 12.94 26.7528 12.83 26.3928 12.83C25.9528 12.83 25.6095 12.9733 25.3628 13.26C25.1228 13.5467 25.0028 13.93 25.0028 14.41V17ZM31.2448 17.12C30.7248 17.12 30.3148 16.9833 30.0148 16.71C29.7214 16.4367 29.5748 16.08 29.5748 15.64C29.5748 15.1933 29.7348 14.8367 30.0548 14.57C30.3748 14.2967 30.8214 14.1367 31.3948 14.09L32.9348 13.97V13.83C32.9348 13.5567 32.8848 13.34 32.7848 13.18C32.6848 13.0133 32.5481 12.8967 32.3748 12.83C32.2014 12.7567 32.0048 12.72 31.7848 12.72C31.3914 12.72 31.0848 12.8033 30.8648 12.97C30.6514 13.13 30.5448 13.36 30.5448 13.66H29.7248C29.7248 13.32 29.8114 13.0233 29.9848 12.77C30.1581 12.5167 30.4014 12.32 30.7148 12.18C31.0348 12.04 31.4048 11.97 31.8248 11.97C32.2314 11.97 32.5848 12.0433 32.8848 12.19C33.1914 12.33 33.4281 12.5467 33.5948 12.84C33.7681 13.1267 33.8548 13.49 33.8548 13.93V17H33.0548L32.9548 16.21C32.8281 16.49 32.6081 16.7133 32.2948 16.88C31.9881 17.04 31.6381 17.12 31.2448 17.12ZM31.5148 16.39C31.9614 16.39 32.3114 16.2567 32.5648 15.99C32.8181 15.7167 32.9448 15.35 32.9448 14.89V14.63L31.6948 14.73C31.2814 14.77 30.9814 14.8667 30.7948 15.02C30.6148 15.1733 30.5248 15.37 30.5248 15.61C30.5248 15.87 30.6114 16.0667 30.7848 16.2C30.9648 16.3267 31.2081 16.39 31.5148 16.39ZM34.8466 14.43C34.8466 13.97 34.9399 13.5567 35.1266 13.19C35.3132 12.8167 35.5799 12.52 35.9266 12.3C36.2732 12.08 36.6832 11.97 37.1566 11.97C37.5966 11.97 37.9732 12.0767 38.2866 12.29C38.5999 12.4967 38.8232 12.7867 38.9566 13.16L38.8366 13.29L38.9366 12.11H39.7766V16.8C39.7766 17.3133 39.6766 17.7567 39.4766 18.13C39.2766 18.51 38.9932 18.8033 38.6266 19.01C38.2599 19.2167 37.8266 19.32 37.3266 19.32C36.6599 19.32 36.1132 19.1433 35.6866 18.79C35.2599 18.4367 34.9999 17.95 34.9066 17.33H35.8466C35.9066 17.69 36.0666 17.97 36.3266 18.17C36.5866 18.37 36.9199 18.47 37.3266 18.47C37.7866 18.47 38.1532 18.33 38.4266 18.05C38.7066 17.7767 38.8466 17.4067 38.8466 16.94V15.56L38.9666 15.69C38.8399 16.0567 38.6099 16.3467 38.2766 16.56C37.9432 16.7667 37.5566 16.87 37.1166 16.87C36.6499 16.87 36.2466 16.7633 35.9066 16.55C35.5666 16.33 35.3032 16.0367 35.1166 15.67C34.9366 15.3033 34.8466 14.89 34.8466 14.43ZM35.7866 14.41C35.7866 14.7167 35.8466 14.9933 35.9666 15.24C36.0932 15.4867 36.2666 15.6833 36.4866 15.83C36.7132 15.9767 36.9766 16.05 37.2766 16.05C37.5966 16.05 37.8699 15.98 38.0966 15.84C38.3232 15.7 38.4966 15.5067 38.6166 15.26C38.7432 15.0133 38.8066 14.73 38.8066 14.41C38.8066 14.09 38.7466 13.81 38.6266 13.57C38.5066 13.33 38.3332 13.14 38.1066 13C37.8799 12.86 37.6066 12.79 37.2866 12.79C36.9732 12.79 36.7032 12.8633 36.4766 13.01C36.2566 13.1567 36.0866 13.3533 35.9666 13.6C35.8466 13.84 35.7866 14.11 35.7866 14.41ZM43.2431 17.12C42.7698 17.12 42.3498 17.0133 41.9831 16.8C41.6165 16.58 41.3298 16.28 41.1231 15.9C40.9165 15.5133 40.8131 15.0667 40.8131 14.56C40.8131 14.0467 40.9131 13.5967 41.1131 13.21C41.3198 12.8233 41.5998 12.52 41.9531 12.3C42.3131 12.08 42.7298 11.97 43.2031 11.97C43.6698 11.97 44.0731 12.07 44.4131 12.27C44.7598 12.47 45.0265 12.75 45.2131 13.11C45.4065 13.47 45.5031 13.8933 45.5031 14.38V14.73L41.3131 14.74L41.3331 14.11H44.5631C44.5631 13.7033 44.4398 13.3767 44.1931 13.13C43.9465 12.8833 43.6165 12.76 43.2031 12.76C42.8898 12.76 42.6198 12.83 42.3931 12.97C42.1731 13.1033 42.0031 13.3033 41.8831 13.57C41.7698 13.83 41.7131 14.1433 41.7131 14.51C41.7131 15.0967 41.8465 15.55 42.1131 15.87C42.3798 16.1833 42.7631 16.34 43.2631 16.34C43.6298 16.34 43.9298 16.2667 44.1631 16.12C44.3965 15.9733 44.5531 15.76 44.6331 15.48H45.5131C45.3931 16 45.1365 16.4033 44.7431 16.69C44.3498 16.9767 43.8498 17.12 43.2431 17.12ZM49.2874 19.19V12.11H50.1374L50.2074 12.99C50.3674 12.65 50.6041 12.3967 50.9174 12.23C51.2374 12.0567 51.5908 11.97 51.9774 11.97C52.4441 11.97 52.8474 12.08 53.1874 12.3C53.5274 12.5133 53.7874 12.8133 53.9674 13.2C54.1541 13.58 54.2474 14.02 54.2474 14.52C54.2474 15.02 54.1574 15.4667 53.9774 15.86C53.8041 16.2533 53.5474 16.5633 53.2074 16.79C52.8741 17.0167 52.4641 17.13 51.9774 17.13C51.5841 17.13 51.2341 17.05 50.9274 16.89C50.6208 16.73 50.3874 16.5 50.2274 16.2V19.19H49.2874ZM50.2374 14.56C50.2374 14.8867 50.2974 15.1833 50.4174 15.45C50.5441 15.71 50.7208 15.9133 50.9474 16.06C51.1808 16.2067 51.4574 16.28 51.7774 16.28C52.0974 16.28 52.3708 16.2067 52.5974 16.06C52.8241 15.9067 52.9974 15.7 53.1174 15.44C53.2441 15.18 53.3074 14.8867 53.3074 14.56C53.3074 14.22 53.2441 13.92 53.1174 13.66C52.9974 13.4 52.8241 13.1967 52.5974 13.05C52.3708 12.9033 52.0974 12.83 51.7774 12.83C51.4574 12.83 51.1808 12.9033 50.9474 13.05C50.7208 13.1967 50.5441 13.4 50.4174 13.66C50.2974 13.92 50.2374 14.22 50.2374 14.56ZM54.9635 14.55C54.9635 14.05 55.0735 13.6067 55.2935 13.22C55.5135 12.8333 55.8135 12.53 56.1935 12.31C56.5802 12.09 57.0202 11.98 57.5135 11.98C58.0068 11.98 58.4435 12.09 58.8235 12.31C59.2035 12.53 59.5035 12.8333 59.7235 13.22C59.9435 13.6067 60.0535 14.05 60.0535 14.55C60.0535 15.05 59.9435 15.4933 59.7235 15.88C59.5035 16.2667 59.2035 16.57 58.8235 16.79C58.4435 17.01 58.0068 17.12 57.5135 17.12C57.0202 17.12 56.5802 17.01 56.1935 16.79C55.8135 16.57 55.5135 16.2667 55.2935 15.88C55.0735 15.4933 54.9635 15.05 54.9635 14.55ZM55.9135 14.55C55.9135 14.89 55.9802 15.19 56.1135 15.45C56.2535 15.71 56.4435 15.9133 56.6835 16.06C56.9235 16.2067 57.2002 16.28 57.5135 16.28C57.8268 16.28 58.1035 16.2067 58.3435 16.06C58.5835 15.9133 58.7702 15.71 58.9035 15.45C59.0435 15.19 59.1135 14.89 59.1135 14.55C59.1135 14.2033 59.0435 13.9033 58.9035 13.65C58.7702 13.39 58.5835 13.1867 58.3435 13.04C58.1035 12.8933 57.8268 12.82 57.5135 12.82C57.2002 12.82 56.9235 12.8933 56.6835 13.04C56.4435 13.1867 56.2535 13.39 56.1135 13.65C55.9802 13.9033 55.9135 14.2033 55.9135 14.55ZM60.6941 15.58H61.5941C61.5941 15.8267 61.6841 16.0233 61.8641 16.17C62.0441 16.31 62.2874 16.38 62.5941 16.38C62.9274 16.38 63.1841 16.3167 63.3641 16.19C63.5441 16.0567 63.6341 15.88 63.6341 15.66C63.6341 15.5 63.5841 15.3667 63.4841 15.26C63.3907 15.1533 63.2174 15.0667 62.9641 15L62.1041 14.8C61.6707 14.6933 61.3474 14.53 61.1341 14.31C60.9274 14.09 60.8241 13.8 60.8241 13.44C60.8241 13.14 60.9007 12.88 61.0541 12.66C61.2141 12.44 61.4307 12.27 61.7041 12.15C61.9841 12.03 62.3041 11.97 62.6641 11.97C63.0241 11.97 63.3341 12.0333 63.5941 12.16C63.8607 12.2867 64.0674 12.4633 64.2141 12.69C64.3674 12.9167 64.4474 13.1867 64.4541 13.5H63.5541C63.5474 13.2467 63.4641 13.05 63.3041 12.91C63.1441 12.77 62.9207 12.7 62.6341 12.7C62.3407 12.7 62.1141 12.7633 61.9541 12.89C61.7941 13.0167 61.7141 13.19 61.7141 13.41C61.7141 13.7367 61.9541 13.96 62.4341 14.08L63.2941 14.29C63.7074 14.3833 64.0174 14.5367 64.2241 14.75C64.4307 14.9567 64.5341 15.24 64.5341 15.6C64.5341 15.9067 64.4507 16.1767 64.2841 16.41C64.1174 16.6367 63.8874 16.8133 63.5941 16.94C63.3074 17.06 62.9674 17.12 62.5741 17.12C62.0007 17.12 61.5441 16.98 61.2041 16.7C60.8641 16.42 60.6941 16.0467 60.6941 15.58ZM65.0565 12.11H67.9165V12.9H65.0565V12.11ZM66.9565 17H66.0165V10.58H66.9565V17ZM68.3601 15.58H69.2601C69.2601 15.8267 69.3501 16.0233 69.5301 16.17C69.7101 16.31 69.9534 16.38 70.2601 16.38C70.5934 16.38 70.8501 16.3167 71.0301 16.19C71.2101 16.0567 71.3001 15.88 71.3001 15.66C71.3001 15.5 71.2501 15.3667 71.1501 15.26C71.0567 15.1533 70.8834 15.0667 70.6301 15L69.7701 14.8C69.3367 14.6933 69.0134 14.53 68.8001 14.31C68.5934 14.09 68.4901 13.8 68.4901 13.44C68.4901 13.14 68.5667 12.88 68.7201 12.66C68.8801 12.44 69.0967 12.27 69.3701 12.15C69.6501 12.03 69.9701 11.97 70.3301 11.97C70.6901 11.97 71.0001 12.0333 71.2601 12.16C71.5267 12.2867 71.7334 12.4633 71.8801 12.69C72.0334 12.9167 72.1134 13.1867 72.1201 13.5H71.2201C71.2134 13.2467 71.1301 13.05 70.9701 12.91C70.8101 12.77 70.5867 12.7 70.3001 12.7C70.0067 12.7 69.7801 12.7633 69.6201 12.89C69.4601 13.0167 69.3801 13.19 69.3801 13.41C69.3801 13.7367 69.6201 13.96 70.1001 14.08L70.9601 14.29C71.3734 14.3833 71.6834 14.5367 71.8901 14.75C72.0967 14.9567 72.2001 15.24 72.2001 15.6C72.2001 15.9067 72.1167 16.1767 71.9501 16.41C71.7834 16.6367 71.5534 16.8133 71.2601 16.94C70.9734 17.06 70.6334 17.12 70.2401 17.12C69.6667 17.12 69.2101 16.98 68.8701 16.7C68.5301 16.42 68.3601 16.0467 68.3601 15.58Z" fill="white"/>
</svg>
