<svg width="25" height="27" viewBox="0 0 25 27" fill="none" xmlns="http://www.w3.org/2000/svg">
<mask id="mask0_101_35697" style="mask-type:alpha" maskUnits="userSpaceOnUse" x="0" y="0" width="25" height="27">
<path d="M9.9813 0.625921C11.4268 -0.20864 13.2077 -0.208641 14.6532 0.62592L22.2986 5.03995C23.7441 5.87451 24.6345 7.41684 24.6345 9.08597V17.914C24.6345 19.5832 23.7441 21.1255 22.2986 21.96L14.6532 26.3741C13.2077 27.2086 11.4268 27.2086 9.9813 26.3741L2.33597 21.96C0.890468 21.1255 0 19.5832 0 17.914V9.08597C0 7.41685 0.890466 5.87451 2.33597 5.03995L9.9813 0.625921Z" fill="#C4C4C4"/>
</mask>
<g mask="url(#mask0_101_35697)">
<rect width="15.5902" height="15.5902" transform="matrix(0.866025 0.5 -0.866025 0.5 12.3262 -3.80273)" fill="#A3ACBA"/>
<rect width="14.3451" height="14.3451" transform="matrix(0.866025 0.5 -2.20305e-08 1 -0.105469 6.9541)" fill="#A3ACBA"/>
<rect width="14.3451" height="14.3451" transform="matrix(0.866025 -0.5 2.20305e-08 1 12.3164 14.1279)" fill="#A3ACBA"/>
</g>
</svg>
