<svg width="25" height="24" viewBox="0 0 25 24" fill="none" xmlns="http://www.w3.org/2000/svg">
<g clip-path="url(#clip0_1160_24252)">
<path d="M12.5 16.875C14.5711 16.875 16.25 15.1961 16.25 13.125C16.25 11.0539 14.5711 9.375 12.5 9.375C10.4289 9.375 8.75 11.0539 8.75 13.125C8.75 15.1961 10.4289 16.875 12.5 16.875Z" stroke="#9CA2AA" stroke-width="1.5" stroke-linecap="round" stroke-linejoin="round"/>
<path d="M18.875 10.875C19.7485 10.8735 20.6103 11.0762 21.3916 11.4669C22.1729 11.8575 22.8521 12.4253 23.375 13.125" stroke="#9CA2AA" stroke-width="1.5" stroke-linecap="round" stroke-linejoin="round"/>
<path d="M1.625 13.125C2.14794 12.4253 2.82714 11.8575 3.60843 11.4669C4.38972 11.0762 5.25149 10.8735 6.125 10.875" stroke="#9CA2AA" stroke-width="1.5" stroke-linecap="round" stroke-linejoin="round"/>
<path d="M7.09961 20.2496C7.59351 19.2381 8.36156 18.3856 9.31628 17.7894C10.271 17.1931 11.374 16.877 12.4996 16.877C13.6252 16.877 14.7282 17.1931 15.6829 17.7894C16.6377 18.3856 17.4057 19.2381 17.8996 20.2496" stroke="#9CA2AA" stroke-width="1.5" stroke-linecap="round" stroke-linejoin="round"/>
<path d="M6.12414 10.875C5.55474 10.8756 4.99694 10.7141 4.5159 10.4094C4.03487 10.1048 3.65047 9.6695 3.40763 9.15449C3.16478 8.63947 3.07352 8.06598 3.1445 7.50102C3.21548 6.93607 3.44577 6.40298 3.80847 5.96404C4.17117 5.52511 4.65129 5.19845 5.19274 5.02225C5.73419 4.84605 6.31461 4.82758 6.86616 4.96899C7.41772 5.11041 7.91765 5.40587 8.30752 5.82085C8.6974 6.23583 8.96113 6.7532 9.06789 7.3125" stroke="#9CA2AA" stroke-width="1.5" stroke-linecap="round" stroke-linejoin="round"/>
<path d="M15.9316 7.3125C16.0384 6.7532 16.3021 6.23583 16.692 5.82085C17.0819 5.40587 17.5818 5.11041 18.1334 4.96899C18.6849 4.82758 19.2653 4.84605 19.8068 5.02225C20.3482 5.19845 20.8284 5.52511 21.1911 5.96404C21.5538 6.40298 21.7841 6.93607 21.855 7.50102C21.926 8.06598 21.8347 8.63947 21.5919 9.15449C21.3491 9.6695 20.9647 10.1048 20.4836 10.4094C20.0026 10.7141 19.4448 10.8756 18.8754 10.875" stroke="#9CA2AA" stroke-width="1.5" stroke-linecap="round" stroke-linejoin="round"/>
</g>
<defs>
<clipPath id="clip0_1160_24252">
<rect width="24" height="24" fill="white" transform="translate(0.5)"/>
</clipPath>
</defs>
</svg>
