<svg width="24" height="24" viewBox="0 0 24 24" fill="none" xmlns="http://www.w3.org/2000/svg">
<path d="M13.8 9H10.2C9.53723 9 9 9.53723 9 10.2V13.8C9 14.4628 9.53723 15 10.2 15H13.8C14.4628 15 15 14.4628 15 13.8V10.2C15 9.53723 14.4628 9 13.8 9Z" fill="black"/>
<path d="M7.2 12.8998H4.8V11.0998H7.2V10.1998C7.2 9.49396 7.44558 8.84484 7.85503 8.33188L1.8 4.7998C0 7.1998 0 10.7998 0 11.9998H0.000234375C0.000234375 13.1998 0 16.7998 1.8 19.1998L7.85503 15.6677C7.44558 15.1548 7.2 14.5056 7.2 13.7998V12.8998Z" fill="black"/>
<path d="M23.9998 11.9998C23.9998 10.7998 24.0001 7.1998 22.2001 4.7998L16.145 8.33188C16.5545 8.84484 16.8001 9.49396 16.8001 10.1998V11.0998H19.2001V12.8998H16.8001V13.7998C16.8001 14.5056 16.5545 15.1548 16.145 15.6677L22.2001 19.1998C24.0001 16.7998 24.0001 13.1998 24.0001 11.9998H23.9998Z" fill="black"/>
</svg>
