<svg width="62" height="34" viewBox="0 0 62 34" fill="none" xmlns="http://www.w3.org/2000/svg">
<rect width="62" height="34" rx="4" fill="#EAEAEA"/>
<path fill-rule="evenodd" clip-rule="evenodd" d="M24.75 17C24.75 17.6904 25.3096 18.25 26 18.25C26.6904 18.25 27.25 17.6904 27.25 17C27.25 16.3096 26.6904 15.75 26 15.75C25.3096 15.75 24.75 16.3096 24.75 17ZM31 18.25C30.3096 18.25 29.75 17.6904 29.75 17C29.75 16.3096 30.3096 15.75 31 15.75C31.6904 15.75 32.25 16.3096 32.25 17C32.25 17.6904 31.6904 18.25 31 18.25ZM36 18.25C35.3096 18.25 34.75 17.6904 34.75 17C34.75 16.3096 35.3096 15.75 36 15.75C36.6904 15.75 37.25 16.3096 37.25 17C37.25 17.6904 36.6904 18.25 36 18.25Z" fill="#3E3E3E"/>
</svg>
