<svg width="18" height="22" viewBox="0 0 18 22" fill="none" xmlns="http://www.w3.org/2000/svg">
<path d="M16.9487 4.84605L16.2372 5.08322L16.2372 5.08322L16.9487 4.84605ZM16.2885 5.23717C16.4195 5.63013 16.8442 5.8425 17.2372 5.71151C17.6301 5.58052 17.8425 5.15578 17.7115 4.76283L16.2885 5.23717ZM13.2372 0.288488C12.8442 0.157502 12.4195 0.369871 12.2885 0.762829C12.1575 1.15579 12.3699 1.58053 12.7628 1.71151L13.2372 0.288488ZM13.1539 1.05132L12.9168 1.76283V1.76283L13.1539 1.05132ZM1.45549 13.88L0.883926 13.3944H0.883926L1.45549 13.88ZM2.33476 11.8385L1.58953 11.7541L2.33476 11.8385ZM15.6652 11.8385L16.4105 11.7541L15.6652 11.8385ZM16.5445 13.88L17.1161 13.3944L16.5445 13.88ZM15.3204 8.79403L14.5751 8.87846V8.87846L15.3204 8.79403ZM2.67964 8.79403L3.42487 8.87846L2.67964 8.79403ZM12.7023 19.2632C12.8477 18.8753 12.6511 18.4431 12.2632 18.2977C11.8753 18.1523 11.4431 18.3489 11.2977 18.7368L12.7023 19.2632ZM6.7023 18.7368C6.55694 18.3489 6.12467 18.1523 5.7368 18.2977C5.34893 18.4431 5.15234 18.8753 5.2977 19.2632L6.7023 18.7368ZM1.05132 4.84605L1.76283 5.08322L1.76283 5.08322L1.05132 4.84605ZM0.288488 4.76283C0.157502 5.15579 0.369871 5.58053 0.762829 5.71151C1.15579 5.8425 1.58053 5.63013 1.71151 5.23717L0.288488 4.76283ZM5.23717 1.71151C5.63013 1.58053 5.8425 1.15579 5.71151 0.762829C5.58053 0.369872 5.15579 0.157502 4.76283 0.288487L5.23717 1.71151ZM4.84605 1.05132L4.60888 0.339804L4.60888 0.339804L4.84605 1.05132ZM16.2372 5.08322L16.2885 5.23717L17.7115 4.76283L17.6602 4.60888L16.2372 5.08322ZM12.7628 1.71151L12.9168 1.76283L13.3911 0.339804L13.2372 0.288488L12.7628 1.71151ZM17.6602 4.60888C16.9883 2.5933 15.4067 1.01167 13.3911 0.339804L12.9168 1.76283C14.4845 2.28539 15.7146 3.51554 16.2372 5.08322L17.6602 4.60888ZM15.1699 16.25H2.83014V17.75H15.1699V16.25ZM14.5751 8.87846L14.92 11.9229L16.4105 11.7541L16.0656 8.70961L14.5751 8.87846ZM3.07999 11.9229L3.42487 8.87846L1.9344 8.70961L1.58953 11.7541L3.07999 11.9229ZM2.02706 14.3657C2.61173 13.6775 2.97775 12.8255 3.07999 11.9229L1.58953 11.7541C1.52038 12.3645 1.2732 12.9363 0.883926 13.3944L2.02706 14.3657ZM14.92 11.9229C15.0223 12.8255 15.3883 13.6775 15.9729 14.3657L17.1161 13.3944C16.7268 12.9363 16.4796 12.3645 16.4105 11.7541L14.92 11.9229ZM2.83014 16.25C1.94335 16.25 1.37926 15.1281 2.02706 14.3657L0.883926 13.3944C-0.535086 15.0647 0.57828 17.75 2.83014 17.75V16.25ZM15.1699 17.75C17.4217 17.75 18.5351 15.0647 17.1161 13.3944L15.9729 14.3657C16.6207 15.1281 16.0567 16.25 15.1699 16.25V17.75ZM16.0656 8.70961C15.6504 5.04473 12.6279 2.25 9 2.25V3.75C11.8302 3.75 14.2419 5.93698 14.5751 8.87846L16.0656 8.70961ZM3.42487 8.87846C3.75808 5.93698 6.16977 3.75 9 3.75V2.25C5.37212 2.25 2.34956 5.04473 1.9344 8.70961L3.42487 8.87846ZM11.2977 18.7368C10.975 19.5979 10.0846 20.25 9 20.25V21.75C10.6855 21.75 12.1516 20.7325 12.7023 19.2632L11.2977 18.7368ZM9 20.25C7.91542 20.25 7.02502 19.5979 6.7023 18.7368L5.2977 19.2632C5.84835 20.7325 7.31452 21.75 9 21.75V20.25ZM0.339804 4.60888L0.288488 4.76283L1.71151 5.23717L1.76283 5.08322L0.339804 4.60888ZM4.76283 0.288487L4.60888 0.339804L5.08322 1.76283L5.23717 1.71151L4.76283 0.288487ZM1.76283 5.08322C2.28539 3.51555 3.51554 2.28539 5.08322 1.76283L4.60888 0.339804C2.5933 1.01167 1.01167 2.5933 0.339804 4.60888L1.76283 5.08322Z" fill="#4B4EFC"/>
</svg>
