<svg width="20" height="20" viewBox="0 0 20 20" fill="none" xmlns="http://www.w3.org/2000/svg">
<path d="M14.6875 15.625C14.5217 15.625 14.3628 15.5592 14.2456 15.4419C14.1283 15.3247 14.0625 15.1658 14.0625 15V3.125H5.9375V14.375H7.8125C7.97826 14.375 8.13723 14.4408 8.25444 14.5581C8.37165 14.6753 8.4375 14.8342 8.4375 15C8.4375 15.1658 8.37165 15.3247 8.25444 15.4419C8.13723 15.5592 7.97826 15.625 7.8125 15.625H5.9375C5.60598 15.625 5.28804 15.4933 5.05362 15.2589C4.8192 15.0245 4.6875 14.7065 4.6875 14.375V3.125C4.6875 2.79348 4.8192 2.47554 5.05362 2.24112C5.28804 2.0067 5.60598 1.875 5.9375 1.875H14.6875C14.8533 1.875 15.0122 1.94085 15.1294 2.05806C15.2467 2.17527 15.3125 2.33424 15.3125 2.5V15C15.3125 15.1658 15.2467 15.3247 15.1294 15.4419C15.0122 15.5592 14.8533 15.625 14.6875 15.625Z" fill="#3E3E3E"/>
<path d="M8.4375 17.8577C8.10598 17.8577 7.78804 17.726 7.55362 17.4916C7.3192 17.2572 7.1875 16.9392 7.1875 16.6077V5.43769C7.188 5.18131 7.26712 4.93125 7.4142 4.72125C7.56128 4.51125 7.76923 4.35142 8.01 4.26331L14.4738 1.91269C14.5682 1.87832 14.6695 1.86723 14.7691 1.88035C14.8688 1.89348 14.9638 1.93044 15.0461 1.98809C15.1284 2.04574 15.1956 2.12239 15.2419 2.21154C15.2883 2.30068 15.3125 2.3997 15.3125 2.50019V15.0002C15.3124 15.1284 15.2729 15.2534 15.1993 15.3584C15.1258 15.4634 15.0217 15.5432 14.9012 15.5871L8.865 17.7821C8.728 17.832 8.58332 17.8576 8.4375 17.8577ZM14.0625 3.39269L8.4375 5.43769V16.6077L14.0625 14.5627V3.39269Z" fill="#3E3E3E"/>
<path d="M10.3125 11.25C10.6577 11.25 10.9375 10.9702 10.9375 10.625C10.9375 10.2798 10.6577 10 10.3125 10C9.96732 10 9.6875 10.2798 9.6875 10.625C9.6875 10.9702 9.96732 11.25 10.3125 11.25Z" fill="#3E3E3E"/>
</svg>
