<svg width="20" height="21" viewBox="0 0 20 21" fill="none" xmlns="http://www.w3.org/2000/svg">
<path d="M16 15.4234L14.661 14.1364C14.343 13.7907 13.9483 13.5244 13.5087 13.3591C13.069 13.1938 12.5967 13.134 12.1297 13.1846C11.6627 13.2352 11.2142 13.3947 10.8201 13.6504C10.4261 13.906 10.0975 14.2506 9.861 14.6564L5.94 20.8174H2C1.46957 20.8174 0.960859 20.6067 0.585786 20.2316C0.210714 19.8565 0 19.3478 0 18.8174V8.81738C0 8.28695 0.210714 7.77824 0.585786 7.40317C0.960859 7.0281 1.46957 6.81738 2 6.81738H14C14.5304 6.81738 15.0391 7.0281 15.4142 7.40317C15.7893 7.77824 16 8.28695 16 8.81738V15.4234ZM16 18.1754V18.8174C16 19.3478 15.7893 19.8565 15.4142 20.2316C15.0391 20.6067 14.5304 20.8174 14 20.8174H8.512L11.589 15.6634C11.6678 15.5281 11.7773 15.4131 11.9086 15.3279C12.0399 15.2426 12.1894 15.1894 12.3451 15.1724C12.5007 15.1555 12.6582 15.1754 12.8048 15.2304C12.9514 15.2855 13.083 15.3742 13.189 15.4894L16 18.1754ZM6 15.8174C6.79565 15.8174 7.55871 15.5013 8.12132 14.9387C8.68393 14.3761 9 13.613 9 12.8174C9 12.0217 8.68393 11.2587 8.12132 10.6961C7.55871 10.1335 6.79565 9.81738 6 9.81738C5.20435 9.81738 4.44129 10.1335 3.87868 10.6961C3.31607 11.2587 3 12.0217 3 12.8174C3 13.613 3.31607 14.3761 3.87868 14.9387C4.44129 15.5013 5.20435 15.8174 6 15.8174ZM4 5.81738V2.81738C4 2.28695 4.21071 1.77824 4.58579 1.40317C4.96086 1.0281 5.46957 0.817383 6 0.817383L18 0.817383C18.5304 0.817383 19.0391 1.0281 19.4142 1.40317C19.7893 1.77824 20 2.28695 20 2.81738V9.57738L18.661 8.13638C18.1685 7.60028 17.4978 7.26157 16.774 7.18338C16.408 6.37438 15.64 5.81738 14.75 5.81738H12.83C12.6234 5.23185 12.2403 4.72482 11.7334 4.36617C11.2265 4.00753 10.6209 3.81493 10 3.81493C9.37909 3.81493 8.77346 4.00753 8.2666 4.36617C7.75974 4.72482 7.3766 5.23185 7.17 5.81738H4ZM17 14.8174V9.32938C17.0694 9.37468 17.1329 9.42842 17.189 9.48938L20 12.4784V12.8174C20 13.3478 19.7893 13.8565 19.4142 14.2316C19.0391 14.6067 18.5304 14.8174 18 14.8174H17Z" fill="#4B4EFC"/>
</svg>
