<svg width="20" height="20" viewBox="0 0 20 20" fill="none" xmlns="http://www.w3.org/2000/svg">
<path d="M6.48521 13.7443L1 19.2295M13.8288 13.6056L15.517 11.9174C15.8992 11.5352 16.4176 11.3205 16.958 11.3205C18.7736 11.3205 19.6828 9.12545 18.399 7.84166L12.3878 1.83046C11.104 0.546669 8.90894 1.4559 8.90894 3.27145C8.90894 3.81193 8.69423 4.33027 8.31206 4.71244L6.62383 6.40067C6.24165 6.78285 5.72331 6.99755 5.18283 6.99755C3.36728 6.99755 2.45804 9.19263 3.74183 10.4764L9.75305 16.4876C11.0368 17.7714 13.2319 16.8622 13.2319 15.0466C13.2319 14.5062 13.4466 13.9878 13.8288 13.6056Z" stroke="#4B4EFC" stroke-width="1.5" stroke-linecap="round"/>
</svg>
