<svg width="59" height="30" viewBox="0 0 59 30" fill="none" xmlns="http://www.w3.org/2000/svg">
<rect y="0.25" width="59" height="29.5" rx="14.75" fill="#4B4EFC"/>
<path d="M9.57 19H8.31V11.69H9.58L13.38 17.44H13.01V11.69H14.27V19H13.01L9.2 13.26H9.57V19ZM17.9101 19.13C17.4235 19.13 16.9901 19.02 16.6101 18.8C16.2368 18.5733 15.9435 18.2667 15.7301 17.88C15.5168 17.4867 15.4101 17.0367 15.4101 16.53C15.4101 16.0167 15.5135 15.5633 15.7201 15.17C15.9268 14.7767 16.2168 14.47 16.5901 14.25C16.9635 14.0233 17.3901 13.91 17.8701 13.91C18.3701 13.91 18.8001 14.0167 19.1601 14.23C19.5201 14.4367 19.7968 14.7267 19.9901 15.1C20.1901 15.4733 20.2901 15.92 20.2901 16.44V16.81L16.0501 16.82L16.0701 16.04H19.0801C19.0801 15.7 18.9701 15.4267 18.7501 15.22C18.5368 15.0133 18.2468 14.91 17.8801 14.91C17.5935 14.91 17.3501 14.97 17.1501 15.09C16.9568 15.21 16.8101 15.39 16.7101 15.63C16.6101 15.87 16.5601 16.1633 16.5601 16.51C16.5601 17.0433 16.6735 17.4467 16.9001 17.72C17.1335 17.9933 17.4768 18.13 17.9301 18.13C18.2635 18.13 18.5368 18.0667 18.7501 17.94C18.9701 17.8133 19.1135 17.6333 19.1801 17.4H20.3101C20.2035 17.94 19.9368 18.3633 19.5101 18.67C19.0901 18.9767 18.5568 19.13 17.9101 19.13ZM22.1435 19L20.5435 14.06H21.8135L22.4635 16.18C22.5168 16.3733 22.5701 16.5767 22.6235 16.79C22.6768 17.0033 22.7235 17.2267 22.7635 17.46C22.7968 17.3 22.8268 17.1533 22.8535 17.02C22.8868 16.8867 22.9235 16.7567 22.9635 16.63C23.0035 16.4967 23.0501 16.3467 23.1035 16.18L23.7835 14.06H25.0235L25.6835 16.18C25.6968 16.2267 25.7168 16.3067 25.7435 16.42C25.7768 16.5267 25.8101 16.6433 25.8435 16.77C25.8768 16.8967 25.9068 17.0233 25.9335 17.15C25.9668 17.27 25.9901 17.3733 26.0035 17.46C26.0301 17.3333 26.0635 17.19 26.1035 17.03C26.1435 16.87 26.1835 16.7167 26.2235 16.57C26.2701 16.4167 26.3068 16.2867 26.3335 16.18L26.9935 14.06H28.2835L26.5735 19H25.4335L24.7535 16.86C24.6535 16.5333 24.5735 16.2567 24.5135 16.03C24.4535 15.7967 24.4135 15.6167 24.3935 15.49C24.3735 15.61 24.3368 15.77 24.2835 15.97C24.2301 16.17 24.1401 16.4733 24.0135 16.88L23.3335 19H22.1435ZM33.1615 11.69V19H31.8815V11.69H33.1615ZM34.7715 16.48H32.8515V15.34H34.5015C34.9415 15.34 35.2748 15.23 35.5015 15.01C35.7348 14.7833 35.8515 14.47 35.8515 14.07C35.8515 13.67 35.7348 13.3633 35.5015 13.15C35.2748 12.9367 34.9482 12.83 34.5215 12.83H32.7315V11.69H34.7715C35.2648 11.69 35.6915 11.79 36.0515 11.99C36.4115 12.19 36.6915 12.47 36.8915 12.83C37.0915 13.1833 37.1915 13.6 37.1915 14.08C37.1915 14.5467 37.0915 14.9633 36.8915 15.33C36.6915 15.69 36.4115 15.9733 36.0515 16.18C35.6915 16.38 35.2648 16.48 34.7715 16.48ZM37.5559 16.52C37.5559 16.0067 37.6692 15.5567 37.8959 15.17C38.1225 14.7767 38.4359 14.47 38.8359 14.25C39.2359 14.03 39.6892 13.92 40.1959 13.92C40.7092 13.92 41.1625 14.03 41.5559 14.25C41.9559 14.47 42.2692 14.7767 42.4959 15.17C42.7225 15.5567 42.8359 16.0067 42.8359 16.52C42.8359 17.0333 42.7225 17.4867 42.4959 17.88C42.2692 18.2667 41.9559 18.57 41.5559 18.79C41.1625 19.01 40.7092 19.12 40.1959 19.12C39.6892 19.12 39.2359 19.01 38.8359 18.79C38.4359 18.57 38.1225 18.2667 37.8959 17.88C37.6692 17.4867 37.5559 17.0333 37.5559 16.52ZM38.7759 16.52C38.7759 16.82 38.8359 17.0833 38.9559 17.31C39.0825 17.5367 39.2492 17.7133 39.4559 17.84C39.6692 17.9667 39.9159 18.03 40.1959 18.03C40.4759 18.03 40.7225 17.9667 40.9359 17.84C41.1492 17.7133 41.3159 17.5367 41.4359 17.31C41.5559 17.0833 41.6159 16.82 41.6159 16.52C41.6159 16.2133 41.5559 15.95 41.4359 15.73C41.3159 15.5033 41.1492 15.3267 40.9359 15.2C40.7225 15.0733 40.4759 15.01 40.1959 15.01C39.9159 15.01 39.6692 15.0733 39.4559 15.2C39.2492 15.3267 39.0825 15.5033 38.9559 15.73C38.8359 15.95 38.7759 16.2133 38.7759 16.52ZM43.4149 17.5H44.5749C44.5816 17.7133 44.6616 17.8833 44.8149 18.01C44.9682 18.1367 45.1816 18.2 45.4549 18.2C45.7482 18.2 45.9682 18.1467 46.1149 18.04C46.2682 17.9333 46.3449 17.79 46.3449 17.61C46.3449 17.49 46.3049 17.3833 46.2249 17.29C46.1449 17.1967 45.9949 17.1267 45.7749 17.08L44.8849 16.87C44.4382 16.77 44.1049 16.61 43.8849 16.39C43.6716 16.1633 43.5649 15.8533 43.5649 15.46C43.5649 15.14 43.6482 14.8633 43.8149 14.63C43.9882 14.3967 44.2216 14.22 44.5149 14.1C44.8082 13.9733 45.1449 13.91 45.5249 13.91C45.8916 13.91 46.2149 13.9767 46.4949 14.11C46.7749 14.2433 46.9916 14.43 47.1449 14.67C47.3049 14.91 47.3882 15.19 47.3949 15.51H46.2349C46.2349 15.2967 46.1682 15.13 46.0349 15.01C45.9016 14.8833 45.7149 14.82 45.4749 14.82C45.2349 14.82 45.0482 14.8733 44.9149 14.98C44.7816 15.0867 44.7149 15.23 44.7149 15.41C44.7149 15.6833 44.9282 15.87 45.3549 15.97L46.2449 16.18C46.6582 16.2733 46.9682 16.4233 47.1749 16.63C47.3882 16.8367 47.4949 17.13 47.4949 17.51C47.4949 17.8433 47.4082 18.1333 47.2349 18.38C47.0616 18.62 46.8182 18.8067 46.5049 18.94C46.1916 19.0667 45.8316 19.13 45.4249 19.13C44.8116 19.13 44.3216 18.98 43.9549 18.68C43.5949 18.38 43.4149 17.9867 43.4149 17.5ZM47.9258 14.06H51.0458V15.08H47.9258V14.06ZM50.0958 19H48.8758V12.52H50.0958V19Z" fill="white"/>
</svg>
