<svg width="25" height="24" viewBox="0 0 25 24" fill="none" xmlns="http://www.w3.org/2000/svg">
<path d="M12.7363 13.0499C12.1129 12.7218 11.4918 12.3913 10.8684 12.0632C9.88164 11.5429 8.89492 11.0202 7.9082 10.4999C7.6832 10.3804 7.45586 10.2608 7.23086 10.1413C7.3082 10.2772 7.38555 10.4108 7.46289 10.5468V4.73661C7.22852 4.87254 6.9918 5.00614 6.75742 5.14207C7.38086 5.4702 8.00195 5.80067 8.62539 6.12879C9.61211 6.65145 10.5988 7.17176 11.5855 7.69442C11.8105 7.81395 12.0379 7.93348 12.2629 8.05301C12.1855 7.91707 12.1082 7.78348 12.0309 7.64754V13.4554C12.0309 13.7014 12.2465 13.9358 12.4996 13.9241C12.7527 13.9124 12.9684 13.7179 12.9684 13.4554V7.64754C12.9684 7.48817 12.8793 7.31942 12.7363 7.24207C12.1129 6.91395 11.4918 6.58348 10.8684 6.25536C9.88164 5.7327 8.89492 5.21239 7.9082 4.68973C7.6832 4.5702 7.45586 4.45067 7.23086 4.33114C6.92148 4.16707 6.52539 4.36864 6.52539 4.73661V10.5468C6.52539 10.7061 6.61445 10.8749 6.75742 10.9522C7.38086 11.2804 8.00195 11.6108 8.62539 11.9389C9.61211 12.4593 10.5988 12.9819 11.5855 13.5022C11.8105 13.6218 12.0379 13.7413 12.2629 13.8608C12.4785 13.9757 12.7832 13.9241 12.9051 13.6921C13.0199 13.4741 12.9684 13.1718 12.7363 13.0499Z" fill="#9CA2AA"/>
<path d="M17.7711 10.1413C17.1477 10.4694 16.5266 10.7999 15.9031 11.128C14.9164 11.6483 13.9273 12.171 12.9406 12.6913C12.7156 12.8108 12.4883 12.9304 12.2633 13.0499C12.4977 13.1858 12.7344 13.3194 12.9688 13.4554V7.64754C12.8914 7.78348 12.8141 7.91707 12.7367 8.05301C13.3602 7.72489 13.9812 7.39442 14.6047 7.06629C15.5914 6.54364 16.5805 6.02332 17.5672 5.50067C17.7922 5.38114 18.0195 5.26161 18.2445 5.14207C18.0102 5.00614 17.7734 4.87254 17.5391 4.73661V10.5468C17.5391 10.7929 17.7547 11.0272 18.0078 11.0155C18.2609 11.0038 18.4766 10.8093 18.4766 10.5468V4.73661C18.4766 4.36864 18.0805 4.16707 17.7711 4.33114C17.1477 4.65926 16.5266 4.98973 15.9031 5.31786C14.9164 5.84051 13.9273 6.36082 12.9406 6.88348C12.7156 7.00301 12.4883 7.12254 12.2633 7.24207C12.118 7.31707 12.0312 7.48817 12.0312 7.64754V13.4554C12.0312 13.8233 12.4273 14.0249 12.7367 13.8608C13.3602 13.5327 13.9812 13.2022 14.6047 12.8741C15.5914 12.3538 16.5805 11.8311 17.5672 11.3108C17.7922 11.1913 18.0195 11.0718 18.2445 10.9522C18.4625 10.8374 18.5469 10.5163 18.4133 10.31C18.2703 10.0897 18.0031 10.0194 17.7711 10.1413Z" fill="#9CA2AA"/>
<path d="M17.7707 4.33117C17.1473 4.65929 16.5262 4.98976 15.9027 5.31788C14.916 5.84054 13.927 6.36085 12.9402 6.88351C12.7152 7.00304 12.4879 7.12257 12.2629 7.2421H12.7363C12.1129 6.91398 11.4918 6.58351 10.8684 6.25538C9.88164 5.73273 8.89492 5.21242 7.9082 4.68976C7.6832 4.57023 7.45586 4.4507 7.23086 4.33117V5.13976C7.8543 4.81163 8.47539 4.48351 9.09883 4.15304C10.0855 3.63273 11.0723 3.11007 12.059 2.58976C12.284 2.47023 12.5113 2.3507 12.7363 2.23117H12.2629C12.8863 2.55929 13.5074 2.88742 14.1309 3.21788C15.1176 3.7382 16.1066 4.26085 17.0934 4.78117C17.3184 4.9007 17.5457 5.02023 17.7707 5.13976C17.9863 5.2546 18.291 5.20304 18.4129 4.97101C18.5277 4.75538 18.4762 4.45304 18.2441 4.32882C17.616 3.99601 16.9855 3.66554 16.3574 3.33273C15.3707 2.81007 14.3816 2.28976 13.3949 1.7671C13.177 1.65226 12.9637 1.53273 12.7434 1.42257C12.5395 1.32179 12.366 1.36632 12.1879 1.46007C12.0754 1.51867 11.9629 1.57726 11.8527 1.6382C10.9105 2.13507 9.9707 2.63195 9.02852 3.12882C8.28555 3.52257 7.53086 3.89992 6.79492 4.30773C6.7832 4.31476 6.77148 4.31945 6.75977 4.32648C6.45508 4.4882 6.45508 4.9757 6.75977 5.13507C7.38789 5.46788 8.01836 5.8007 8.64648 6.13117C9.6332 6.65382 10.6223 7.17413 11.609 7.69679C11.827 7.81163 12.0402 7.93117 12.2605 8.04132C12.4645 8.1421 12.6379 8.09757 12.816 8.00382C12.9285 7.94523 13.041 7.88429 13.1512 7.8257C14.0934 7.32882 15.0332 6.83195 15.9754 6.33273C16.7184 5.93898 17.473 5.55929 18.209 5.15382C18.2207 5.14679 18.2324 5.1421 18.2441 5.13507C18.4621 5.02023 18.5465 4.69913 18.4129 4.49288C18.2699 4.27726 18.0027 4.20695 17.7707 4.33117Z" fill="#9CA2AA"/>
<path d="M15.0141 2.87735C14.393 3.20547 13.7695 3.53594 13.1484 3.86406C12.1617 4.38672 11.175 4.90703 10.1883 5.42969C9.96328 5.54922 9.73594 5.66875 9.51094 5.78828C9.29297 5.90313 9.20859 6.22422 9.34219 6.43047C9.48516 6.65078 9.75234 6.7211 9.98438 6.59922C10.6055 6.2711 11.2289 5.94063 11.85 5.6125C12.8367 5.08985 13.8234 4.56953 14.8102 4.04688C15.0352 3.92735 15.2625 3.80781 15.4875 3.68828C15.7055 3.57344 15.7898 3.25235 15.6562 3.0461C15.5133 2.82344 15.2461 2.75313 15.0141 2.87735ZM7.22812 21.768C6.60703 21.4398 5.98359 21.1117 5.3625 20.7836C4.37578 20.2633 3.38906 19.7406 2.40234 19.2203C2.17734 19.1008 1.95 18.9813 1.725 18.8617C1.80234 18.9977 1.87969 19.1313 1.95703 19.2672V13.4594C1.72266 13.5953 1.48594 13.7289 1.25156 13.8648C1.87266 14.193 2.49609 14.5234 3.11719 14.8516C4.10391 15.3742 5.09063 15.8945 6.07734 16.4172C6.30234 16.5367 6.52969 16.6563 6.75469 16.7758C6.67734 16.6398 6.6 16.5063 6.52266 16.3703V22.1758C6.52266 22.4219 6.73828 22.6563 6.99141 22.6445C7.24453 22.6328 7.46016 22.4383 7.46016 22.1758V16.3703C7.46016 16.2109 7.37109 16.0422 7.22812 15.9648C6.60469 15.632 5.98359 15.3039 5.3625 14.9758C4.37578 14.4531 3.38906 13.9328 2.40234 13.4102C2.17734 13.2906 1.95 13.1711 1.725 13.0516C1.41562 12.8875 1.01953 13.0891 1.01953 13.457V19.2648C1.01953 19.4242 1.10859 19.593 1.25156 19.6703C1.87266 19.9984 2.49609 20.3266 3.11719 20.6547C4.10391 21.175 5.09063 21.6977 6.07734 22.218C6.30234 22.3375 6.52969 22.457 6.75469 22.5766C6.97031 22.6914 7.275 22.6398 7.39687 22.4078C7.50937 22.1922 7.46016 21.8898 7.22812 21.768Z" fill="#9CA2AA"/>
<path d="M12.2633 18.8597C11.6398 19.1879 11.0188 19.516 10.3953 19.8441C9.40859 20.3644 8.41953 20.8871 7.43281 21.4074C7.20781 21.5269 6.98047 21.6465 6.75547 21.766C6.98984 21.9019 7.22656 22.0355 7.46094 22.1715V16.366C7.38359 16.5019 7.30625 16.6355 7.22891 16.7715C7.85234 16.4433 8.47344 16.1129 9.09687 15.7847C10.0836 15.2621 11.0727 14.7418 12.0594 14.2191C12.2844 14.0996 12.5117 13.98 12.7367 13.8605C12.5023 13.7246 12.2656 13.591 12.0312 13.455V19.2652C12.0312 19.5113 12.2469 19.7457 12.5 19.734C12.7531 19.7222 12.9688 19.5277 12.9688 19.2652V13.455C12.9688 13.0894 12.5727 12.8855 12.2633 13.0496C11.6398 13.3777 11.0188 13.7082 10.3953 14.0363C9.40859 14.559 8.41953 15.0793 7.43281 15.6019C7.20781 15.7215 6.98047 15.841 6.75547 15.9605C6.61016 16.0379 6.52344 16.2066 6.52344 16.366V22.1715C6.52344 22.5394 6.91953 22.741 7.22891 22.5769C7.85234 22.2488 8.47344 21.9207 9.09687 21.5925C10.0836 21.0722 11.0727 20.5496 12.0594 20.0293C12.2844 19.9097 12.5117 19.7902 12.7367 19.6707C12.9547 19.5558 13.0391 19.2347 12.9055 19.0285C12.7625 18.8082 12.4953 18.7379 12.2633 18.8597Z" fill="#9CA2AA"/>
<path d="M12.2629 13.0499C11.6395 13.378 11.0184 13.7085 10.3949 14.0366C9.4082 14.5593 8.41914 15.0796 7.43242 15.6023C7.20742 15.7218 6.98008 15.8413 6.75508 15.9609H7.22852C6.60508 15.6327 5.98398 15.3046 5.36289 14.9765C4.37617 14.4538 3.38945 13.9335 2.40273 13.4109C2.17773 13.2913 1.95039 13.1718 1.72539 13.0523V13.8609C2.34883 13.5327 2.96992 13.2023 3.59336 12.8741C4.58008 12.3515 5.5668 11.8312 6.55352 11.3085C6.77852 11.189 7.00586 11.0694 7.23086 10.9499H6.75742C7.38086 11.278 8.00195 11.6085 8.62539 11.9366C9.61211 12.4569 10.5988 12.9796 11.5855 13.4999C11.8105 13.6194 12.0379 13.739 12.2629 13.8585C12.4785 13.9734 12.7832 13.9218 12.9051 13.6898C13.0199 13.4741 12.9684 13.1718 12.7363 13.0476C12.1082 12.7148 11.4777 12.3843 10.8496 12.0515C9.86289 11.5288 8.87383 11.0085 7.88711 10.4859C7.66914 10.371 7.45586 10.2515 7.23555 10.1413C7.03164 10.0405 6.8582 10.0851 6.68008 10.1788C6.56758 10.2374 6.45508 10.2984 6.34492 10.3569C5.40273 10.8538 4.46289 11.353 3.5207 11.8499C2.77773 12.2437 2.02305 12.6234 1.28711 13.0312C1.27539 13.0382 1.26367 13.0429 1.25195 13.0499C0.947266 13.2116 0.947266 13.6991 1.25195 13.8585C1.88008 14.1913 2.51055 14.5241 3.13867 14.8546C4.12539 15.3773 5.11211 15.8976 6.10117 16.4202C6.31914 16.5351 6.53242 16.6546 6.75273 16.7648C6.95664 16.8655 7.13008 16.821 7.3082 16.7273C7.4207 16.6687 7.5332 16.6077 7.64336 16.5491C8.58555 16.0523 9.52539 15.553 10.4676 15.0562C11.2105 14.6624 11.9652 14.2827 12.7012 13.8749C12.7129 13.8679 12.7246 13.8632 12.7363 13.8562C12.9543 13.7413 13.0387 13.4202 12.9051 13.214C12.7621 12.9984 12.4949 12.928 12.2629 13.0499Z" fill="#9CA2AA"/>
<path d="M9.50744 11.5984C8.88635 11.9266 8.26291 12.257 7.64182 12.5852C6.6551 13.1078 5.66838 13.6281 4.68166 14.1508C4.45666 14.2703 4.22932 14.3899 4.00432 14.5094C3.78635 14.6242 3.70197 14.9453 3.83557 15.1516C3.97854 15.3719 4.24572 15.4422 4.47776 15.3203C5.09885 14.9922 5.72229 14.6617 6.34338 14.3336C7.3301 13.8109 8.31682 13.2906 9.30354 12.768C9.52854 12.6484 9.75588 12.5289 9.98088 12.4094C10.1989 12.2945 10.2832 11.9734 10.1496 11.7672C10.0067 11.5469 9.73947 11.4766 9.50744 11.5984ZM18.2449 21.768C17.6215 21.4399 17.0004 21.1117 16.377 20.7836C15.3903 20.2633 14.4012 19.7406 13.4145 19.2203C13.1895 19.1008 12.9621 18.9813 12.7371 18.8617C12.8145 18.9977 12.8918 19.1313 12.9692 19.2672V13.457C12.7348 13.593 12.4981 13.7266 12.2637 13.8625C12.8871 14.1906 13.5082 14.5211 14.1317 14.8492C15.1184 15.3719 16.1074 15.8922 17.0942 16.4149C17.3192 16.5344 17.5465 16.6539 17.7715 16.7734C17.6942 16.6375 17.6168 16.5039 17.5395 16.368V22.1734C17.5395 22.4195 17.7551 22.6539 18.0082 22.6422C18.2613 22.6305 18.477 22.4359 18.477 22.1734V16.368C18.477 16.2086 18.3879 16.0399 18.2449 15.9625C17.6215 15.6344 17.0004 15.3039 16.377 14.9758C15.3903 14.4531 14.4012 13.9328 13.4145 13.4102C13.1895 13.2906 12.9621 13.1711 12.7371 13.0516C12.4278 12.8875 12.0317 13.0891 12.0317 13.457V19.2672C12.0317 19.4266 12.1207 19.5953 12.2637 19.6727C12.8871 20.0008 13.5082 20.3289 14.1317 20.657C15.1184 21.1774 16.1074 21.7 17.0942 22.2203C17.3192 22.3399 17.5465 22.4594 17.7715 22.5789C17.9871 22.6938 18.2918 22.6422 18.4137 22.4102C18.5285 22.1922 18.477 21.8899 18.2449 21.768Z" fill="#9CA2AA"/>
<path d="M23.2762 18.86C22.6551 19.1882 22.0316 19.5163 21.4105 19.8444C20.4238 20.3647 19.4371 20.8874 18.4504 21.4077C18.2254 21.5272 17.998 21.6468 17.773 21.7663C18.0074 21.9022 18.2441 22.0358 18.4785 22.1718V16.3663C18.4012 16.5022 18.3238 16.6358 18.2465 16.7718C18.8676 16.4436 19.491 16.1132 20.1121 15.785C21.0988 15.2624 22.0855 14.7421 23.0723 14.2194C23.2973 14.0999 23.5246 13.9804 23.7496 13.8608C23.5152 13.7249 23.2785 13.5913 23.0441 13.4554V19.2632C23.0441 19.5093 23.2598 19.7436 23.5129 19.7319C23.766 19.7202 23.9816 19.5257 23.9816 19.2632V13.4554C23.9816 13.0874 23.5855 12.8858 23.2762 13.0499C22.6551 13.378 22.0316 13.7085 21.4105 14.0366C20.4238 14.5593 19.4371 15.0796 18.4504 15.6022C18.2254 15.7218 17.998 15.8413 17.773 15.9608C17.6277 16.0382 17.541 16.2069 17.541 16.3663V22.1718C17.541 22.5397 17.9371 22.7413 18.2465 22.5772C18.8676 22.2491 19.491 21.921 20.1121 21.5929C21.0988 21.0725 22.0855 20.5499 23.0723 20.0296C23.2973 19.91 23.5246 19.7905 23.7496 19.671C23.9676 19.5561 24.052 19.235 23.9184 19.0288C23.7754 18.8085 23.5082 18.7382 23.2762 18.86Z" fill="#9CA2AA"/>
<path d="M23.2766 13.0519C22.6555 13.38 22.032 13.7105 21.4109 14.0386C20.4242 14.5612 19.4375 15.0816 18.4508 15.6042C18.2258 15.7237 17.9984 15.8433 17.7734 15.9628H18.2469C17.6234 15.6347 17.0023 15.3042 16.3789 14.9761C15.3922 14.4534 14.4031 13.9331 13.4164 13.4105C13.1914 13.2909 12.9641 13.1714 12.7391 13.0519V13.8605C13.3625 13.5323 13.9836 13.2019 14.607 12.8737C15.5938 12.3534 16.5828 11.8308 17.5695 11.3105C17.7945 11.1909 18.0219 11.0714 18.2469 10.9519H17.7734C18.3945 11.28 19.018 11.6105 19.6391 11.9386C20.6258 12.4612 21.6125 12.9816 22.5992 13.5042C22.8242 13.6237 23.0516 13.7433 23.2766 13.8628C23.4922 13.9777 23.7969 13.9261 23.9188 13.6941C24.0336 13.4784 23.982 13.1761 23.75 13.0519C23.1219 12.7191 22.4914 12.3862 21.8633 12.0534C20.8766 11.5308 19.8898 11.0105 18.9008 10.4878C18.6828 10.373 18.4695 10.2534 18.2492 10.1433C18.0453 10.0425 17.8719 10.087 17.6937 10.1808C17.5812 10.2394 17.4687 10.298 17.3586 10.3589C16.4164 10.8558 15.4766 11.3527 14.5344 11.8495C13.7914 12.2433 13.0367 12.6206 12.3008 13.0284C12.2891 13.0355 12.2773 13.0402 12.2656 13.0472C11.9609 13.2089 11.9609 13.6964 12.2656 13.8558C12.8937 14.1886 13.5242 14.5214 14.1523 14.8542C15.1391 15.3769 16.1281 15.8995 17.1148 16.4198C17.3328 16.5347 17.5461 16.6542 17.7664 16.7644C17.9703 16.8652 18.1438 16.8206 18.3219 16.7269C18.4344 16.6683 18.5469 16.6073 18.657 16.5487C19.5969 16.0519 20.5391 15.555 21.4789 15.0558C22.2219 14.662 22.9742 14.2823 23.7102 13.8769C23.7219 13.8698 23.7336 13.8651 23.7453 13.8581C23.9633 13.7433 24.0477 13.4222 23.9141 13.2159C23.7758 13.0003 23.5086 12.93 23.2766 13.0519Z" fill="#9CA2AA"/>
<path d="M20.5231 11.5984C19.902 11.9266 19.2785 12.257 18.6574 12.5852C17.6707 13.1078 16.684 13.6281 15.6973 14.1508C15.4723 14.2703 15.2449 14.3899 15.0199 14.5094C14.802 14.6242 14.7176 14.9453 14.8512 15.1516C14.9942 15.3719 15.2614 15.4422 15.4934 15.3203C16.1145 14.9922 16.7379 14.6617 17.359 14.3336C18.3457 13.8109 19.3324 13.2906 20.3192 12.768C20.5442 12.6484 20.7715 12.5289 20.9965 12.4094C21.2145 12.2945 21.2989 11.9734 21.1653 11.7672C21.0223 11.5469 20.7574 11.4766 20.5231 11.5984Z" fill="#9CA2AA"/>
</svg>
