<svg width="54" height="24" viewBox="0 0 54 24" fill="none" xmlns="http://www.w3.org/2000/svg">
<rect x="1" y="1" width="52.3126" height="22.0001" rx="11" fill="white"/>
<g clip-path="url(#clip0_101_36220)">
<path d="M12.6864 9.13574C11.1037 9.13574 9.82324 10.4176 9.82324 12.0003C9.82324 13.583 11.1037 14.8649 12.6864 14.8649C14.2691 14.8649 15.5524 13.583 15.5524 12.0003C15.5524 10.4176 14.2691 9.13574 12.6864 9.13574ZM14.6701 10.8545H13.8251C13.732 10.4964 13.6016 10.1527 13.4298 9.8347C13.9569 10.0152 14.3951 10.3804 14.6701 10.8545ZM12.6878 9.71869C12.927 10.0624 13.1132 10.4449 13.235 10.8545H12.1407C12.2624 10.4449 12.4486 10.0624 12.6878 9.71869ZM10.4706 12.5733C10.4234 12.3899 10.3962 12.198 10.3962 12.0003C10.3962 11.8027 10.4234 11.6108 10.4706 11.4274H11.4374C11.4145 11.615 11.3988 11.8055 11.3988 12.0003C11.3988 12.1951 11.4145 12.3856 11.4389 12.5733H10.4706ZM10.7041 13.1462H11.5492C11.6423 13.5042 11.7726 13.848 11.9445 14.1674C11.4215 13.9874 10.9811 13.6248 10.7041 13.1462ZM11.5492 10.8545H10.7041C10.9791 10.3804 11.4174 10.0137 11.9445 9.83327C11.7726 10.1527 11.6423 10.4964 11.5492 10.8545ZM12.6878 14.282C12.4501 13.9382 12.2639 13.5558 12.1407 13.1462H13.235C13.1118 13.5558 12.9256 13.9382 12.6878 14.282ZM13.3582 12.5733H12.0175C11.9903 12.3856 11.9717 12.1951 11.9717 12.0003C11.9717 11.8055 11.9903 11.615 12.0175 11.4274H13.3582C13.3854 11.615 13.404 11.8055 13.404 12.0003C13.404 12.1951 13.3854 12.3856 13.3582 12.5733ZM13.4312 14.166C13.6031 13.8466 13.7334 13.5042 13.8265 13.1462H14.6716C14.3938 13.6238 13.9536 13.9858 13.4312 14.166ZM13.9368 12.5733C13.9597 12.3856 13.9769 12.1951 13.9769 12.0003C13.9769 11.8055 13.9611 11.615 13.9368 11.4274H14.9036C14.9509 11.6108 14.9795 11.8027 14.9795 12.0003C14.9795 12.198 14.9523 12.3899 14.9036 12.5733H13.9368Z" fill="#3E3E3E"/>
</g>
<path d="M20.3119 9.47436V14.5H19.4319V9.47436H20.3119ZM21.4188 12.7675H20.0988V11.9837H21.2331C21.5356 11.9837 21.7648 11.9081 21.9206 11.7569C22.0811 11.601 22.1613 11.3856 22.1613 11.1106C22.1613 10.8356 22.0811 10.6248 21.9206 10.4781C21.7648 10.3314 21.5402 10.2581 21.2469 10.2581H20.0163V9.47436H21.4188C21.7579 9.47436 22.0513 9.54311 22.2988 9.68061C22.5463 9.81811 22.7388 10.0106 22.8763 10.2581C23.0138 10.501 23.0825 10.7875 23.0825 11.1175C23.0825 11.4383 23.0138 11.7248 22.8763 11.9769C22.7388 12.2244 22.5463 12.4192 22.2988 12.5612C22.0513 12.6987 21.7579 12.7675 21.4188 12.7675ZM25.9966 11.1037H26.8354V14.5H26.0585L25.9966 14.0462C25.8958 14.2067 25.7446 14.3373 25.5429 14.4381C25.3412 14.539 25.1258 14.5894 24.8966 14.5894C24.5071 14.5894 24.2023 14.4656 23.9823 14.2181C23.7623 13.9706 23.6523 13.6406 23.6523 13.2281V11.1037H24.491V12.9325C24.491 13.2533 24.5529 13.4848 24.6766 13.6269C24.8004 13.769 24.9791 13.84 25.2129 13.84C25.4787 13.84 25.6758 13.7621 25.8041 13.6062C25.9325 13.4458 25.9966 13.2052 25.9966 12.8844V11.1037ZM28.4731 14.5H27.6962V9.38498H28.535V11.5987C28.645 11.4062 28.8054 11.2596 29.0162 11.1587C29.227 11.0533 29.4631 11.0006 29.7243 11.0006C30.0498 11.0006 30.327 11.0785 30.5562 11.2344C30.79 11.3856 30.9687 11.5987 31.0925 11.8737C31.2208 12.1487 31.285 12.4673 31.285 12.8294C31.285 13.1731 31.2185 13.4779 31.0856 13.7437C30.9527 14.0096 30.7648 14.2181 30.5218 14.3694C30.2789 14.516 29.9948 14.5894 29.6693 14.5894C29.4173 14.5894 29.1881 14.5344 28.9818 14.4244C28.7802 14.3144 28.6289 14.1631 28.5281 13.9706L28.4731 14.5ZM28.5418 12.7881C28.5418 12.9898 28.5808 13.1708 28.6587 13.3312C28.7366 13.4871 28.8466 13.6085 28.9887 13.6956C29.1354 13.7781 29.305 13.8194 29.4975 13.8194C29.6945 13.8194 29.8641 13.7758 30.0062 13.6887C30.1483 13.6017 30.256 13.4802 30.3293 13.3244C30.4027 13.1685 30.4393 12.9898 30.4393 12.7881C30.4393 12.5865 30.4027 12.4077 30.3293 12.2519C30.256 12.096 30.1483 11.9746 30.0062 11.8875C29.8641 11.7958 29.6945 11.75 29.4975 11.75C29.305 11.75 29.1354 11.7958 28.9887 11.8875C28.8466 11.9746 28.7366 12.096 28.6587 12.2519C28.5808 12.4031 28.5418 12.5819 28.5418 12.7881ZM32.7929 14.5H31.9611V9.38498H32.7929V14.5ZM33.6673 14.5V11.1037H34.506V14.5H33.6673ZM34.0798 10.4231C33.9377 10.4231 33.8162 10.375 33.7154 10.2787C33.6192 10.1779 33.571 10.0564 33.571 9.91436C33.571 9.77227 33.6192 9.65311 33.7154 9.55686C33.8162 9.46061 33.9377 9.41248 34.0798 9.41248C34.2219 9.41248 34.341 9.46061 34.4373 9.55686C34.5381 9.65311 34.5885 9.77227 34.5885 9.91436C34.5885 10.0564 34.5381 10.1779 34.4373 10.2787C34.341 10.375 34.2219 10.4231 34.0798 10.4231ZM35.1677 12.795C35.1677 12.4467 35.2388 12.1373 35.3809 11.8669C35.5275 11.5964 35.7269 11.3856 35.979 11.2344C36.2357 11.0785 36.5313 11.0006 36.8659 11.0006C37.3288 11.0006 37.7069 11.1221 38.0002 11.365C38.2982 11.6033 38.47 11.9264 38.5159 12.3344H37.6771C37.6267 12.1419 37.5327 11.9975 37.3952 11.9012C37.2623 11.8004 37.095 11.75 36.8934 11.75C36.7192 11.75 36.5634 11.7935 36.4259 11.8806C36.293 11.9631 36.1898 12.0823 36.1165 12.2381C36.0432 12.394 36.0065 12.5796 36.0065 12.795C36.0065 13.0104 36.0409 13.196 36.1096 13.3519C36.1784 13.5077 36.2769 13.6292 36.4052 13.7162C36.5382 13.7987 36.694 13.84 36.8727 13.84C37.0836 13.84 37.2577 13.7896 37.3952 13.6887C37.5373 13.5879 37.6313 13.4435 37.6771 13.2556H38.5228C38.4861 13.5215 38.3921 13.7552 38.2409 13.9569C38.0942 14.154 37.904 14.3098 37.6702 14.4244C37.4365 14.5344 37.1707 14.5894 36.8727 14.5894C36.529 14.5894 36.2288 14.516 35.9721 14.3694C35.7154 14.2181 35.5161 14.0096 35.374 13.7437C35.2365 13.4733 35.1677 13.1571 35.1677 12.795Z" fill="#3E3E3E"/>
<path d="M41.625 11.1406L43.3438 12.8594L45.0625 11.1406" stroke="#3E3E3E" stroke-width="0.644534" stroke-linecap="round" stroke-linejoin="round"/>
<rect x="0.828124" y="0.828124" width="52.6564" height="22.3438" rx="11.1719" stroke="black" stroke-opacity="0.04" stroke-width="0.343751"/>
<defs>
<clipPath id="clip0_101_36220">
<rect width="6.87503" height="6.87503" fill="white" transform="translate(9.25 8.5625)"/>
</clipPath>
</defs>
</svg>
