<svg width="16" height="16" viewBox="0 0 16 16" fill="none" xmlns="http://www.w3.org/2000/svg">
<path d="M4.81832 0.363281H2.90922C1.50541 0.363281 0.36377 1.50492 0.36377 2.90874V4.81783C0.36377 6.22164 1.50541 7.36328 2.90922 7.36328H4.81832C6.22213 7.36328 7.36377 6.22164 7.36377 4.81783V2.90874C7.36377 1.50492 6.22213 0.363281 4.81832 0.363281ZM6.09104 4.81783C6.09104 5.51974 5.52022 6.09055 4.81832 6.09055H2.90922C2.20731 6.09055 1.6365 5.51974 1.6365 4.81783V2.90874C1.6365 2.20683 2.20731 1.63601 2.90922 1.63601H4.81832C5.52022 1.63601 6.09104 2.20683 6.09104 2.90874V4.81783ZM4.81832 3.5451V4.18146C4.81832 4.53274 4.53322 4.81783 4.18195 4.81783H3.54559C3.19431 4.81783 2.90922 4.53274 2.90922 4.18146V3.5451C2.90922 3.19383 3.19431 2.90874 3.54559 2.90874H4.18195C4.53322 2.90874 4.81832 3.19383 4.81832 3.5451ZM11.182 7.36328H13.091C14.4949 7.36328 15.6365 6.22164 15.6365 4.81783V2.90874C15.6365 1.50492 14.4949 0.363281 13.091 0.363281H11.182C9.77813 0.363281 8.6365 1.50492 8.6365 2.90874V4.81783C8.6365 6.22164 9.77813 7.36328 11.182 7.36328ZM9.90922 2.90874C9.90922 2.20683 10.48 1.63601 11.182 1.63601H13.091C13.793 1.63601 14.3638 2.20683 14.3638 2.90874V4.81783C14.3638 5.51974 13.793 6.09055 13.091 6.09055H11.182C10.48 6.09055 9.90922 5.51974 9.90922 4.81783V2.90874ZM11.182 4.18146V3.5451C11.182 3.19383 11.467 2.90874 11.8183 2.90874H12.4547C12.806 2.90874 13.091 3.19383 13.091 3.5451V4.18146C13.091 4.53274 12.806 4.81783 12.4547 4.81783H11.8183C11.467 4.81783 11.182 4.53274 11.182 4.18146ZM4.81832 8.63601H2.90922C1.50541 8.63601 0.36377 9.77765 0.36377 11.1815V13.0906C0.36377 14.4944 1.50541 15.636 2.90922 15.636H4.81832C6.22213 15.636 7.36377 14.4944 7.36377 13.0906V11.1815C7.36377 9.77765 6.22213 8.63601 4.81832 8.63601ZM6.09104 13.0906C6.09104 13.7925 5.52022 14.3633 4.81832 14.3633H2.90922C2.20731 14.3633 1.6365 13.7925 1.6365 13.0906V11.1815C1.6365 10.4796 2.20731 9.90874 2.90922 9.90874H4.81832C5.52022 9.90874 6.09104 10.4796 6.09104 11.1815V13.0906ZM4.81832 11.8178V12.4542C4.81832 12.8055 4.53322 13.0906 4.18195 13.0906H3.54559C3.19431 13.0906 2.90922 12.8055 2.90922 12.4542V11.8178C2.90922 11.4666 3.19431 11.1815 3.54559 11.1815H4.18195C4.53322 11.1815 4.81832 11.4666 4.81832 11.8178ZM11.182 9.59055V10.2269C11.182 10.7538 10.7543 11.1815 10.2274 11.1815H9.59104C9.06413 11.1815 8.6365 10.7538 8.6365 10.2269V9.59055C8.6365 9.06364 9.06413 8.63601 9.59104 8.63601H10.2274C10.7543 8.63601 11.182 9.06364 11.182 9.59055ZM13.091 12.136C13.091 12.6629 12.6634 13.0906 12.1365 13.0906C11.6096 13.0906 11.182 12.6629 11.182 12.136C11.182 11.6091 11.6096 11.1815 12.1365 11.1815C12.6634 11.1815 13.091 11.6091 13.091 12.136ZM11.182 14.0451V14.6815C11.182 15.2084 10.7543 15.636 10.2274 15.636H9.59104C9.06413 15.636 8.6365 15.2084 8.6365 14.6815V14.0451C8.6365 13.5182 9.06413 13.0906 9.59104 13.0906H10.2274C10.7543 13.0906 11.182 13.5182 11.182 14.0451ZM15.6365 9.59055V10.2269C15.6365 10.7538 15.2089 11.1815 14.682 11.1815H14.0456C13.5187 11.1815 13.091 10.7538 13.091 10.2269V9.59055C13.091 9.06364 13.5187 8.63601 14.0456 8.63601H14.682C15.2089 8.63601 15.6365 9.06364 15.6365 9.59055Z" fill="#4B4EFC"/>
</svg>
