<svg width="64" height="24" viewBox="0 0 64 24" fill="none" xmlns="http://www.w3.org/2000/svg">
<rect x="0.535156" y="1" width="62.3126" height="22.0001" rx="11" fill="white"/>
<g clip-path="url(#clip0_101_36231)">
<path d="M12.2216 9.13574C10.6389 9.13574 9.3584 10.4176 9.3584 12.0003C9.3584 13.583 10.6389 14.8649 12.2216 14.8649C13.8042 14.8649 15.0876 13.583 15.0876 12.0003C15.0876 10.4176 13.8042 9.13574 12.2216 9.13574ZM12.223 14.292C10.9568 14.292 9.93132 13.2665 9.93132 12.0003C9.93132 10.7342 10.9568 9.70866 12.223 9.70866C13.4891 9.70866 14.5147 10.7342 14.5147 12.0003C14.5147 13.2665 13.4891 14.292 12.223 14.292Z" fill="#3E3E3E"/>
<path d="M12.3662 10.5684H11.9365V12.2871L13.439 13.1895L13.6553 12.8371L12.3662 12.0723V10.5684Z" fill="#3E3E3E"/>
</g>
<path d="M18.6783 10.8769C18.6783 10.5835 18.7539 10.3246 18.9052 10.1C19.0564 9.8754 19.265 9.70123 19.5308 9.57748C19.8012 9.44915 20.1129 9.38498 20.4658 9.38498C20.805 9.38498 21.0983 9.44456 21.3458 9.56373C21.5979 9.6829 21.7927 9.85248 21.9302 10.0725C22.0723 10.2925 22.1479 10.5537 22.157 10.8562H21.277C21.2679 10.6408 21.19 10.4735 21.0433 10.3544C20.8966 10.2306 20.6995 10.1687 20.452 10.1687C20.1816 10.1687 19.9639 10.2306 19.7989 10.3544C19.6385 10.4735 19.5583 10.6385 19.5583 10.8494C19.5583 11.0281 19.6064 11.1702 19.7027 11.2756C19.8035 11.3764 19.9593 11.4521 20.1702 11.5025L20.9608 11.6812C21.3916 11.7729 21.7125 11.931 21.9233 12.1556C22.1341 12.3756 22.2395 12.6735 22.2395 13.0494C22.2395 13.3565 22.1639 13.6269 22.0127 13.8606C21.8614 14.0944 21.646 14.2754 21.3664 14.4037C21.0914 14.5275 20.7683 14.5894 20.397 14.5894C20.0441 14.5894 19.7347 14.5298 19.4689 14.4106C19.2031 14.2869 18.9945 14.115 18.8433 13.895C18.6966 13.675 18.6187 13.416 18.6095 13.1181H19.4895C19.4941 13.329 19.5766 13.4962 19.737 13.62C19.902 13.7392 20.1243 13.7987 20.4039 13.7987C20.6972 13.7987 20.9287 13.7392 21.0983 13.62C21.2725 13.4962 21.3595 13.3335 21.3595 13.1319C21.3595 12.9577 21.3137 12.8202 21.222 12.7194C21.1304 12.614 20.9814 12.5406 20.7752 12.4994L19.9777 12.3206C19.5514 12.2289 19.2283 12.0639 19.0083 11.8256C18.7883 11.5827 18.6783 11.2664 18.6783 10.8769ZM22.707 12.795C22.707 12.4467 22.7781 12.1373 22.9202 11.8669C23.0668 11.5964 23.2662 11.3856 23.5183 11.2344C23.7749 11.0785 24.0706 11.0006 24.4052 11.0006C24.8681 11.0006 25.2462 11.1221 25.5395 11.365C25.8375 11.6033 26.0093 11.9264 26.0552 12.3344H25.2164C25.166 12.1419 25.072 11.9975 24.9345 11.9012C24.8016 11.8004 24.6343 11.75 24.4327 11.75C24.2585 11.75 24.1027 11.7935 23.9652 11.8806C23.8322 11.9631 23.7291 12.0823 23.6558 12.2381C23.5824 12.394 23.5458 12.5796 23.5458 12.795C23.5458 13.0104 23.5802 13.196 23.6489 13.3519C23.7177 13.5077 23.8162 13.6292 23.9445 13.7162C24.0774 13.7987 24.2333 13.84 24.412 13.84C24.6229 13.84 24.797 13.7896 24.9345 13.6887C25.0766 13.5879 25.1706 13.4435 25.2164 13.2556H26.062C26.0254 13.5215 25.9314 13.7552 25.7802 13.9569C25.6335 14.154 25.4433 14.3098 25.2095 14.4244C24.9758 14.5344 24.71 14.5894 24.412 14.5894C24.0683 14.5894 23.7681 14.516 23.5114 14.3694C23.2547 14.2181 23.0554 14.0096 22.9133 13.7437C22.7758 13.4733 22.707 13.1571 22.707 12.795ZM27.5196 14.5H26.6808V9.38498H27.5265V11.5437C27.6319 11.3787 27.7785 11.2481 27.9665 11.1519C28.159 11.051 28.379 11.0006 28.6265 11.0006C29.0435 11.0006 29.3598 11.1267 29.5752 11.3787C29.7952 11.6308 29.9052 11.9746 29.9052 12.41V14.5H29.0665V12.6094C29.0665 12.4169 29.0367 12.2587 28.9771 12.135C28.9175 12.0112 28.835 11.9196 28.7296 11.86C28.6242 11.7958 28.5004 11.7637 28.3583 11.7637C28.1842 11.7637 28.0329 11.8027 27.9046 11.8806C27.7808 11.9539 27.6846 12.0571 27.6158 12.19C27.5517 12.3229 27.5196 12.4742 27.5196 12.6437V14.5ZM32.2432 14.5894C31.9086 14.5894 31.6107 14.5138 31.3494 14.3625C31.0928 14.2067 30.8911 13.9958 30.7444 13.73C30.5978 13.4596 30.5244 13.1502 30.5244 12.8019C30.5244 12.449 30.5955 12.1373 30.7376 11.8669C30.8796 11.5964 31.079 11.3856 31.3357 11.2344C31.5923 11.0785 31.8857 11.0006 32.2157 11.0006C32.5594 11.0006 32.8551 11.0739 33.1026 11.2206C33.3501 11.3627 33.5403 11.5621 33.6732 11.8187C33.8107 12.0754 33.8794 12.3825 33.8794 12.74V12.9944L30.9644 13.0012L30.9782 12.465H33.0476C33.0476 12.2312 32.9719 12.0433 32.8207 11.9012C32.674 11.7592 32.4746 11.6881 32.2226 11.6881C32.0255 11.6881 31.8582 11.7294 31.7207 11.8119C31.5878 11.8944 31.4869 12.0181 31.4182 12.1831C31.3494 12.3481 31.3151 12.5498 31.3151 12.7881C31.3151 13.1548 31.393 13.4321 31.5488 13.62C31.7092 13.8079 31.9453 13.9019 32.2569 13.9019C32.4861 13.9019 32.674 13.8583 32.8207 13.7712C32.9719 13.6842 33.0705 13.5604 33.1163 13.4H33.8932C33.8199 13.7712 33.6365 14.0623 33.3432 14.2731C33.0544 14.484 32.6878 14.5894 32.2432 14.5894ZM35.9408 14.5894C35.6108 14.5894 35.3267 14.516 35.0883 14.3694C34.8546 14.2181 34.6713 14.0096 34.5383 13.7437C34.41 13.4779 34.3458 13.1685 34.3458 12.8156C34.3458 12.4627 34.41 12.151 34.5383 11.8806C34.6713 11.6056 34.8615 11.3902 35.109 11.2344C35.3565 11.0785 35.6498 11.0006 35.989 11.0006C36.2273 11.0006 36.445 11.0487 36.6421 11.145C36.8392 11.2367 36.9904 11.3673 37.0959 11.5369V9.38498H37.9277V14.5H37.1577L37.1027 13.9706C37.0019 14.1631 36.8461 14.3144 36.6352 14.4244C36.429 14.5344 36.1975 14.5894 35.9408 14.5894ZM36.1265 13.8194C36.3236 13.8194 36.4931 13.7781 36.6352 13.6956C36.7773 13.6085 36.8873 13.4871 36.9652 13.3312C37.0477 13.1708 37.089 12.9898 37.089 12.7881C37.089 12.5819 37.0477 12.4031 36.9652 12.2519C36.8873 12.096 36.7773 11.9746 36.6352 11.8875C36.4931 11.7958 36.3236 11.75 36.1265 11.75C35.934 11.75 35.7667 11.7958 35.6246 11.8875C35.4825 11.9746 35.3725 12.096 35.2946 12.2519C35.2213 12.4077 35.1846 12.5865 35.1846 12.7881C35.1846 12.9898 35.2213 13.1685 35.2946 13.3244C35.3725 13.4802 35.4825 13.6017 35.6246 13.6887C35.7667 13.7758 35.934 13.8194 36.1265 13.8194ZM41.0995 11.1037H41.9382V14.5H41.1613L41.0995 14.0462C40.9986 14.2067 40.8474 14.3373 40.6457 14.4381C40.444 14.539 40.2286 14.5894 39.9995 14.5894C39.6099 14.5894 39.3051 14.4656 39.0851 14.2181C38.8651 13.9706 38.7551 13.6406 38.7551 13.2281V11.1037H39.5938V12.9325C39.5938 13.2533 39.6557 13.4848 39.7795 13.6269C39.9032 13.769 40.082 13.84 40.3157 13.84C40.5815 13.84 40.7786 13.7621 40.907 13.6062C41.0353 13.4458 41.0995 13.2052 41.0995 12.8844V11.1037ZM43.6446 14.5H42.8128V9.38498H43.6446V14.5ZM46.0384 14.5894C45.7038 14.5894 45.4059 14.5138 45.1446 14.3625C44.888 14.2067 44.6863 13.9958 44.5396 13.73C44.3929 13.4596 44.3196 13.1502 44.3196 12.8019C44.3196 12.449 44.3907 12.1373 44.5327 11.8669C44.6748 11.5964 44.8742 11.3856 45.1309 11.2344C45.3875 11.0785 45.6809 11.0006 46.0109 11.0006C46.3546 11.0006 46.6502 11.0739 46.8978 11.2206C47.1453 11.3627 47.3355 11.5621 47.4684 11.8187C47.6059 12.0754 47.6746 12.3825 47.6746 12.74V12.9944L44.7596 13.0012L44.7734 12.465H46.8428C46.8428 12.2312 46.7671 12.0433 46.6159 11.9012C46.4692 11.7592 46.2698 11.6881 46.0177 11.6881C45.8207 11.6881 45.6534 11.7294 45.5159 11.8119C45.383 11.8944 45.2821 12.0181 45.2134 12.1831C45.1446 12.3481 45.1102 12.5498 45.1102 12.7881C45.1102 13.1548 45.1882 13.4321 45.344 13.62C45.5044 13.8079 45.7405 13.9019 46.0521 13.9019C46.2813 13.9019 46.4692 13.8583 46.6159 13.7712C46.7671 13.6842 46.8657 13.5604 46.9115 13.4H47.6884C47.615 13.7712 47.4317 14.0623 47.1384 14.2731C46.8496 14.484 46.483 14.5894 46.0384 14.5894Z" fill="#3E3E3E"/>
<path d="M51.1602 11.1406L52.8789 12.8594L54.5977 11.1406" stroke="#3E3E3E" stroke-width="0.644534" stroke-linecap="round" stroke-linejoin="round"/>
<rect x="0.363281" y="0.828124" width="62.6564" height="22.3438" rx="11.1719" stroke="black" stroke-opacity="0.04" stroke-width="0.343751"/>
<defs>
<clipPath id="clip0_101_36231">
<rect width="6.87503" height="6.87503" fill="white" transform="translate(8.78516 8.5625)"/>
</clipPath>
</defs>
</svg>
