<svg width="21" height="21" viewBox="0 0 21 21" fill="none" xmlns="http://www.w3.org/2000/svg">
<path d="M16.5142 1.23019L19.9622 4.67719C20.2319 4.94705 20.4188 5.28844 20.5009 5.66106C20.5829 6.03369 20.5567 6.42201 20.4252 6.78019L18.6622 11.5922C18.6121 11.7286 18.533 11.8525 18.4302 11.9552L10.1072 20.2782C9.92146 20.464 9.70094 20.6114 9.45824 20.712C9.21554 20.8125 8.9554 20.8643 8.69269 20.8643C8.42997 20.8643 8.16984 20.8125 7.92713 20.712C7.68443 20.6114 7.46391 20.464 7.27819 20.2782L0.914186 13.9142C0.539244 13.5391 0.328613 13.0305 0.328613 12.5002C0.328613 11.9699 0.539244 11.4613 0.914186 11.0862L9.24719 2.75319C9.35018 2.65028 9.47441 2.57111 9.61119 2.52119L14.4132 0.766194C14.7712 0.635269 15.1592 0.609385 15.5314 0.691591C15.9036 0.773797 16.2446 0.960669 16.5142 1.23019ZM13.2902 7.90419C13.4286 8.04739 13.5942 8.16159 13.7772 8.24011C13.9603 8.31864 14.1571 8.35992 14.3563 8.36156C14.5555 8.3632 14.753 8.32515 14.9373 8.24964C15.1216 8.17413 15.289 8.06268 15.4298 7.92177C15.5706 7.78087 15.6819 7.61334 15.7572 7.42896C15.8325 7.24458 15.8704 7.04704 15.8686 6.84788C15.8667 6.64871 15.8253 6.4519 15.7466 6.26893C15.6679 6.08596 15.5535 5.9205 15.4102 5.78219C15.1272 5.50909 14.7482 5.35807 14.3549 5.36167C13.9616 5.36528 13.5854 5.52321 13.3075 5.80145C13.0295 6.0797 12.8719 6.45599 12.8687 6.84929C12.8654 7.24259 13.0168 7.62142 13.2902 7.90419Z" fill="black"/>
</svg>
