<svg width="22" height="16" viewBox="0 0 22 16" fill="none" xmlns="http://www.w3.org/2000/svg">
<path d="M1.25001 11.3361C1.24906 11.1634 1.3085 10.9958 1.41807 10.8622C1.52763 10.7287 1.68042 10.6377 1.85001 10.6049C2.52456 10.4617 3.12946 10.0911 3.56349 9.55525C3.99752 9.01939 4.23435 8.35072 4.23435 7.66113C4.23435 6.97155 3.99752 6.30288 3.56349 5.76702C3.12946 5.23115 2.52456 4.86061 1.85001 4.71738C1.68042 4.68459 1.52763 4.59355 1.41807 4.46002C1.3085 4.32649 1.24906 4.15886 1.25001 3.98613V1.66113C1.25001 1.46222 1.32903 1.27146 1.46968 1.1308C1.61033 0.990151 1.8011 0.911133 2.00001 0.911133H20C20.1989 0.911133 20.3897 0.990151 20.5303 1.1308C20.671 1.27146 20.75 1.46222 20.75 1.66113V3.98613C20.751 4.15886 20.6915 4.32649 20.582 4.46002C20.4724 4.59355 20.3196 4.68459 20.15 4.71738C19.4755 4.86061 18.8706 5.23115 18.4365 5.76702C18.0025 6.30288 17.7657 6.97155 17.7657 7.66113C17.7657 8.35072 18.0025 9.01939 18.4365 9.55525C18.8706 10.0911 19.4755 10.4617 20.15 10.6049C20.3196 10.6377 20.4724 10.7287 20.582 10.8622C20.6915 10.9958 20.751 11.1634 20.75 11.3361V13.6611C20.75 13.86 20.671 14.0508 20.5303 14.1915C20.3897 14.3321 20.1989 14.4111 20 14.4111H2.00001C1.8011 14.4111 1.61033 14.3321 1.46968 14.1915C1.32903 14.0508 1.25001 13.86 1.25001 13.6611V11.3361Z" stroke="#4B4EFC" stroke-width="1.5" stroke-linecap="round" stroke-linejoin="round"/>
</svg>
