<svg width="21" height="21" viewBox="0 0 21 21" fill="none" xmlns="http://www.w3.org/2000/svg">
<path d="M11.2252 8.59371L5.71616 14.1037L3.84616 13.3267L3.67916 13.4957L6.05916 15.0827L7.64716 17.4627L7.81516 17.2947L7.03916 15.4247L12.5482 9.91671L16.8762 16.1687L17.0862 15.9607L14.1992 8.26471L18.5992 3.86671C18.686 3.77984 18.7549 3.67671 18.802 3.56321C18.849 3.44971 18.8732 3.32806 18.8732 3.20521C18.8732 3.08235 18.849 2.96071 18.802 2.84721C18.7549 2.73371 18.686 2.63058 18.5992 2.54371C18.5123 2.45684 18.4092 2.38793 18.2957 2.34092C18.1822 2.2939 18.0605 2.2697 17.9377 2.2697C17.8148 2.2697 17.6932 2.2939 17.5797 2.34092C17.4662 2.38793 17.363 2.45684 17.2762 2.54371L12.8762 6.94271L5.18216 4.05671L4.97216 4.26571L11.2252 8.59371ZM16.6152 19.0767L12.2852 12.8237L9.24516 15.8637L10.0222 17.7337L7.35616 20.3987L4.71116 16.4317L0.743164 13.7857L3.40916 11.1197L5.27816 11.8957L8.31816 8.85571L2.06516 4.52771L4.71116 1.88271L12.4062 4.76771L15.9532 1.22071C16.2126 0.955032 16.5221 0.743483 16.8639 0.598321C17.2056 0.453158 17.5728 0.377268 17.9441 0.37505C18.3154 0.372832 18.6835 0.444329 19.0269 0.585398C19.3704 0.726467 19.6825 0.934302 19.945 1.19686C20.2076 1.45941 20.4154 1.77147 20.5565 2.11494C20.6975 2.45841 20.769 2.82646 20.7668 3.19776C20.7646 3.56907 20.6887 3.93624 20.5436 4.278C20.3984 4.61976 20.1868 4.92931 19.9212 5.18871L16.3742 8.73571L19.2602 16.4317L16.6142 19.0767H16.6152Z" fill="#4B4EFC"/>
</svg>
