<svg width="40" height="32" viewBox="0 0 40 32" fill="none" xmlns="http://www.w3.org/2000/svg">
<path d="M39.1663 4.11658C37.7257 4.7416 36.2021 5.15477 34.643 5.34325C36.2878 4.36061 37.5204 2.81475 38.1122 0.992414C36.5665 1.91253 34.8745 2.56082 33.1097 2.90908C31.9301 1.62984 30.3592 0.778315 28.6435 0.488045C26.9278 0.197776 25.1642 0.485184 23.6294 1.30519C22.0947 2.1252 20.8755 3.43143 20.1631 5.01902C19.4506 6.6066 19.2853 8.38574 19.693 10.0774C16.5677 9.91934 13.5107 9.10557 10.7204 7.68898C7.93017 6.27239 5.46913 4.28466 3.49717 1.85491C2.80552 3.06274 2.44209 4.43057 2.44301 5.82241C2.44056 7.11498 2.75776 8.3881 3.36637 9.52841C3.97499 10.6687 4.85613 11.6409 5.93134 12.3582C4.68163 12.3242 3.45862 11.9889 2.36634 11.3807V11.4766C2.37571 13.2876 3.01033 15.0398 4.16286 16.4368C5.31539 17.8339 6.91508 18.7899 8.69134 19.1432C8.00758 19.3513 7.29768 19.461 6.58301 19.4691C6.0883 19.4633 5.59482 19.4184 5.10717 19.3349C5.613 20.8928 6.59187 22.2543 7.90757 23.2299C9.22327 24.2055 10.8104 24.7467 12.448 24.7782C9.68265 26.9542 6.26845 28.1417 2.74967 28.1516C2.109 28.1537 1.46883 28.1153 0.833008 28.0366C4.42566 30.3562 8.6124 31.5876 12.8888 31.5824C15.8399 31.6131 18.7675 31.0554 21.5006 29.9419C24.2338 28.8284 26.7176 27.1815 28.8071 25.0974C30.8967 23.0132 32.5499 20.5336 33.6704 17.8033C34.7909 15.0731 35.3561 12.1469 35.333 9.19575C35.333 8.86991 35.333 8.52491 35.333 8.17991C36.837 7.0583 38.1342 5.68331 39.1663 4.11658Z" fill="black"/>
</svg>
