<svg width="18" height="18" viewBox="0 0 18 18" fill="none" xmlns="http://www.w3.org/2000/svg">
<path d="M17.021 0.233398H0.978516C0.829635 0.234381 0.687131 0.29396 0.581854 0.399237C0.476577 0.504514 0.416998 0.647018 0.416016 0.795898V16.8384C0.416998 16.9873 0.476577 17.1298 0.581854 17.2351C0.687131 17.3403 0.829635 17.3999 0.978516 17.4009H17.021C17.1699 17.3999 17.3124 17.3403 17.4177 17.2351C17.523 17.1298 17.5825 16.9873 17.5835 16.8384V0.795898C17.5825 0.647018 17.523 0.504514 17.4177 0.399237C17.3124 0.29396 17.1699 0.234381 17.021 0.233398ZM8.36602 5.6334L6.42727 12.3121C6.39298 12.4285 6.3225 12.5308 6.22606 12.6043C6.12962 12.6778 6.01226 12.7187 5.89102 12.7209C5.77041 12.7208 5.65298 12.6822 5.55585 12.6107C5.45872 12.5392 5.38696 12.4385 5.35102 12.3234L3.27352 5.64465C3.24672 5.57297 3.23482 5.49658 3.23857 5.42014C3.24231 5.34371 3.26161 5.26884 3.29528 5.20013C3.32896 5.13141 3.3763 5.07029 3.43441 5.0205C3.49253 4.97071 3.56019 4.9333 3.63326 4.91056C3.70632 4.88782 3.78326 4.88023 3.85937 4.88826C3.93547 4.89628 4.00914 4.91975 4.07586 4.95722C4.14258 4.9947 4.20095 5.04539 4.2474 5.1062C4.29386 5.16702 4.32741 5.23667 4.34602 5.3109L5.86852 10.2046L7.28602 5.32965C7.30388 5.25587 7.33648 5.18647 7.38187 5.12563C7.42727 5.06479 7.4845 5.01376 7.55014 4.97563C7.61577 4.93749 7.68844 4.91304 7.76378 4.90373C7.83912 4.89443 7.91556 4.90047 7.9885 4.92149C8.06144 4.94251 8.12937 4.97808 8.1882 5.02605C8.24703 5.07402 8.29554 5.1334 8.33081 5.20061C8.36608 5.26783 8.38739 5.34149 8.39344 5.41716C8.39949 5.49282 8.39016 5.56893 8.36602 5.6409V5.6334ZM11.5198 8.16465H12.7085C13.2502 8.16564 13.7695 8.38128 14.1526 8.76434C14.5356 9.14741 14.7513 9.66667 14.7523 10.2084V10.6921C14.7513 11.2339 14.5356 11.7531 14.1526 12.1362C13.7695 12.5193 13.2502 12.7349 12.7085 12.7359H11.5198C10.978 12.7349 10.4588 12.5193 10.0757 12.1362C9.69265 11.7531 9.47701 11.2339 9.47602 10.6921C9.47602 10.543 9.53528 10.3999 9.64077 10.2944C9.74626 10.1889 9.88933 10.1296 10.0385 10.1296C10.1877 10.1296 10.3308 10.1889 10.4363 10.2944C10.5418 10.3999 10.601 10.543 10.601 10.6921C10.601 10.9358 10.6978 11.1695 10.8701 11.3418C11.0424 11.5141 11.2761 11.6109 11.5198 11.6109H12.7085C12.9522 11.6109 13.1859 11.5141 13.3582 11.3418C13.5305 11.1695 13.6273 10.9358 13.6273 10.6921V10.2084C13.6273 9.96473 13.5305 9.73104 13.3582 9.55874C13.1859 9.38645 12.9522 9.28965 12.7085 9.28965H11.5198C10.978 9.28866 10.4588 9.07302 10.0757 8.68995C9.69265 8.30689 9.47701 7.78763 9.47602 7.2459V6.94215C9.47701 6.40042 9.69265 5.88116 10.0757 5.49809C10.4588 5.11503 10.978 4.89939 11.5198 4.8984H12.881C13.3783 4.8984 13.8552 5.09594 14.2068 5.44757C14.5585 5.7992 14.756 6.27612 14.756 6.7734C14.756 6.92258 14.6968 7.06566 14.5913 7.17115C14.4858 7.27664 14.3427 7.3359 14.1935 7.3359C14.0443 7.3359 13.9013 7.27664 13.7958 7.17115C13.6903 7.06566 13.631 6.92258 13.631 6.7734C13.631 6.57449 13.552 6.38372 13.4113 6.24307C13.2707 6.10242 13.0799 6.0234 12.881 6.0234H11.5198C11.2761 6.0234 11.0424 6.1202 10.8701 6.29249C10.6978 6.46479 10.601 6.69848 10.601 6.94215V7.2309C10.599 7.35281 10.6213 7.47389 10.6666 7.5871C10.7119 7.7003 10.7792 7.80336 10.8648 7.89027C10.9503 7.97718 11.0522 8.0462 11.1647 8.09331C11.2771 8.14041 11.3978 8.16467 11.5198 8.16465Z" fill="#4B4EFC"/>
</svg>
