<svg width="24" height="25" viewBox="0 0 24 25" fill="none" xmlns="http://www.w3.org/2000/svg">
<g clip-path="url(#clip0_101_36252)">
<path d="M2.25 6.44238H14.25C15.0456 6.44238 15.8087 6.75845 16.3713 7.32106C16.9339 7.88367 17.25 8.64673 17.25 9.44238V18.4424C17.25 18.6413 17.171 18.8321 17.0303 18.9727C16.8897 19.1134 16.6989 19.1924 16.5 19.1924H4.5C3.70435 19.1924 2.94129 18.8763 2.37868 18.3137C1.81607 17.7511 1.5 16.988 1.5 16.1924V7.19238C1.5 6.99347 1.57902 6.80271 1.71967 6.66205C1.86032 6.5214 2.05109 6.44238 2.25 6.44238V6.44238Z" stroke="#4B4EFC" stroke-width="1.5" stroke-linecap="round" stroke-linejoin="round"/>
<path d="M17.25 11.3174L22.5 8.31738V17.3174L17.25 14.3174" stroke="#4B4EFC" stroke-width="1.5" stroke-linecap="round" stroke-linejoin="round"/>
</g>
<defs>
<clipPath id="clip0_101_36252">
<rect width="24" height="24" fill="white" transform="translate(0 0.817383)"/>
</clipPath>
</defs>
</svg>
