<svg width="95" height="26" viewBox="0 0 95 26" fill="none" xmlns="http://www.w3.org/2000/svg">
<rect width="95" height="26" rx="4" fill="#4B4EFC"/>
<path d="M29.4711 17L26.7211 9.77H27.7711L29.5311 14.39C29.6111 14.59 29.6878 14.8 29.7611 15.02C29.8344 15.2333 29.9078 15.4767 29.9811 15.75C30.0678 15.4633 30.1511 15.2033 30.2311 14.97C30.3111 14.7367 30.3811 14.54 30.4411 14.38L32.1911 9.77H33.2111L30.4911 17H29.4711ZM33.9905 17V12.11H34.9305V17H33.9905ZM34.4505 10.95C34.2839 10.95 34.1372 10.89 34.0105 10.77C33.8905 10.6433 33.8305 10.4967 33.8305 10.33C33.8305 10.1567 33.8905 10.01 34.0105 9.89C34.1372 9.77 34.2839 9.71 34.4505 9.71C34.6239 9.71 34.7705 9.77 34.8905 9.89C35.0105 10.01 35.0705 10.1567 35.0705 10.33C35.0705 10.4967 35.0105 10.6433 34.8905 10.77C34.7705 10.89 34.6239 10.95 34.4505 10.95ZM38.4052 17.12C37.9319 17.12 37.5119 17.0133 37.1452 16.8C36.7786 16.58 36.4919 16.28 36.2852 15.9C36.0786 15.5133 35.9752 15.0667 35.9752 14.56C35.9752 14.0467 36.0752 13.5967 36.2752 13.21C36.4819 12.8233 36.7619 12.52 37.1152 12.3C37.4752 12.08 37.8919 11.97 38.3652 11.97C38.8319 11.97 39.2352 12.07 39.5752 12.27C39.9219 12.47 40.1886 12.75 40.3752 13.11C40.5686 13.47 40.6652 13.8933 40.6652 14.38V14.73L36.4752 14.74L36.4952 14.11H39.7252C39.7252 13.7033 39.6019 13.3767 39.3552 13.13C39.1086 12.8833 38.7786 12.76 38.3652 12.76C38.0519 12.76 37.7819 12.83 37.5552 12.97C37.3352 13.1033 37.1652 13.3033 37.0452 13.57C36.9319 13.83 36.8752 14.1433 36.8752 14.51C36.8752 15.0967 37.0086 15.55 37.2752 15.87C37.5419 16.1833 37.9252 16.34 38.4252 16.34C38.7919 16.34 39.0919 16.2667 39.3252 16.12C39.5586 15.9733 39.7152 15.76 39.7952 15.48H40.6752C40.5552 16 40.2986 16.4033 39.9052 16.69C39.5119 16.9767 39.0119 17.12 38.4052 17.12ZM42.5991 17L40.9991 12.11H41.9691L42.7791 14.65C42.8391 14.83 42.8925 15.0167 42.9391 15.21C42.9858 15.3967 43.0325 15.5967 43.0791 15.81C43.1058 15.6633 43.1358 15.5233 43.1691 15.39C43.2091 15.25 43.2491 15.12 43.2891 15C43.3291 14.8733 43.3658 14.7567 43.3991 14.65L44.2191 12.11H45.1791L45.9891 14.65C46.0158 14.71 46.0391 14.79 46.0591 14.89C46.0858 14.9833 46.1158 15.0833 46.1491 15.19C46.1825 15.2967 46.2125 15.4033 46.2391 15.51C46.2658 15.6167 46.2891 15.7167 46.3091 15.81C46.3358 15.6767 46.3625 15.55 46.3891 15.43C46.4225 15.3033 46.4558 15.18 46.4891 15.06C46.5291 14.9333 46.5725 14.7967 46.6191 14.65L47.4391 12.11H48.4191L46.7491 17H45.8591L45.0091 14.38C44.9291 14.1333 44.8625 13.9167 44.8091 13.73C44.7625 13.5367 44.7258 13.3733 44.6991 13.24C44.6725 13.36 44.6325 13.51 44.5791 13.69C44.5325 13.8633 44.4658 14.0967 44.3791 14.39L43.5291 17H42.5991ZM51.4393 12.11H54.2993V12.9H51.4393V12.11ZM53.3393 17H52.3993V10.58H53.3393V17ZM54.7741 14.55C54.7741 14.05 54.8841 13.6067 55.1041 13.22C55.3241 12.8333 55.6241 12.53 56.0041 12.31C56.3907 12.09 56.8307 11.98 57.3241 11.98C57.8174 11.98 58.2541 12.09 58.6341 12.31C59.0141 12.53 59.3141 12.8333 59.5341 13.22C59.7541 13.6067 59.8641 14.05 59.8641 14.55C59.8641 15.05 59.7541 15.4933 59.5341 15.88C59.3141 16.2667 59.0141 16.57 58.6341 16.79C58.2541 17.01 57.8174 17.12 57.3241 17.12C56.8307 17.12 56.3907 17.01 56.0041 16.79C55.6241 16.57 55.3241 16.2667 55.1041 15.88C54.8841 15.4933 54.7741 15.05 54.7741 14.55ZM55.7241 14.55C55.7241 14.89 55.7907 15.19 55.9241 15.45C56.0641 15.71 56.2541 15.9133 56.4941 16.06C56.7341 16.2067 57.0107 16.28 57.3241 16.28C57.6374 16.28 57.9141 16.2067 58.1541 16.06C58.3941 15.9133 58.5807 15.71 58.7141 15.45C58.8541 15.19 58.9241 14.89 58.9241 14.55C58.9241 14.2033 58.8541 13.9033 58.7141 13.65C58.5807 13.39 58.3941 13.1867 58.1541 13.04C57.9141 12.8933 57.6374 12.82 57.3241 12.82C57.0107 12.82 56.7341 12.8933 56.4941 13.04C56.2541 13.1867 56.0641 13.39 55.9241 13.65C55.7907 13.9033 55.7241 14.2033 55.7241 14.55ZM60.5846 14.55C60.5846 14.05 60.6946 13.6067 60.9146 13.22C61.1346 12.8333 61.4346 12.53 61.8146 12.31C62.2013 12.09 62.6413 11.98 63.1346 11.98C63.6279 11.98 64.0646 12.09 64.4446 12.31C64.8246 12.53 65.1246 12.8333 65.3446 13.22C65.5646 13.6067 65.6746 14.05 65.6746 14.55C65.6746 15.05 65.5646 15.4933 65.3446 15.88C65.1246 16.2667 64.8246 16.57 64.4446 16.79C64.0646 17.01 63.6279 17.12 63.1346 17.12C62.6413 17.12 62.2013 17.01 61.8146 16.79C61.4346 16.57 61.1346 16.2667 60.9146 15.88C60.6946 15.4933 60.5846 15.05 60.5846 14.55ZM61.5346 14.55C61.5346 14.89 61.6013 15.19 61.7346 15.45C61.8746 15.71 62.0646 15.9133 62.3046 16.06C62.5446 16.2067 62.8213 16.28 63.1346 16.28C63.4479 16.28 63.7246 16.2067 63.9646 16.06C64.2046 15.9133 64.3913 15.71 64.5246 15.45C64.6646 15.19 64.7346 14.89 64.7346 14.55C64.7346 14.2033 64.6646 13.9033 64.5246 13.65C64.3913 13.39 64.2046 13.1867 63.9646 13.04C63.7246 12.8933 63.4479 12.82 63.1346 12.82C62.8213 12.82 62.5446 12.8933 62.3046 13.04C62.0646 13.1867 61.8746 13.39 61.7346 13.65C61.6013 13.9033 61.5346 14.2033 61.5346 14.55ZM67.6752 17H66.7352V9.64H67.6752V17Z" fill="white"/>
</svg>
