<svg width="25" height="22" viewBox="0 0 25 22" fill="none" xmlns="http://www.w3.org/2000/svg">
<path d="M22.917 5.5H6.08366C3.87452 5.5 2.08366 7.29086 2.08366 9.5V16.1667C2.08366 18.3758 3.87452 20.1667 6.08366 20.1667H18.917C21.1261 20.1667 22.917 18.3758 22.917 16.1667V5.5Z" stroke="#3E3E3E" stroke-width="1.5" stroke-linejoin="round"/>
<path d="M22.917 5.49967C22.917 3.47463 21.2754 1.83301 19.2503 1.83301H12.0003C9.97528 1.83301 8.33366 3.47463 8.33366 5.49967V5.49967H22.917V5.49967Z" stroke="#3E3E3E" stroke-width="1.5" stroke-linejoin="round"/>
<path d="M2.08301 11L2.08301 14.6667L6.49967 14.6667C7.5122 14.6667 8.33301 13.8459 8.33301 12.8333V12.8333C8.33301 11.8208 7.5122 11 6.49967 11L2.08301 11Z" stroke="#3E3E3E" stroke-width="1.5" stroke-linejoin="round"/>
</svg>
