<svg width="16" height="16" viewBox="0 0 16 16" fill="none" xmlns="http://www.w3.org/2000/svg">
<path d="M14.6663 7.99967C14.6663 11.6816 11.6816 14.6663 7.99967 14.6663M14.6663 7.99967C14.6663 4.31778 11.6816 1.33301 7.99967 1.33301M14.6663 7.99967C14.6663 6.8951 11.6816 5.99967 7.99967 5.99967C4.31778 5.99967 1.33301 6.8951 1.33301 7.99967M14.6663 7.99967C14.6663 9.10424 11.6816 9.99968 7.99967 9.99968C4.31778 9.99968 1.33301 9.10424 1.33301 7.99967M7.99967 14.6663C4.31778 14.6663 1.33301 11.6816 1.33301 7.99967M7.99967 14.6663C9.47243 14.6663 10.6663 11.6816 10.6663 7.99967C10.6663 4.31778 9.47243 1.33301 7.99967 1.33301M7.99967 14.6663C6.52692 14.6663 5.33301 11.6816 5.33301 7.99967C5.33301 4.31778 6.52692 1.33301 7.99967 1.33301M1.33301 7.99967C1.33301 4.31778 4.31778 1.33301 7.99967 1.33301" stroke="#4B4EFC"/>
</svg>
