<svg width="10" height="23" viewBox="0 0 10 23" fill="none" xmlns="http://www.w3.org/2000/svg">
<path d="M9.80019 1.81286C9.80019 1.39764 9.6606 1.05086 9.38619 0.781656C8.89738 0.302453 8.09662 0.210063 7.5314 0.197641L7.38501 0.710031C7.18982 1.69244 6.41779 5.00045 5.0002 5.00045C3.5826 5.00045 2.81062 1.69244 2.60821 0.678859L2.5206 0.197266C1.95421 0.205281 1.11862 0.287266 0.614195 0.781656C0.339789 1.05086 0.200195 1.39764 0.200195 1.81286C0.200195 2.58288 0.750602 3.19806 1.33298 3.84967C1.95618 4.54567 2.6002 5.26609 2.6002 6.20045C2.6002 7.11006 2.32499 7.74686 2.03418 8.42125C1.7226 9.14406 1.40019 9.89088 1.40019 10.9752C1.40019 12.1204 1.6558 13.9504 1.88099 15.5652C2.0518 16.786 2.21259 17.9384 2.21259 18.4628C2.21259 19.7124 2.20016 22.586 2.20016 22.5864C2.19937 22.8068 2.37698 22.9868 2.59818 22.988L5.00221 23.0005L7.40221 22.988C7.62341 22.9868 7.80102 22.8068 7.80023 22.5865C7.80023 22.586 7.7878 19.7125 7.7878 18.4629C7.7878 17.9385 7.94859 16.786 8.1194 15.5653C8.34459 13.9505 8.60019 12.1205 8.60019 10.9753C8.60019 9.89088 8.27779 9.14406 7.96621 8.4213C7.67498 7.74686 7.4002 7.11006 7.4002 6.20045C7.4002 5.26605 8.04421 4.54567 8.66741 3.84967C9.24979 3.19806 9.80019 2.58288 9.80019 1.81286Z" fill="black"/>
</svg>
